<svg width="60" height="89" viewBox="0 0 60 89" fill="none" xmlns="http://www.w3.org/2000/svg">
<path d="M46.3164 43.043V42.7402C53.1582 38.7441 57.2754 31.8418 57.2754 23.6074C57.2754 9.07617 45.166 0.902344 29.9688 0.902344C17.4355 0.902344 7.62695 7.25977 3.75195 16.0391L17.1934 23.2441C19.6758 18.8848 23.3086 16.0996 29.6055 16.0996C35.9023 16.0996 40.8672 20.2773 40.8672 26.4531C40.8672 31.9629 37.4766 36.5039 29.8477 36.5039H22.3398V50.1875H28.4551C37.8398 50.1875 42.502 55.3945 42.502 61.5703C42.502 68.6543 36.6895 72.8926 29.9082 72.8926C22.2188 72.8926 17.4961 69.3203 15.1953 63.2656L0.542969 69.3809C4.7207 80.0977 15.9219 88.0898 31.0586 88.0898C47.5879 88.0898 59.8184 78.584 59.8184 63.9316C59.8184 54.002 54.5508 46.8574 46.377 43.1035L46.3164 43.043Z" fill="#4E5A6C"/>
</svg>
