<svg width="56" height="56" viewBox="0 0 56 56" fill="none" xmlns="http://www.w3.org/2000/svg">
<circle cx="28" cy="28" r="28" fill="white"/>
<path d="M31.8052 39.8953L25.9162 41.4732C25.4967 41.5856 25.0615 41.3343 24.9491 40.9148C24.8367 40.4953 25.0879 40.06 25.5074 39.9476L31.3964 38.3697C31.8159 38.2573 32.2511 38.5085 32.3636 38.9281C32.4761 39.3477 32.2247 39.7828 31.8052 39.8953ZM29.0786 21.7979C29.0258 22.5158 28.6197 22.9204 27.9893 22.9101C27.3616 22.9 26.9048 22.4698 26.9199 21.8148C26.9345 21.1774 27.3341 20.7587 28.0139 20.7661C28.6933 20.7735 29.0301 21.1749 29.0786 21.7979ZM36.6282 19.3785C34.2856 15.5093 29.6456 13.6293 25.3349 14.8888C21.5624 15.991 19.1027 18.4819 18.2084 22.3127C17.3231 26.1043 18.425 29.3656 21.2137 32.0968C21.8677 32.7373 22.469 33.5132 22.8377 34.3412C23.2073 35.171 23.3258 35.4305 24.2261 35.2127C25.4765 34.9101 26.7101 34.5385 27.9602 34.2348C28.6011 34.0791 28.8446 33.7213 28.8404 33.0752C28.8232 30.4677 28.829 27.86 28.8385 25.2525C28.8406 24.6622 28.6551 24.1762 28.02 24.1615C27.3771 24.1465 27.1803 24.6163 27.1857 25.218C27.2006 26.9086 27.1902 28.5993 27.1901 30.2899C27.19 33.0096 27.1901 33.0096 24.5159 33.4003C23.4992 32.2355 22.5735 31.1883 21.6626 30.1284C18.3932 26.3243 18.9911 20.7008 23.0715 17.7882C26.003 15.6957 29.1521 15.5792 32.2918 17.346C35.2071 18.9867 36.7931 22.3666 36.3727 25.6363C36.0919 27.8206 35.0489 29.5641 33.5019 31.063C32.5682 31.9675 31.7175 32.9414 31.4112 34.2493C31.268 34.8611 30.925 35.1645 30.3324 35.3106C30.4431 35.2076 23.9447 37.0285 23.9447 37.0285C23.5336 37.1386 23.2874 37.5651 23.3976 37.9762L23.4146 38.0397C23.5247 38.4508 23.9512 38.697 24.3623 38.5869C24.3623 38.5869 31.8186 36.5833 31.9163 36.5556C32.6068 36.365 32.9826 35.8734 32.9984 35.1718C33.0219 34.1243 33.477 33.3091 34.2176 32.6131C34.6141 32.2405 35.0089 31.8646 35.382 31.469C38.4617 28.2026 38.97 23.2465 36.6282 19.3785Z" fill="#00B8DE"/>
</svg>
