<svg width="21" height="20" viewBox="0 0 21 20" fill="none" xmlns="http://www.w3.org/2000/svg">
<path fill-rule="evenodd" clip-rule="evenodd" d="M19.5 14C20.0128 14 20.4355 14.386 20.4933 14.8834L20.5 15V17C20.5 18.5977 19.2511 19.9037 17.6763 19.9949L17.5 20H3.5C1.90232 20 0.596339 18.7511 0.505093 17.1763L0.5 17V15C0.5 14.4477 0.947715 14 1.5 14C2.01284 14 2.43551 14.386 2.49327 14.8834L2.5 15V17C2.5 17.5128 2.88604 17.9355 3.38338 17.9933L3.5 18H17.5C18.0128 18 18.4355 17.614 18.4933 17.1166L18.5 17V15C18.5 14.4477 18.9477 14 19.5 14ZM10.5 0C11.0523 0 11.5 0.447715 11.5 1V10.585L12.7929 9.29289C13.1534 8.93241 13.7206 8.90468 14.1129 9.2097L14.2071 9.29289C14.5676 9.65338 14.5953 10.2206 14.2903 10.6129L14.2071 10.7071L11.2071 13.7071L11.1631 13.7485L11.0953 13.8037L10.9841 13.8753L10.8713 13.9288L10.766 13.9642L10.6175 13.9932L10.5 14L10.4248 13.9972L10.2993 13.9798L10.1879 13.9503L10.0768 13.9063L9.97929 13.854L9.88325 13.7872C9.85153 13.7623 9.82136 13.7356 9.79289 13.7071L6.79289 10.7071C6.40237 10.3166 6.40237 9.68342 6.79289 9.29289C7.15338 8.93241 7.72061 8.90468 8.1129 9.2097L8.20711 9.29289L9.5 10.585V1C9.5 0.447715 9.94771 0 10.5 0Z" fill="#479FC8"/>
</svg>
