<svg width="237" height="43" viewBox="0 0 237 43" fill="none" xmlns="http://www.w3.org/2000/svg">
<path d="M208.375 19.2294V20.9483H202.136L202.113 19.7006L205.087 16.564C205.86 15.7489 206.366 15.0922 206.366 14.3235C206.373 14.1534 206.346 13.9835 206.285 13.8245C206.224 13.6654 206.131 13.5206 206.012 13.3989C205.893 13.2772 205.75 13.1813 205.592 13.1171C205.434 13.0529 205.265 13.0217 205.095 13.0256C204.75 13.0279 204.412 13.1254 204.119 13.3074C203.826 13.4894 203.589 13.7488 203.434 14.057L202.074 13.0874C202.378 12.5188 202.836 12.0477 203.396 11.7285C203.955 11.4092 204.594 11.255 205.238 11.2834C206.833 11.2834 208.274 12.3419 208.274 14.1188C208.274 15.2004 207.926 16.0502 206.69 17.3327L204.89 19.1907V19.2255L208.375 19.2294Z" fill="#EE312A"/>
<path d="M214.003 19.9556C213.999 19.7319 214.062 19.5121 214.183 19.3242C214.305 19.1362 214.479 18.9887 214.685 18.9002C214.89 18.8118 215.118 18.7864 215.338 18.8274C215.558 18.8684 215.76 18.9739 215.92 19.1305C216.08 19.287 216.19 19.4876 216.235 19.7067C216.281 19.9257 216.26 20.1534 216.176 20.3607C216.092 20.568 215.948 20.7455 215.762 20.8708C215.577 20.9961 215.359 21.0634 215.135 21.0642C214.988 21.0658 214.842 21.0383 214.705 20.9834C214.569 20.9285 214.444 20.8473 214.339 20.7443C214.234 20.6414 214.15 20.5187 214.093 20.3834C214.035 20.2481 214.005 20.1027 214.003 19.9556Z" fill="#EE312A"/>
<path d="M220.57 16.1738C220.57 13.2535 221.98 11.2873 224.29 11.2873C226.503 11.2873 228.017 13.0835 228.017 16.1738C228.017 19.0942 226.611 21.0642 224.29 21.0642C222.092 21.0642 220.57 19.2641 220.57 16.1738ZM226.082 16.1738C226.082 14.2424 225.425 13.0449 224.298 13.0449C223.17 13.0449 222.501 14.1497 222.501 16.1738C222.501 18.1053 223.166 19.3028 224.294 19.3028C225.422 19.3028 226.09 18.198 226.09 16.1738H226.082Z" fill="#EE312A"/>
<path d="M11.7431 12.8209H9.03906V11.0671H16.4287V12.8209H13.6938V20.9329H11.7431V12.8209Z" fill="white"/>
<path d="M56.8848 11.0671H58.8471V15.3472H62.8877V11.0671H64.8577V20.9483H62.8877V17.0855H58.8471V20.9483H56.8848V11.0671Z" fill="white"/>
<path d="M91.021 16.0039C91.021 13.0797 93.0722 10.9512 96.0427 10.9512C98.9437 10.9512 101.064 12.9908 101.064 16.0039C101.064 19.0169 98.9399 21.0642 96.0427 21.0642C93.0722 21.0642 91.021 18.9281 91.021 16.0039ZM96.0659 19.2448C97.7694 19.2448 99.0519 17.8658 99.0519 16.0039C99.0519 14.142 97.7694 12.7784 96.0659 12.7784C94.2851 12.7784 93.0567 14.2115 93.0567 16.0039C93.0567 17.7962 94.2851 19.2448 96.0659 19.2448Z" fill="white"/>
<path d="M166.455 16.0039C166.455 13.0797 168.506 10.9512 171.477 10.9512C174.378 10.9512 176.499 12.9908 176.499 16.0039C176.499 19.0169 174.374 21.0642 171.477 21.0642C168.506 21.0642 166.455 18.9281 166.455 16.0039ZM171.512 19.2448C173.215 19.2448 174.498 17.8658 174.498 16.0039C174.498 14.142 173.215 12.7784 171.512 12.7784C169.731 12.7784 168.502 14.2115 168.502 16.0039C168.502 17.7962 169.731 19.2448 171.512 19.2448Z" fill="white"/>
<path d="M117.431 11.0671L113.777 20.9483H112.062L108.396 11.0671H110.517L112.904 18.1555H112.927L115.341 11.0594L117.431 11.0671Z" fill="white"/>
<path d="M142.517 12.8209H139.793V11.0671H147.202V12.8209H144.471V20.9329H142.521L142.517 12.8209Z" fill="white"/>
<path d="M155.705 11.0671H157.675V20.9483H155.705V11.0671Z" fill="white"/>
<path d="M26.7928 12.8209H31.1772V11.0671H24.8652V12.8209H26.7928Z" fill="white"/>
<path d="M26.7928 19.2023V16.9155H30.308V15.1888H26.7928H24.8652V20.9483H31.4707V19.2023H26.7928Z" fill="white"/>
<path d="M80.3479 11.0671V17.7422H80.3209L75.9249 11.0671H73.978V19.5886H75.9249V14.4008H75.952L80.2977 20.9483H82.3025V11.0671H80.3479Z" fill="white"/>
<path d="M191.602 12.5427V17.7422H191.575L187.183 11.0671H185.236V20.9483H187.183V14.4008H187.21L191.556 20.9483H193.561V12.5427H191.602Z" fill="white"/>
<path d="M129.36 11.0671H127.471L123.809 20.9483H125.856L128.405 13.4235H128.421L130.986 20.9483H133.029L129.36 11.0671Z" fill="white"/>
<path d="M46.6443 18.1555C45.3773 19.3761 43.5308 19.5036 42.287 18.2598C41.0431 17.0159 41.1281 15.1695 42.4569 13.8677C43.7857 12.5659 45.6554 12.4848 46.8606 13.69L48.1469 12.4037C46.0957 10.3563 43.1522 10.2907 41.0161 12.4268C38.8799 14.563 38.9456 17.5027 41.0161 19.5538C43.0866 21.605 46.0378 21.6127 48.1006 19.5886L46.6443 18.1555Z" fill="white"/>
<path d="M9.72266 34H10.4141V31.8359H11.5898C12.7734 31.8359 13.5898 31.2852 13.5898 30.082C13.5898 29.0742 13.0391 28.3203 11.7109 28.3203H9.72266V34ZM10.418 31.1953V28.9609H11.6328C12.3984 28.9609 12.8672 29.3477 12.8672 30.0664C12.8672 30.7148 12.4766 31.1953 11.5234 31.1953H10.418ZM16.2617 34.0508C17.4102 34.0508 18.2656 33.2422 18.2656 32.0625C18.2656 30.875 17.4102 30.0625 16.2617 30.0625C15.0547 30.0625 14.25 30.9336 14.25 32.0625C14.25 33.1797 15.0547 34.0508 16.2617 34.0508ZM16.2617 33.457C15.457 33.457 14.9023 32.832 14.9023 32.0625C14.9023 31.2852 15.4492 30.6602 16.2617 30.6602C17.0156 30.6602 17.6094 31.2305 17.6094 32.0625C17.6094 32.8828 17.0117 33.457 16.2617 33.457ZM23.6797 30.1094L22.6875 33.0195H22.6719L21.7734 30.1094H21.2109L20.3242 33.0156H20.3086L19.3164 30.1094H18.6562L20.0078 34H20.6055L21.4844 31.1641H21.5L22.375 34H22.9883L24.3398 30.1094H23.6797ZM28.3906 31.9961C28.3906 30.8789 27.6641 30.0625 26.5781 30.0625C25.5273 30.0625 24.7148 30.8828 24.7148 32.0586C24.7148 33.2461 25.5469 34.0508 26.6523 34.0508C27.3633 34.0508 27.8945 33.75 28.2266 33.3203L27.7734 32.9336C27.5312 33.2344 27.1602 33.457 26.6758 33.457C25.9766 33.457 25.4609 32.9844 25.3789 32.2617H28.3711C28.375 32.2383 28.3906 32.0977 28.3906 31.9961ZM26.6133 30.6602C27.2305 30.6602 27.6445 31.0859 27.7461 31.7227H25.3945C25.5156 31.0625 26.0039 30.6602 26.6133 30.6602ZM31.3008 30.0625C30.7734 30.0625 30.3242 30.3281 30.0352 30.7891H30.0195V30.1094H29.3711V34H30.0195V32.125C30.0195 31.3438 30.4648 30.7734 31.2031 30.7734C31.2695 30.7734 31.3672 30.7773 31.4609 30.7852V30.0703C31.4141 30.0625 31.3594 30.0625 31.3008 30.0625ZM35.5312 31.9961C35.5312 30.8789 34.8047 30.0625 33.7188 30.0625C32.668 30.0625 31.8555 30.8828 31.8555 32.0586C31.8555 33.2461 32.6875 34.0508 33.793 34.0508C34.5039 34.0508 35.0352 33.75 35.3672 33.3203L34.9141 32.9336C34.6719 33.2344 34.3008 33.457 33.8164 33.457C33.1172 33.457 32.6016 32.9844 32.5195 32.2617H35.5117C35.5156 32.2383 35.5312 32.0977 35.5312 31.9961ZM33.7539 30.6602C34.3711 30.6602 34.7852 31.0859 34.8867 31.7227H32.5352C32.6562 31.0625 33.1445 30.6602 33.7539 30.6602ZM39.5117 28.1133V30.6875H39.5C39.1758 30.2812 38.6992 30.0625 38.1758 30.0625C37.0781 30.0625 36.2734 30.9297 36.2734 32.082C36.2734 33.2734 37.1094 34.0508 38.1836 34.0508C38.75 34.0508 39.2227 33.8008 39.5312 33.3867H39.543V34H40.1641V28.1133H39.5117ZM38.2461 33.457C37.4531 33.457 36.9336 32.8672 36.9336 32.0859C36.9336 31.2188 37.5117 30.6562 38.2539 30.6562C38.9844 30.6562 39.5391 31.2852 39.5391 32.0859C39.5391 32.9102 38.9297 33.457 38.2461 33.457ZM45.6094 30.0625C45.082 30.0625 44.6016 30.2773 44.2773 30.6836H44.2617V28.1133H43.6133V34H44.2344V33.3867H44.2422C44.5586 33.8008 45.0352 34.0508 45.6094 34.0508C46.6836 34.0508 47.5195 33.2734 47.5195 32.082C47.5195 30.9297 46.7148 30.0625 45.6133 30.0625H45.6094ZM45.5469 33.4609C44.8477 33.4609 44.2383 32.9102 44.2383 32.0859C44.2383 31.2852 44.7891 30.6562 45.5352 30.6562C46.2773 30.6562 46.8555 31.2188 46.8555 32.0859C46.8555 32.8711 46.3359 33.4609 45.543 33.4609H45.5469ZM50.9883 30.1094L49.8086 33.0703H49.7891L48.5234 30.1094H47.832L49.4766 33.8516L48.7812 35.582H49.4688L51.6719 30.1094H50.9883Z" fill="#9CA3AF"/>
<path fill-rule="evenodd" clip-rule="evenodd" d="M77.1631 31.363L77.3819 30.2214C77.3819 30.2214 75.697 29.7199 74.3257 30.65V35.2168H75.7819V31.5064C76.3622 31.0779 77.1631 31.363 77.1631 31.363Z" fill="white"/>
<mask id="mask0_28_2224" style="mask-type:alpha" maskUnits="userSpaceOnUse" x="74" y="30" width="4" height="6">
<path d="M74.3262 30.65C74.986 30.2026 75.7184 30.0865 76.3008 30.0865C76.9288 30.0865 77.3825 30.2215 77.3825 30.2215L77.1636 31.3631C77.1636 31.3631 76.3627 31.078 75.7824 31.5064V35.2168H74.3262V30.65Z" fill="white"/>
</mask>
<g mask="url(#mask0_28_2224)">
<path fill-rule="evenodd" clip-rule="evenodd" d="M-14.3184 49.371L190.754 49.371V-216.868L-14.3184 -216.868L-14.3184 49.371Z" fill="white"/>
</g>
<mask id="mask1_28_2224" style="mask-type:alpha" maskUnits="userSpaceOnUse" x="74" y="30" width="4" height="6">
<path d="M74.3262 30.65C74.986 30.2026 75.7183 30.0865 76.3008 30.0865C76.9288 30.0865 77.3825 30.2215 77.3825 30.2215L77.1636 31.3631C77.1636 31.3631 76.3627 31.078 75.7824 31.5064V35.2168H74.3262V30.65Z" fill="white"/>
</mask>
<g mask="url(#mask1_28_2224)">
<path fill-rule="evenodd" clip-rule="evenodd" d="M71.8848 37.4542L79.8237 37.4542V27.8493L71.8848 27.8493V37.4542Z" fill="white"/>
</g>
<path fill-rule="evenodd" clip-rule="evenodd" d="M64.6084 28.9194L66.0639 28.6681V30.1533H67.5043V31.3411H66.0639V33.1124C66.0639 33.4142 66.1172 33.6537 66.2261 33.8309C66.3337 34.0107 66.5495 34.0999 66.8737 34.0999C67.0322 34.0999 67.1914 34.0859 67.3593 34.0564C67.5224 34.0263 67.6746 33.9877 67.8115 33.9372L68.0174 35.0498C67.8413 35.119 67.6465 35.1792 67.4318 35.2301C67.2165 35.2806 66.952 35.3069 66.6396 35.3069C66.2424 35.3069 65.9142 35.2538 65.6532 35.1486C65.3935 35.0433 65.1847 34.8956 65.029 34.7071C64.8734 34.5203 64.764 34.2911 64.7025 34.0226C64.64 33.7546 64.6084 33.4587 64.6084 33.1323V28.9194Z" fill="white"/>
<mask id="mask2_28_2224" style="mask-type:alpha" maskUnits="userSpaceOnUse" x="64" y="28" width="5" height="8">
<path d="M64.6084 28.9194L66.0639 28.6681V30.1533H67.5043V31.3411H66.0639V33.1124C66.0639 33.4143 66.1172 33.6537 66.226 33.8309C66.3336 34.0108 66.5494 34.0999 66.8736 34.0999C67.0321 34.0999 67.1912 34.0859 67.3592 34.0564C67.5223 34.0263 67.6746 33.9877 67.8115 33.9373L68.0173 35.0498C67.8413 35.1191 67.6464 35.1792 67.4317 35.2302C67.2164 35.2807 66.9519 35.3069 66.6395 35.3069C66.2422 35.3069 65.9141 35.2538 65.6532 35.1486C65.3934 35.0433 65.1845 34.8956 65.029 34.7072C64.8733 34.5203 64.764 34.2911 64.7025 34.0226C64.6399 33.7546 64.6084 33.4588 64.6084 33.1323V28.9194Z" fill="white"/>
</mask>
<g mask="url(#mask2_28_2224)">
<path fill-rule="evenodd" clip-rule="evenodd" d="M-14.3188 49.3709L190.754 49.3709V-216.868L-14.3188 -216.868L-14.3188 49.3709Z" fill="white"/>
<path fill-rule="evenodd" clip-rule="evenodd" d="M62.167 37.5442L70.4587 37.5442V26.4307L62.167 26.4307V37.5442Z" fill="white"/>
</g>
<path fill-rule="evenodd" clip-rule="evenodd" d="M79.5377 34.1938C79.8039 34.1938 79.9922 34.1669 80.1041 34.1164C80.2151 34.0655 80.2689 33.9656 80.2689 33.8196C80.2689 33.7041 80.1988 33.6037 80.0548 33.5183C79.911 33.4314 79.6944 33.3347 79.4008 33.2246C79.1732 33.1414 78.9661 33.0555 78.7795 32.9669C78.5952 32.8767 78.4372 32.7715 78.3068 32.6463C78.1768 32.5218 78.0762 32.3725 78.0037 32.1985C77.9311 32.0278 77.8967 31.8211 77.8967 31.5773C77.8967 31.1052 78.0762 30.731 78.4337 30.4566C78.7917 30.1833 79.2821 30.0437 79.908 30.0437C80.221 30.0437 80.5205 30.0711 80.8072 30.1264C81.0933 30.1801 81.3221 30.2413 81.4899 30.303L81.2366 31.4145C81.067 31.3571 80.8827 31.3066 80.6844 31.2626C80.486 31.2175 80.2626 31.1939 80.0156 31.1939C79.5599 31.1939 79.3317 31.3195 79.3317 31.5681C79.3317 31.6255 79.3417 31.6766 79.3616 31.7211C79.3814 31.7663 79.4201 31.8092 79.4775 31.8505C79.5377 31.8914 79.6161 31.9375 79.7178 31.9848C79.819 32.0347 79.9478 32.0862 80.1041 32.1448C80.4217 32.2608 80.6855 32.3735 80.8938 32.4874C81.1026 32.6012 81.2665 32.721 81.3876 32.8541C81.5081 32.9841 81.5936 33.128 81.6415 33.2879C81.6895 33.4475 81.7146 33.6316 81.7146 33.8416C81.7146 34.3393 81.5239 34.7157 81.1442 34.9702C80.7627 35.2237 80.2233 35.3514 79.5265 35.3514C79.0714 35.3514 78.6923 35.3144 78.3898 35.2366C78.0862 35.1609 77.8767 35.0954 77.7598 35.0449L78.0037 33.8861C78.25 33.9817 78.5063 34.0558 78.7649 34.1117C79.027 34.1665 79.2821 34.1938 79.5377 34.1938Z" fill="white"/>
<mask id="mask3_28_2224" style="mask-type:alpha" maskUnits="userSpaceOnUse" x="77" y="30" width="5" height="6">
<path d="M78.4342 30.4569C78.7923 30.1835 79.2826 30.0439 79.9085 30.0439C80.2216 30.0439 80.5211 30.0713 80.8078 30.1266C81.0938 30.1803 81.3226 30.2414 81.4905 30.3032L81.2372 31.4147C81.0675 31.3572 80.8833 31.3068 80.6849 31.2628C80.4866 31.2176 80.2631 31.1941 80.0162 31.1941C79.5604 31.1941 79.3323 31.3196 79.3323 31.5683C79.3323 31.6257 79.3422 31.6768 79.362 31.7213C79.382 31.7664 79.4207 31.8094 79.4781 31.8507C79.5381 31.8916 79.6167 31.9377 79.7184 31.985C79.8196 32.0348 79.9482 32.0865 80.1046 32.145C80.4222 32.2609 80.6861 32.3737 80.8943 32.4876C81.1032 32.6014 81.2671 32.7211 81.3882 32.8543C81.5087 32.9843 81.594 33.1281 81.6421 33.2881C81.6901 33.4477 81.7151 33.6318 81.7151 33.8418C81.7151 34.3395 81.5244 34.716 81.1448 34.9704C80.7633 35.2239 80.2239 35.3516 79.5271 35.3516C79.0719 35.3516 78.6928 35.3146 78.3904 35.2368C78.0867 35.1611 77.8773 35.0956 77.7603 35.0451L78.0042 33.8863C78.2506 33.982 78.5068 34.056 78.7654 34.1119C79.0274 34.1666 79.2826 34.194 79.5381 34.194C79.8044 34.194 79.9928 34.1672 80.1046 34.1166C80.2157 34.0657 80.2695 33.9658 80.2695 33.8198C80.2695 33.7043 80.1994 33.6039 80.0554 33.5185C79.9114 33.4316 79.6949 33.3349 79.4013 33.2248C79.1737 33.1416 78.9667 33.0557 78.7799 32.9671C78.5958 32.8769 78.4377 32.7717 78.3074 32.6465C78.1774 32.5219 78.0768 32.3727 78.0042 32.1987C77.9317 32.0279 77.8972 31.8212 77.8972 31.5774C77.8972 31.1055 78.0768 30.7312 78.4342 30.4569Z" fill="white"/>
</mask>
<g mask="url(#mask3_28_2224)">
<path fill-rule="evenodd" clip-rule="evenodd" d="M-14.3188 49.3708L190.754 49.3708V-216.868L-14.3188 -216.868L-14.3188 49.3708Z" fill="white"/>
<path fill-rule="evenodd" clip-rule="evenodd" d="M75.3193 37.5888L84.1569 37.5888V27.8064L75.3193 27.8064V37.5888Z" fill="white"/>
</g>
<path fill-rule="evenodd" clip-rule="evenodd" d="M86.201 32.3245C86.0705 32.8099 85.933 33.2932 85.7862 33.7711C85.6399 34.2506 85.4842 34.7328 85.3234 35.2182H84.1902C84.0726 34.9497 83.9445 34.6308 83.8076 34.2608C83.6694 33.8892 83.5285 33.486 83.3805 33.0473C83.2341 32.6101 83.0845 32.1474 82.9311 31.6576C82.7773 31.1701 82.6281 30.6772 82.4854 30.1783H84.0193C84.0702 30.4076 84.1281 30.6595 84.1907 30.9306C84.2528 31.2023 84.3183 31.4821 84.3867 31.7699C84.4552 32.0566 84.5283 32.3449 84.6032 32.6359C84.6787 32.927 84.756 33.2056 84.8342 33.4737C84.9191 33.1928 85.0022 32.9061 85.0835 32.6123C85.1637 32.3181 85.2427 32.0292 85.3181 31.7452C85.3925 31.4617 85.4656 31.1862 85.5322 30.921C85.6001 30.6562 85.6604 30.4076 85.7136 30.1783H86.7673C86.8211 30.4076 86.8778 30.6562 86.9439 30.921C87.0082 31.1862 87.0768 31.4617 87.1493 31.7452C87.2195 32.0292 87.2961 32.3181 87.3728 32.6123C87.4517 32.9061 87.5325 33.1928 87.6162 33.4737C87.6951 33.2056 87.7736 32.927 87.8525 32.6359C87.9315 32.3449 88.0058 32.0566 88.0736 31.7699C88.1415 31.4821 88.207 31.2023 88.2703 30.9306C88.3328 30.6595 88.3896 30.4076 88.4416 30.1783H89.9557C89.8119 30.6772 89.6638 31.1701 89.51 31.6576C89.3549 32.1474 89.2068 32.6101 89.0589 33.0473C88.9131 33.486 88.7693 33.8892 88.6294 34.2608C88.4885 34.6308 88.3585 34.9497 88.2428 35.2182H87.1096C86.9457 34.7328 86.7866 34.2506 86.6298 33.7711C86.4736 33.2932 86.332 32.8099 86.201 32.3245Z" fill="white"/>
<mask id="mask4_28_2224" style="mask-type:alpha" maskUnits="userSpaceOnUse" x="82" y="30" width="8" height="6">
<path d="M88.4416 30.1783H89.9557C89.8119 30.6772 89.6638 31.1701 89.5099 31.6576C89.3549 32.1474 89.2068 32.6102 89.0588 33.0473C88.9131 33.486 88.7693 33.8892 88.6293 34.2608C88.4884 34.6308 88.3585 34.9496 88.2427 35.2182H87.1095C86.9457 34.7328 86.7866 34.2505 86.6298 33.771C86.4736 33.2932 86.332 32.8099 86.201 32.3245C86.0704 32.8099 85.9329 33.2932 85.7862 33.771C85.6399 34.2505 85.4842 34.7328 85.3233 35.2182H84.1901C84.0725 34.9496 83.9444 34.6308 83.8075 34.2608C83.6694 33.8892 83.5284 33.486 83.3805 33.0473C83.2341 32.6102 83.0844 32.1474 82.9311 31.6576C82.7773 31.1701 82.6281 30.6772 82.4854 30.1783H84.0192C84.0702 30.4076 84.1281 30.6594 84.1907 30.9306C84.2528 31.2023 84.3182 31.4821 84.3867 31.7698C84.4551 32.0566 84.5283 32.3449 84.6032 32.6359C84.6787 32.927 84.756 33.2056 84.8342 33.4737C84.919 33.1928 85.0021 32.906 85.0834 32.6123C85.1636 32.3181 85.2427 32.0292 85.3181 31.7452C85.3924 31.4616 85.4655 31.1861 85.5322 30.921C85.6001 30.6562 85.6604 30.4076 85.7136 30.1783H86.7673C86.821 30.4076 86.8778 30.6562 86.9439 30.921C87.0082 31.1861 87.0768 31.4616 87.1492 31.7452C87.2195 32.0292 87.296 32.3181 87.3728 32.6123C87.4517 32.906 87.5325 33.1928 87.6161 33.4737C87.6951 33.2056 87.7735 32.927 87.8525 32.6359C87.9315 32.3449 88.0058 32.0566 88.0736 31.7698C88.1415 31.4821 88.207 31.2023 88.2702 30.9306C88.3328 30.6594 88.3896 30.4076 88.4416 30.1783Z" fill="white"/>
</mask>
<g mask="url(#mask4_28_2224)">
<path fill-rule="evenodd" clip-rule="evenodd" d="M-14.3184 49.3707L190.754 49.3707V-216.868L-14.3184 -216.868L-14.3184 49.3707Z" fill="white"/>
<path fill-rule="evenodd" clip-rule="evenodd" d="M80.0439 37.4557L92.397 37.4557V27.9411L80.0439 27.9411V37.4557Z" fill="white"/>
</g>
<path fill-rule="evenodd" clip-rule="evenodd" d="M90.9849 35.2162H92.4381V30.1774H90.9849V35.2162Z" fill="white"/>
<mask id="mask5_28_2224" style="mask-type:alpha" maskUnits="userSpaceOnUse" x="90" y="30" width="3" height="6">
<path d="M90.9849 35.2163V30.1775H92.4382V35.2163H90.9849Z" fill="white"/>
</mask>
<g mask="url(#mask5_28_2224)">
<path fill-rule="evenodd" clip-rule="evenodd" d="M-14.3184 49.3707L190.754 49.3707V-216.869L-14.3184 -216.869L-14.3184 49.3707Z" fill="white"/>
<path fill-rule="evenodd" clip-rule="evenodd" d="M88.5435 37.4534L94.8794 37.4534V27.9399L88.5435 27.9399V37.4534Z" fill="white"/>
</g>
<path fill-rule="evenodd" clip-rule="evenodd" d="M93.5938 28.9208L95.0482 28.668V30.18H96.4874V31.3656H95.0482V33.1386C95.0482 33.4387 95.102 33.6804 95.209 33.8571C95.3161 34.0359 95.5331 34.1256 95.8579 34.1256C96.0153 34.1256 96.1767 34.1127 96.3417 34.0831C96.5084 34.0541 96.6594 34.0128 96.7968 33.9629L97.0011 35.0744C96.8249 35.1451 96.6289 35.2054 96.4155 35.2569C96.1994 35.3073 95.9381 35.3331 95.6244 35.3331C95.2266 35.3331 94.8984 35.2806 94.6381 35.1742C94.3772 35.0706 94.1688 34.924 94.0133 34.7339C93.8576 34.547 93.7488 34.3166 93.6863 34.0498C93.623 33.7808 93.5938 33.4833 93.5938 33.1584V28.9208Z" fill="white"/>
<mask id="mask6_28_2224" style="mask-type:alpha" maskUnits="userSpaceOnUse" x="93" y="28" width="5" height="8">
<path d="M93.5933 28.9211L95.0476 28.6682V30.1803H96.4869V31.3659H95.0476V33.1389C95.0476 33.439 95.1015 33.6807 95.2085 33.8574C95.3156 34.0362 95.5326 34.1258 95.8573 34.1258C96.0147 34.1258 96.1762 34.1129 96.3412 34.0834C96.5079 34.0543 96.6589 34.0131 96.7963 33.9632L97.0005 35.0746C96.8244 35.1454 96.6283 35.2056 96.415 35.2571C96.1989 35.3076 95.9376 35.3334 95.6239 35.3334C95.2261 35.3334 94.8978 35.2808 94.6376 35.1745C94.3766 35.0708 94.1683 34.9243 94.0128 34.7342C93.8571 34.5473 93.7483 34.317 93.6857 34.0501C93.6226 33.7811 93.5933 33.4836 93.5933 33.1588V28.9211Z" fill="white"/>
</mask>
<g mask="url(#mask6_28_2224)">
<path fill-rule="evenodd" clip-rule="evenodd" d="M-14.3193 49.3708L190.753 49.3708V-216.868L-14.3193 -216.868L-14.3193 49.3708Z" fill="white"/>
<path fill-rule="evenodd" clip-rule="evenodd" d="M91.1523 37.5706L99.4424 37.5706V26.4308L91.1523 26.4308V37.5706Z" fill="white"/>
</g>
<path fill-rule="evenodd" clip-rule="evenodd" d="M97.5156 32.6995C97.5156 32.3348 97.576 31.9912 97.6965 31.6691C97.8169 31.3458 97.9908 31.0656 98.2184 30.8255C98.4465 30.5855 98.7226 30.3964 99.049 30.2553C99.3738 30.1162 99.7447 30.0442 100.161 30.0442C100.434 30.0442 100.685 30.0695 100.914 30.1167C101.142 30.1656 101.364 30.2338 101.578 30.3224L101.276 31.4624C101.138 31.4118 100.989 31.3678 100.825 31.3281C100.663 31.2905 100.479 31.2707 100.278 31.2707C99.8489 31.2707 99.5276 31.4022 99.3176 31.6642C99.104 31.9268 98.9999 32.271 98.9999 32.6995C98.9999 33.1521 99.0988 33.5037 99.2989 33.753C99.4955 34.0016 99.843 34.1267 100.337 34.1267C100.513 34.1267 100.701 34.11 100.904 34.0783C101.106 34.0461 101.291 33.9956 101.462 33.9248L101.665 35.0943C101.496 35.1646 101.285 35.2237 101.031 35.2757C100.776 35.3263 100.497 35.3525 100.192 35.3525C99.723 35.3525 99.3182 35.2827 98.9806 35.1458C98.6426 35.0089 98.3634 34.822 98.1457 34.5857C97.9264 34.349 97.7685 34.0698 97.6673 33.7476C97.566 33.4249 97.5156 33.0749 97.5156 32.6995Z" fill="white"/>
<mask id="mask7_28_2224" style="mask-type:alpha" maskUnits="userSpaceOnUse" x="97" y="30" width="5" height="6">
<path d="M99.049 30.2553C99.3738 30.1162 99.7447 30.0442 100.161 30.0442C100.434 30.0442 100.685 30.0694 100.914 30.1166C101.142 30.1656 101.364 30.2337 101.578 30.3224L101.276 31.4623C101.138 31.4118 100.989 31.3678 100.825 31.3281C100.663 31.2904 100.479 31.2706 100.278 31.2706C99.8489 31.2706 99.5276 31.4022 99.3176 31.6642C99.104 31.9267 98.9999 32.2709 98.9999 32.6995C98.9999 33.1521 99.0989 33.5037 99.2989 33.753C99.4955 34.0016 99.8429 34.1267 100.337 34.1267C100.513 34.1267 100.701 34.11 100.904 34.0783C101.106 34.0461 101.291 33.9956 101.462 33.9247L101.665 35.0943C101.496 35.1646 101.285 35.2236 101.031 35.2757C100.776 35.3262 100.497 35.3525 100.192 35.3525C99.7229 35.3525 99.3182 35.2827 98.9806 35.1457C98.6426 35.0088 98.3634 34.822 98.1457 34.5858C97.9265 34.349 97.7685 34.0698 97.6673 33.7476C97.566 33.4249 97.5156 33.0748 97.5156 32.6995C97.5156 32.3348 97.576 31.9912 97.6965 31.6691C97.8169 31.3458 97.9908 31.0655 98.2183 30.8254C98.4465 30.5854 98.7226 30.3964 99.049 30.2553Z" fill="white"/>
</mask>
<g mask="url(#mask7_28_2224)">
<path fill-rule="evenodd" clip-rule="evenodd" d="M-14.3184 49.3706L190.754 49.3706V-216.869L-14.3184 -216.869L-14.3184 49.3706Z" fill="white"/>
<path fill-rule="evenodd" clip-rule="evenodd" d="M95.0742 37.5897L104.107 37.5897V27.8067L95.0742 27.8067V37.5897Z" fill="white"/>
</g>
<path fill-rule="evenodd" clip-rule="evenodd" d="M102.605 35.2164V28.919L104.06 28.6683V30.1986C104.158 30.1669 104.282 30.1363 104.437 30.1074C104.589 30.0789 104.738 30.0638 104.881 30.0638C105.297 30.0638 105.642 30.1202 105.92 30.2314C106.196 30.3431 106.419 30.5015 106.584 30.706C106.751 30.9096 106.867 31.1533 106.937 31.4331C107.004 31.7149 107.038 32.0286 107.038 32.3733V35.2164H105.583V32.5445C105.583 32.0849 105.523 31.7595 105.403 31.5668C105.283 31.3772 105.059 31.2811 104.734 31.2811C104.602 31.2811 104.482 31.2924 104.367 31.3139C104.253 31.3365 104.151 31.3611 104.06 31.3864V35.2164H102.605Z" fill="white"/>
<mask id="mask8_28_2224" style="mask-type:alpha" maskUnits="userSpaceOnUse" x="102" y="28" width="6" height="8">
<path d="M102.606 28.919L104.061 28.6683V30.1987C104.158 30.1669 104.283 30.1363 104.437 30.1074C104.589 30.0789 104.738 30.0639 104.881 30.0639C105.297 30.0639 105.643 30.1203 105.92 30.2314C106.196 30.3432 106.419 30.5015 106.584 30.7061C106.751 30.9096 106.867 31.1533 106.937 31.4332C107.004 31.715 107.038 32.0286 107.038 32.3734V35.2164H105.584V32.5445C105.584 32.085 105.523 31.7595 105.404 31.5668C105.283 31.3772 105.06 31.2811 104.735 31.2811C104.603 31.2811 104.482 31.2924 104.367 31.314C104.254 31.3365 104.152 31.3611 104.061 31.3864V35.2164H102.606V28.919Z" fill="white"/>
</mask>
<g mask="url(#mask8_28_2224)">
<path fill-rule="evenodd" clip-rule="evenodd" d="M-14.3184 49.3707L190.754 49.3707V-216.868L-14.3184 -216.868L-14.3184 49.3707Z" fill="white"/>
<path fill-rule="evenodd" clip-rule="evenodd" d="M100.164 37.4538L109.479 37.4538V26.4309L100.164 26.4309V37.4538Z" fill="white"/>
</g>
<path fill-rule="evenodd" clip-rule="evenodd" d="M58.7393 35.218V30.6518C58.7393 30.6518 59.4705 30.0788 61.07 30.0788C62.5256 30.0788 63.3249 30.7925 63.3249 32.3631V35.218H61.871V32.3631C61.871 31.3627 61.3608 31.2935 60.925 31.2935C60.4891 31.2935 60.1972 31.5061 60.1972 31.5061V35.218H58.7393Z" fill="white"/>
<mask id="mask9_28_2224" style="mask-type:alpha" maskUnits="userSpaceOnUse" x="58" y="30" width="6" height="6">
<path d="M58.7397 30.6518C58.7397 30.6518 59.471 30.0789 61.0705 30.0789C62.5261 30.0789 63.3253 30.7925 63.3253 32.3632V35.2181H61.8715V32.3632C61.8715 31.3627 61.3613 31.2935 60.9254 31.2935C60.4896 31.2935 60.1977 31.5062 60.1977 31.5062V35.2181H58.7397V30.6518Z" fill="white"/>
</mask>
<g mask="url(#mask9_28_2224)">
<path fill-rule="evenodd" clip-rule="evenodd" d="M-14.3188 49.3708L190.754 49.3708V-216.868L-14.3188 -216.868L-14.3188 49.3708Z" fill="white"/>
<path fill-rule="evenodd" clip-rule="evenodd" d="M56.2983 37.4555L65.7665 37.4555V27.8417L56.2983 27.8417V37.4555Z" fill="white"/>
</g>
<path fill-rule="evenodd" clip-rule="evenodd" d="M56 35.218V28.9195L57.4556 28.6682V35.218H56Z" fill="white"/>
<mask id="mask10_28_2224" style="mask-type:alpha" maskUnits="userSpaceOnUse" x="56" y="28" width="2" height="8">
<path d="M56 28.9196L57.4556 28.6682V35.218H56V28.9196Z" fill="white"/>
</mask>
<g mask="url(#mask10_28_2224)">
<path fill-rule="evenodd" clip-rule="evenodd" d="M-14.3188 49.3709L190.754 49.3709V-216.868L-14.3188 -216.868L-14.3188 49.3709Z" fill="white"/>
<path fill-rule="evenodd" clip-rule="evenodd" d="M53.5586 37.4556L59.8969 37.4556V26.4312L53.5586 26.4312V37.4556Z" fill="white"/>
</g>
<path fill-rule="evenodd" clip-rule="evenodd" d="M73.1876 33.0604H69.9137C69.9137 33.0604 69.9868 34.1305 71.4406 34.1305C72.1685 34.1305 72.8963 33.9173 72.8963 33.9173L73.042 35.0605C73.042 35.0605 72.3148 35.3435 71.2968 35.3435C69.8406 35.3435 68.5312 34.6309 68.5312 32.633C68.5312 31.0618 69.5492 30.0642 71.0043 30.0642C73.1876 30.0642 73.3339 32.2023 73.1876 33.0604ZM70.9329 31.0618C69.9868 31.0618 69.9137 32.0605 69.9137 32.0605H71.9496C71.9496 32.0605 71.8783 31.0618 70.9329 31.0618Z" fill="white"/>
<mask id="mask11_28_2224" style="mask-type:alpha" maskUnits="userSpaceOnUse" x="68" y="30" width="6" height="6">
<path d="M68.5312 32.6329C68.5312 31.0617 69.5492 30.0641 71.0042 30.0641C73.1875 30.0641 73.3338 32.2023 73.1875 33.0603H69.9137C69.9137 33.0603 69.9868 34.1304 71.4405 34.1304C72.1684 34.1304 72.8962 33.9172 72.8962 33.9172L73.0419 35.0604C73.0419 35.0604 72.3147 35.3435 71.2967 35.3435C69.8406 35.3435 68.5312 34.6309 68.5312 32.6329ZM70.9328 31.0617C69.9868 31.0617 69.9137 32.0605 69.9137 32.0605H71.9496C71.9496 32.0605 71.8782 31.0617 70.9328 31.0617Z" fill="white"/>
</mask>
<g mask="url(#mask11_28_2224)">
<path fill-rule="evenodd" clip-rule="evenodd" d="M-14.3184 49.3708L190.754 49.3708V-216.868L-14.3184 -216.868L-14.3184 49.3708Z" fill="white"/>
<path fill-rule="evenodd" clip-rule="evenodd" d="M66.0903 37.5808L75.67 37.5808V27.8269L66.0903 27.8269V37.5808Z" fill="white"/>
</g>
<mask id="mask12_28_2224" style="mask-type:alpha" maskUnits="userSpaceOnUse" x="108" y="27" width="11" height="12">
<path d="M108.965 28.6696C108.965 28.3652 113.15 27.7082 115.956 27.7082C117.174 27.7082 118.131 27.8317 118.376 28.1611C119.64 29.6904 110.744 39.2846 110.003 38.9936C109.408 38.8481 114.746 32.7413 113.856 30.2687C113.412 28.9612 108.965 29.1066 108.965 28.6696Z" fill="white"/>
</mask>
<g mask="url(#mask12_28_2224)">
<path fill-rule="evenodd" clip-rule="evenodd" d="M106.524 41.2373H120.941V25.4708L106.524 25.4708V41.2373Z" fill="#ED342B"/>
</g>
<mask id="mask13_28_2224" style="mask-type:alpha" maskUnits="userSpaceOnUse" x="116" y="23" width="5" height="4">
<path d="M116.524 24.8895C116.524 23.8452 117.387 23 118.451 23C119.515 23 120.377 23.8452 120.377 24.8895C120.377 25.9344 119.515 26.7795 118.451 26.7795C117.387 26.7795 116.524 25.9344 116.524 24.8895Z" fill="white"/>
</mask>
<g mask="url(#mask13_28_2224)">
<path fill-rule="evenodd" clip-rule="evenodd" d="M114.083 29.0169L122.818 29.0169V20.7627L114.083 20.7627V29.0169Z" fill="#ED342B"/>
</g>
</svg>
