<svg width="238" height="43" viewBox="0 0 238 43" fill="none" xmlns="http://www.w3.org/2000/svg">
<path d="M208.875 19.2295V20.9485H202.636L202.613 19.7008L205.587 16.5642C206.36 15.7491 206.866 15.0924 206.866 14.3237C206.874 14.1536 206.846 13.9837 206.785 13.8246C206.724 13.6656 206.631 13.5207 206.512 13.3991C206.393 13.2774 206.25 13.1815 206.092 13.1173C205.935 13.053 205.765 13.0219 205.595 13.0258C205.25 13.0281 204.913 13.1256 204.619 13.3076C204.326 13.4896 204.089 13.749 203.934 14.0572L202.574 13.0876C202.878 12.519 203.336 12.0479 203.896 11.7286C204.456 11.4094 205.094 11.2551 205.738 11.2836C207.334 11.2836 208.774 12.342 208.774 14.119C208.774 15.2006 208.427 16.0504 207.191 17.3329L205.39 19.1909V19.2257L208.875 19.2295Z" fill="#EE312A"/>
<path d="M214.503 19.9554C214.499 19.7317 214.562 19.5119 214.683 19.3239C214.805 19.136 214.979 18.9884 215.185 18.9C215.39 18.8115 215.617 18.7862 215.837 18.8272C216.057 18.8682 216.26 18.9737 216.42 19.1303C216.58 19.2868 216.689 19.4874 216.735 19.7064C216.781 19.9255 216.76 20.1532 216.676 20.3605C216.592 20.5678 216.448 20.7453 216.262 20.8706C216.077 20.9959 215.858 21.0632 215.635 21.064C215.488 21.0655 215.342 21.0381 215.205 20.9832C215.069 20.9283 214.944 20.8471 214.839 20.7441C214.734 20.6412 214.65 20.5185 214.593 20.3832C214.535 20.2479 214.504 20.1025 214.503 19.9554Z" fill="#EE312A"/>
<path d="M221.07 16.1736C221.07 13.2533 222.48 11.2871 224.79 11.2871C227.003 11.2871 228.517 13.0833 228.517 16.1736C228.517 19.094 227.111 21.064 224.79 21.064C222.592 21.064 221.07 19.2639 221.07 16.1736ZM226.582 16.1736C226.582 14.2422 225.925 13.0447 224.798 13.0447C223.67 13.0447 223.001 14.1495 223.001 16.1736C223.001 18.1051 223.666 19.3026 224.794 19.3026C225.922 19.3026 226.59 18.1978 226.59 16.1736H226.582Z" fill="#EE312A"/>
<path d="M12.2431 12.8206H9.53906V11.0669H16.9287V12.8206H14.1938V20.9327H12.2431V12.8206Z" fill="#353F50"/>
<path d="M57.3848 11.0669H59.3471V15.347H63.3877V11.0669H65.3577V20.9481H63.3877V17.0852H59.3471V20.9481H57.3848V11.0669Z" fill="#353F50"/>
<path d="M91.521 16.0038C91.521 13.0796 93.5722 10.9512 96.5427 10.9512C99.4437 10.9512 101.564 12.9908 101.564 16.0038C101.564 19.0168 99.4399 21.0642 96.5427 21.0642C93.5722 21.0642 91.521 18.928 91.521 16.0038ZM96.5659 19.2448C98.2694 19.2448 99.5519 17.8657 99.5519 16.0038C99.5519 14.1419 98.2694 12.7783 96.5659 12.7783C94.7851 12.7783 93.5567 14.2114 93.5567 16.0038C93.5567 17.7962 94.7851 19.2448 96.5659 19.2448Z" fill="#353F50"/>
<path d="M166.955 16.0038C166.955 13.0796 169.006 10.9512 171.977 10.9512C174.878 10.9512 176.998 12.9908 176.998 16.0038C176.998 19.0168 174.874 21.0642 171.977 21.0642C169.006 21.0642 166.955 18.928 166.955 16.0038ZM172.011 19.2448C173.715 19.2448 174.997 17.8657 174.997 16.0038C174.997 14.1419 173.715 12.7783 172.011 12.7783C170.231 12.7783 169.002 14.2114 169.002 16.0038C169.002 17.7962 170.231 19.2448 172.011 19.2448Z" fill="#353F50"/>
<path d="M117.931 11.0673L114.277 20.9485H112.562L108.896 11.0673H111.017L113.404 18.1557H113.427L115.841 11.0596L117.931 11.0673Z" fill="#353F50"/>
<path d="M143.017 12.8206H140.293V11.0669H147.702V12.8206H144.971V20.9327H143.021L143.017 12.8206Z" fill="#353F50"/>
<path d="M156.205 11.0669H158.175V20.9481H156.205V11.0669Z" fill="#353F50"/>
<path d="M27.2928 12.8206H31.6772V11.0669H25.3652V12.8206H27.2928Z" fill="#353F50"/>
<path d="M27.2928 19.2025V16.9157H30.808V15.189H27.2928H25.3652V20.9485H31.9707V19.2025H27.2928Z" fill="#353F50"/>
<path d="M80.8479 11.0669V17.7419H80.8209L76.4249 11.0669H74.478V19.5884H76.4249V14.4005H76.452L80.7977 20.9481H82.8025V11.0669H80.8479Z" fill="#353F50"/>
<path d="M192.102 12.5425V17.7419H192.075L187.683 11.0669H185.736V20.9481H187.683V14.4005H187.71L192.056 20.9481H194.061V12.5425H192.102Z" fill="#353F50"/>
<path d="M129.86 11.0669H127.971L124.309 20.9481H126.356L128.905 13.4232H128.921L131.486 20.9481H133.529L129.86 11.0669Z" fill="#353F50"/>
<path d="M47.1443 18.1553C45.8773 19.3759 44.0308 19.5034 42.787 18.2596C41.5431 17.0157 41.6281 15.1693 42.9569 13.8675C44.2857 12.5657 46.1554 12.4846 47.3606 13.6898L48.6469 12.4035C46.5957 10.3561 43.6522 10.2905 41.5161 12.4266C39.3799 14.5628 39.4456 17.5024 41.5161 19.5536C43.5866 21.6048 46.5378 21.6125 48.6006 19.5884L47.1443 18.1553Z" fill="#353F50"/>
<path d="M62.7734 28.2891C63.5104 28.2891 64.0482 28.4336 64.3867 28.7227C64.7279 29.0091 64.8984 29.4206 64.8984 29.957C64.8984 30.1992 64.8581 30.4297 64.7773 30.6484C64.6992 30.8646 64.5716 31.056 64.3945 31.2227C64.2174 31.3867 63.9844 31.5169 63.6953 31.6133C63.4089 31.707 63.0573 31.7539 62.6406 31.7539H61.9453V34H61.2812V28.2891H62.7734ZM62.7109 28.8555H61.9453V31.1836H62.5664C62.931 31.1836 63.2344 31.1445 63.4766 31.0664C63.7214 30.9883 63.9049 30.862 64.0273 30.6875C64.1497 30.5104 64.2109 30.276 64.2109 29.9844C64.2109 29.6042 64.0898 29.3216 63.8477 29.1367C63.6055 28.9492 63.2266 28.8555 62.7109 28.8555ZM69.6875 31.8516C69.6875 32.2031 69.6419 32.5169 69.5508 32.793C69.4596 33.069 69.3281 33.3021 69.1562 33.4922C68.9844 33.6823 68.776 33.8281 68.5312 33.9297C68.2891 34.0286 68.0143 34.0781 67.707 34.0781C67.4206 34.0781 67.1576 34.0286 66.918 33.9297C66.681 33.8281 66.4753 33.6823 66.3008 33.4922C66.1289 33.3021 65.9948 33.069 65.8984 32.793C65.8047 32.5169 65.7578 32.2031 65.7578 31.8516C65.7578 31.3828 65.8372 30.9844 65.9961 30.6562C66.1549 30.3255 66.3815 30.0742 66.6758 29.9023C66.9727 29.7279 67.3255 29.6406 67.7344 29.6406C68.125 29.6406 68.4661 29.7279 68.7578 29.9023C69.0521 30.0768 69.2799 30.3294 69.4414 30.6602C69.6055 30.9883 69.6875 31.3854 69.6875 31.8516ZM66.4297 31.8516C66.4297 32.1953 66.4753 32.4935 66.5664 32.7461C66.6576 32.9987 66.7982 33.194 66.9883 33.332C67.1784 33.4701 67.4232 33.5391 67.7227 33.5391C68.0195 33.5391 68.263 33.4701 68.4531 33.332C68.6458 33.194 68.7878 32.9987 68.8789 32.7461C68.9701 32.4935 69.0156 32.1953 69.0156 31.8516C69.0156 31.5104 68.9701 31.2161 68.8789 30.9688C68.7878 30.7188 68.6471 30.526 68.457 30.3906C68.2669 30.2552 68.0208 30.1875 67.7188 30.1875C67.2734 30.1875 66.9466 30.3346 66.7383 30.6289C66.5326 30.9232 66.4297 31.3307 66.4297 31.8516ZM74.293 33.9922L73.5312 31.5C73.4974 31.3932 73.4648 31.2891 73.4336 31.1875C73.4049 31.0833 73.3776 30.9844 73.3516 30.8906C73.3281 30.7943 73.306 30.7057 73.2852 30.625C73.2669 30.5417 73.2513 30.4701 73.2383 30.4102H73.2109C73.2005 30.4701 73.1862 30.5417 73.168 30.625C73.1497 30.7057 73.1276 30.7943 73.1016 30.8906C73.0781 30.987 73.0521 31.0885 73.0234 31.1953C72.9948 31.2995 72.9622 31.4049 72.9258 31.5117L72.1289 33.9922H71.3984L70.2188 29.7109H70.8906L71.5078 32.0742C71.5495 32.2305 71.5885 32.3854 71.625 32.5391C71.6641 32.6901 71.6966 32.8333 71.7227 32.9688C71.7513 33.1016 71.7721 33.2174 71.7852 33.3164H71.8164C71.832 33.2513 71.849 33.1732 71.8672 33.082C71.888 32.9909 71.9102 32.8945 71.9336 32.793C71.9596 32.6888 71.987 32.5859 72.0156 32.4844C72.0443 32.3802 72.0729 32.2826 72.1016 32.1914L72.8906 29.7109H73.5898L74.3516 32.1875C74.3906 32.3125 74.4284 32.4427 74.4648 32.5781C74.5039 32.7135 74.5391 32.8451 74.5703 32.9727C74.6016 33.0977 74.6237 33.2096 74.6367 33.3086H74.668C74.6784 33.2201 74.6979 33.1107 74.7266 32.9805C74.7552 32.8503 74.7878 32.707 74.8242 32.5508C74.8633 32.3945 74.9036 32.2357 74.9453 32.0742L75.5703 29.7109H76.2305L75.0469 33.9922H74.293ZM78.6602 29.6406C79.0247 29.6406 79.3372 29.7214 79.5977 29.8828C79.8581 30.0443 80.0573 30.2708 80.1953 30.5625C80.3333 30.8516 80.4023 31.1901 80.4023 31.5781V31.9805H77.4453C77.4531 32.4831 77.5781 32.8659 77.8203 33.1289C78.0625 33.3919 78.4036 33.5234 78.8438 33.5234C79.1146 33.5234 79.3542 33.4987 79.5625 33.4492C79.7708 33.3997 79.987 33.3268 80.2109 33.2305V33.8008C79.9948 33.8971 79.7799 33.9674 79.5664 34.0117C79.3555 34.056 79.1055 34.0781 78.8164 34.0781C78.4049 34.0781 78.0456 33.9948 77.7383 33.8281C77.4336 33.6589 77.1966 33.4115 77.0273 33.0859C76.8581 32.7604 76.7734 32.362 76.7734 31.8906C76.7734 31.4297 76.8503 31.0312 77.0039 30.6953C77.1602 30.3568 77.3789 30.0964 77.6602 29.9141C77.944 29.7318 78.2773 29.6406 78.6602 29.6406ZM78.6523 30.1719C78.306 30.1719 78.0299 30.2852 77.8242 30.5117C77.6185 30.7383 77.4961 31.0547 77.457 31.4609H79.7227C79.7201 31.2057 79.6797 30.9818 79.6016 30.7891C79.526 30.5938 79.4102 30.4427 79.2539 30.3359C79.0977 30.2266 78.8971 30.1719 78.6523 30.1719ZM83.4492 29.6406C83.5352 29.6406 83.625 29.6458 83.7188 29.6562C83.8125 29.6641 83.8958 29.6758 83.9688 29.6914L83.8867 30.293C83.8164 30.2747 83.7383 30.2604 83.6523 30.25C83.5664 30.2396 83.4857 30.2344 83.4102 30.2344C83.2383 30.2344 83.0755 30.2695 82.9219 30.3398C82.7708 30.4076 82.638 30.5065 82.5234 30.6367C82.4089 30.7643 82.319 30.9193 82.2539 31.1016C82.1888 31.2812 82.1562 31.4818 82.1562 31.7031V34H81.5039V29.7188H82.043L82.1133 30.5078H82.1406C82.2292 30.349 82.3359 30.2044 82.4609 30.0742C82.5859 29.9414 82.7305 29.8359 82.8945 29.7578C83.0612 29.6797 83.2461 29.6406 83.4492 29.6406ZM86.4258 29.6406C86.7904 29.6406 87.1029 29.7214 87.3633 29.8828C87.6237 30.0443 87.8229 30.2708 87.9609 30.5625C88.099 30.8516 88.168 31.1901 88.168 31.5781V31.9805H85.2109C85.2188 32.4831 85.3438 32.8659 85.5859 33.1289C85.8281 33.3919 86.1693 33.5234 86.6094 33.5234C86.8802 33.5234 87.1198 33.4987 87.3281 33.4492C87.5365 33.3997 87.7526 33.3268 87.9766 33.2305V33.8008C87.7604 33.8971 87.5456 33.9674 87.332 34.0117C87.1211 34.056 86.8711 34.0781 86.582 34.0781C86.1706 34.0781 85.8112 33.9948 85.5039 33.8281C85.1992 33.6589 84.9622 33.4115 84.793 33.0859C84.6237 32.7604 84.5391 32.362 84.5391 31.8906C84.5391 31.4297 84.6159 31.0312 84.7695 30.6953C84.9258 30.3568 85.1445 30.0964 85.4258 29.9141C85.7096 29.7318 86.043 29.6406 86.4258 29.6406ZM86.418 30.1719C86.0716 30.1719 85.7956 30.2852 85.5898 30.5117C85.3841 30.7383 85.2617 31.0547 85.2227 31.4609H87.4883C87.4857 31.2057 87.4453 30.9818 87.3672 30.7891C87.2917 30.5938 87.1758 30.4427 87.0195 30.3359C86.8633 30.2266 86.6628 30.1719 86.418 30.1719ZM90.793 34.0781C90.2513 34.0781 89.8216 33.8932 89.5039 33.5234C89.1888 33.1536 89.0312 32.6042 89.0312 31.875C89.0312 31.138 89.1927 30.582 89.5156 30.207C89.8385 29.8294 90.2682 29.6406 90.8047 29.6406C91.0312 29.6406 91.2292 29.6706 91.3984 29.7305C91.5677 29.7904 91.7135 29.8711 91.8359 29.9727C91.9583 30.0716 92.0612 30.1849 92.1445 30.3125H92.1914C92.181 30.2318 92.1706 30.1211 92.1602 29.9805C92.1497 29.8398 92.1445 29.7253 92.1445 29.6367V27.9219H92.793V34H92.2695L92.1719 33.3906H92.1445C92.0638 33.5182 91.9609 33.6341 91.8359 33.7383C91.7135 33.8424 91.5664 33.9258 91.3945 33.9883C91.2253 34.0482 91.0247 34.0781 90.793 34.0781ZM90.8945 33.5391C91.3529 33.5391 91.6771 33.4089 91.8672 33.1484C92.0573 32.888 92.1523 32.5013 92.1523 31.9883V31.8711C92.1523 31.3268 92.0612 30.9089 91.8789 30.6172C91.6992 30.3255 91.3711 30.1797 90.8945 30.1797C90.4961 30.1797 90.1979 30.3333 90 30.6406C89.8021 30.9453 89.7031 31.362 89.7031 31.8906C89.7031 32.4167 89.8008 32.8229 89.9961 33.1094C90.194 33.3958 90.4935 33.5391 90.8945 33.5391ZM96.8945 27.9219V29.4414C96.8945 29.6159 96.8893 29.7852 96.8789 29.9492C96.8711 30.1133 96.8646 30.2409 96.8594 30.332H96.8945C97.0117 30.1393 97.181 29.9766 97.4023 29.8438C97.6237 29.7109 97.9062 29.6445 98.25 29.6445C98.7865 29.6445 99.2135 29.8307 99.5312 30.2031C99.8516 30.5729 100.012 31.1237 100.012 31.8555C100.012 32.3372 99.9388 32.7435 99.793 33.0742C99.6471 33.4049 99.4414 33.6549 99.1758 33.8242C98.9102 33.9935 98.5964 34.0781 98.2344 34.0781C97.8958 34.0781 97.6172 34.0156 97.3984 33.8906C97.1823 33.763 97.0156 33.6081 96.8984 33.4258H96.8477L96.7148 34H96.2461V27.9219H96.8945ZM98.1445 30.1875C97.8346 30.1875 97.5885 30.2487 97.4062 30.3711C97.224 30.4909 97.0924 30.6732 97.0117 30.918C96.9336 31.1602 96.8945 31.4674 96.8945 31.8398V31.875C96.8945 32.4141 96.9844 32.8268 97.1641 33.1133C97.3438 33.3971 97.6706 33.5391 98.1445 33.5391C98.543 33.5391 98.8411 33.3932 99.0391 33.1016C99.2396 32.8099 99.3398 32.3932 99.3398 31.8516C99.3398 31.2995 99.2409 30.8841 99.043 30.6055C98.8477 30.3268 98.5482 30.1875 98.1445 30.1875ZM100.469 29.7188H101.164L102.109 32.2031C102.164 32.349 102.215 32.4896 102.262 32.625C102.309 32.7578 102.35 32.8854 102.387 33.0078C102.423 33.1302 102.452 33.2487 102.473 33.3633H102.5C102.536 33.2331 102.589 33.0625 102.656 32.8516C102.724 32.638 102.797 32.4206 102.875 32.1992L103.77 29.7188H104.469L102.605 34.6289C102.507 34.8919 102.391 35.1211 102.258 35.3164C102.128 35.5117 101.969 35.6615 101.781 35.7656C101.594 35.8724 101.367 35.9258 101.102 35.9258C100.979 35.9258 100.871 35.918 100.777 35.9023C100.684 35.8893 100.603 35.8737 100.535 35.8555V35.3359C100.592 35.349 100.661 35.3607 100.742 35.3711C100.826 35.3815 100.911 35.3867 101 35.3867C101.161 35.3867 101.301 35.3555 101.418 35.293C101.538 35.2331 101.641 35.1445 101.727 35.0273C101.812 34.9102 101.887 34.7708 101.949 34.6094L102.184 34.0078L100.469 29.7188Z" fill="#9CA3AF"/>
<path fill-rule="evenodd" clip-rule="evenodd" d="M128.663 31.3631L128.882 30.2215C128.882 30.2215 127.197 29.72 125.826 30.65V35.2168H127.282V31.5065C127.862 31.0779 128.663 31.3631 128.663 31.3631Z" fill="#18425D"/>
<mask id="mask0_675_11794" style="mask-type:alpha" maskUnits="userSpaceOnUse" x="125" y="30" width="4" height="6">
<path d="M125.826 30.65C126.486 30.2026 127.218 30.0865 127.801 30.0866C128.429 30.0866 128.882 30.2215 128.882 30.2215L128.664 31.3631C128.664 31.3631 127.863 31.078 127.282 31.5065V35.2168H125.826V30.65Z" fill="white"/>
</mask>
<g mask="url(#mask0_675_11794)">
<path fill-rule="evenodd" clip-rule="evenodd" d="M37.1816 49.3711L242.254 49.3711V-216.868L37.1816 -216.868L37.1816 49.3711Z" fill="#18425D"/>
</g>
<mask id="mask1_675_11794" style="mask-type:alpha" maskUnits="userSpaceOnUse" x="125" y="30" width="4" height="6">
<path d="M125.826 30.65C126.486 30.2026 127.218 30.0866 127.801 30.0866C128.429 30.0866 128.882 30.2215 128.882 30.2215L128.664 31.3631C128.664 31.3631 127.863 31.078 127.282 31.5065V35.2168H125.826V30.65Z" fill="white"/>
</mask>
<g mask="url(#mask1_675_11794)">
<path fill-rule="evenodd" clip-rule="evenodd" d="M123.385 37.4541L131.324 37.4541V27.8492L123.385 27.8492V37.4541Z" fill="#18425D"/>
</g>
<path fill-rule="evenodd" clip-rule="evenodd" d="M116.108 28.9191L117.564 28.6678V30.1531H119.004V31.3408H117.564V33.1122C117.564 33.4139 117.617 33.6535 117.726 33.8306C117.834 34.0105 118.05 34.0996 118.374 34.0996C118.532 34.0996 118.691 34.0857 118.859 34.0561C119.022 34.0261 119.175 33.9875 119.311 33.9369L119.517 35.0495C119.341 35.1188 119.147 35.1789 118.932 35.2299C118.716 35.2803 118.452 35.3066 118.14 35.3066C117.742 35.3066 117.414 35.2536 117.153 35.1483C116.894 35.043 116.685 34.8954 116.529 34.7069C116.373 34.5201 116.264 34.2908 116.203 34.0223C116.14 33.7544 116.108 33.4585 116.108 33.132V28.9191Z" fill="#18425D"/>
<mask id="mask2_675_11794" style="mask-type:alpha" maskUnits="userSpaceOnUse" x="116" y="28" width="4" height="8">
<path d="M116.108 28.9191L117.564 28.6678V30.1531H119.004V31.3408H117.564V33.1122C117.564 33.414 117.617 33.6535 117.726 33.8306C117.834 34.0106 118.049 34.0996 118.374 34.0996C118.532 34.0996 118.691 34.0857 118.859 34.0561C119.022 34.0261 119.175 33.9875 119.311 33.937L119.517 35.0495C119.341 35.1189 119.146 35.179 118.932 35.23C118.716 35.2804 118.452 35.3066 118.139 35.3066C117.742 35.3066 117.414 35.2536 117.153 35.1483C116.893 35.043 116.685 34.8954 116.529 34.707C116.373 34.5201 116.264 34.2908 116.203 34.0223C116.14 33.7544 116.108 33.4585 116.108 33.132V28.9191Z" fill="white"/>
</mask>
<g mask="url(#mask2_675_11794)">
<path fill-rule="evenodd" clip-rule="evenodd" d="M37.1812 49.3706L242.254 49.3706V-216.869L37.1812 -216.869L37.1812 49.3706Z" fill="#18425D"/>
<path fill-rule="evenodd" clip-rule="evenodd" d="M113.667 37.5439L121.959 37.5439V26.4304L113.667 26.4304V37.5439Z" fill="#18425D"/>
</g>
<path fill-rule="evenodd" clip-rule="evenodd" d="M131.038 34.1939C131.304 34.1939 131.492 34.167 131.604 34.1166C131.715 34.0656 131.769 33.9657 131.769 33.8197C131.769 33.7042 131.699 33.6038 131.555 33.5185C131.411 33.4315 131.194 33.3349 130.901 33.2247C130.673 33.1415 130.466 33.0557 130.279 32.967C130.095 32.8769 129.937 32.7716 129.807 32.6465C129.677 32.5219 129.576 32.3726 129.504 32.1987C129.431 32.0279 129.397 31.8212 129.397 31.5774C129.397 31.1054 129.576 30.7311 129.934 30.4567C130.292 30.1834 130.782 30.0438 131.408 30.0438C131.721 30.0438 132.021 30.0712 132.307 30.1265C132.593 30.1802 132.822 30.2415 132.99 30.3032L132.737 31.4146C132.567 31.3572 132.383 31.3067 132.184 31.2627C131.986 31.2177 131.763 31.194 131.516 31.194C131.06 31.194 130.832 31.3196 130.832 31.5682C130.832 31.6257 130.842 31.6767 130.862 31.7212C130.881 31.7664 130.92 31.8093 130.977 31.8506C131.038 31.8915 131.116 31.9376 131.218 31.9849C131.319 32.0349 131.448 32.0863 131.604 32.1449C131.922 32.2609 132.186 32.3736 132.394 32.4875C132.603 32.6013 132.766 32.7211 132.888 32.8542C133.008 32.9842 133.094 33.1282 133.141 33.2881C133.19 33.4476 133.215 33.6317 133.215 33.8417C133.215 34.3395 133.024 34.7158 132.644 34.9703C132.263 35.2238 131.723 35.3516 131.027 35.3516C130.571 35.3516 130.192 35.3145 129.89 35.2367C129.586 35.161 129.377 35.0956 129.26 35.045L129.504 33.8863C129.75 33.9818 130.006 34.0559 130.265 34.1119C130.527 34.1666 130.782 34.1939 131.038 34.1939Z" fill="#18425D"/>
<mask id="mask3_675_11794" style="mask-type:alpha" maskUnits="userSpaceOnUse" x="129" y="30" width="5" height="6">
<path d="M129.934 30.4568C130.292 30.1834 130.783 30.0438 131.408 30.0438C131.722 30.0438 132.021 30.0712 132.308 30.1265C132.594 30.1802 132.823 30.2414 132.991 30.3032L132.737 31.4146C132.567 31.3572 132.383 31.3067 132.185 31.2627C131.987 31.2176 131.763 31.1941 131.516 31.1941C131.06 31.1941 130.832 31.3195 130.832 31.5682C130.832 31.6257 130.842 31.6767 130.862 31.7212C130.882 31.7664 130.921 31.8093 130.978 31.8506C131.038 31.8915 131.117 31.9376 131.218 31.9849C131.32 32.0348 131.448 32.0864 131.605 32.1449C131.922 32.2609 132.186 32.3736 132.394 32.4875C132.603 32.6013 132.767 32.7211 132.888 32.8542C133.009 32.9842 133.094 33.1281 133.142 33.2881C133.19 33.4476 133.215 33.6317 133.215 33.8417C133.215 34.3395 133.024 34.7159 132.645 34.9703C132.263 35.2238 131.724 35.3516 131.027 35.3516C130.572 35.3516 130.193 35.3145 129.89 35.2367C129.587 35.161 129.377 35.0956 129.26 35.045L129.504 33.8863C129.751 33.9819 130.007 34.0559 130.265 34.1119C130.527 34.1665 130.783 34.1939 131.038 34.1939C131.304 34.1939 131.493 34.1671 131.605 34.1166C131.716 34.0656 131.77 33.9657 131.77 33.8197C131.77 33.7042 131.699 33.6038 131.555 33.5185C131.411 33.4315 131.195 33.3349 130.901 33.2247C130.674 33.1415 130.467 33.0557 130.28 32.967C130.096 32.8769 129.938 32.7716 129.807 32.6465C129.677 32.5219 129.577 32.3726 129.504 32.1987C129.432 32.0278 129.397 31.8212 129.397 31.5774C129.397 31.1054 129.577 30.7312 129.934 30.4568Z" fill="white"/>
</mask>
<g mask="url(#mask3_675_11794)">
<path fill-rule="evenodd" clip-rule="evenodd" d="M37.1812 49.3706L242.254 49.3706V-216.869L37.1812 -216.869L37.1812 49.3706Z" fill="#18425D"/>
<path fill-rule="evenodd" clip-rule="evenodd" d="M126.819 37.5889L135.657 37.5889V27.8065L126.819 27.8065V37.5889Z" fill="#18425D"/>
</g>
<path fill-rule="evenodd" clip-rule="evenodd" d="M137.701 32.3246C137.57 32.81 137.433 33.2933 137.286 33.7712C137.14 34.2507 136.984 34.7329 136.823 35.2183H135.69C135.573 34.9498 135.445 34.6309 135.308 34.2609C135.169 33.8893 135.029 33.4861 134.88 33.0474C134.734 32.6102 134.584 32.1474 134.431 31.6577C134.277 31.1702 134.128 30.6773 133.985 30.1784H135.519C135.57 30.4077 135.628 30.6596 135.691 30.9307C135.753 31.2023 135.818 31.4821 135.887 31.77C135.955 32.0567 136.028 32.345 136.103 32.636C136.179 32.9271 136.256 33.2057 136.334 33.4738C136.419 33.1929 136.502 32.9062 136.584 32.6124C136.664 32.3182 136.743 32.0293 136.818 31.7453C136.892 31.4618 136.966 31.1863 137.032 30.9211C137.1 30.6563 137.16 30.4077 137.214 30.1784H138.267C138.321 30.4077 138.378 30.6563 138.444 30.9211C138.508 31.1863 138.577 31.4618 138.649 31.7453C138.719 32.0293 138.796 32.3182 138.873 32.6124C138.952 32.9062 139.033 33.1929 139.116 33.4738C139.195 33.2057 139.274 32.9271 139.352 32.636C139.431 32.345 139.506 32.0567 139.574 31.77C139.642 31.4821 139.707 31.2023 139.77 30.9307C139.833 30.6596 139.89 30.4077 139.942 30.1784H141.456C141.312 30.6773 141.164 31.1702 141.01 31.6577C140.855 32.1474 140.707 32.6102 140.559 33.0474C140.413 33.4861 140.269 33.8893 140.129 34.2609C139.988 34.6309 139.859 34.9498 139.743 35.2183H138.61C138.446 34.7329 138.287 34.2507 138.13 33.7712C137.974 33.2933 137.832 32.81 137.701 32.3246Z" fill="#18425D"/>
<mask id="mask4_675_11794" style="mask-type:alpha" maskUnits="userSpaceOnUse" x="133" y="30" width="9" height="6">
<path d="M139.942 30.1784H141.456C141.312 30.6773 141.164 31.1702 141.01 31.6576C140.855 32.1474 140.707 32.6103 140.559 33.0474C140.413 33.4861 140.269 33.8893 140.129 34.2609C139.988 34.6309 139.859 34.9497 139.743 35.2183H138.609C138.446 34.7329 138.287 34.2506 138.13 33.7711C137.974 33.2933 137.832 32.81 137.701 32.3246C137.57 32.81 137.433 33.2933 137.286 33.7711C137.14 34.2506 136.984 34.7329 136.823 35.2183H135.69C135.573 34.9497 135.444 34.6309 135.307 34.2609C135.169 33.8893 135.028 33.4861 134.88 33.0474C134.734 32.6103 134.584 32.1474 134.431 31.6576C134.277 31.1702 134.128 30.6773 133.985 30.1784H135.519C135.57 30.4077 135.628 30.6595 135.691 30.9307C135.753 31.2023 135.818 31.4821 135.887 31.7699C135.955 32.0566 136.028 32.345 136.103 32.636C136.179 32.9271 136.256 33.2057 136.334 33.4738C136.419 33.1929 136.502 32.9061 136.583 32.6124C136.664 32.3182 136.743 32.0293 136.818 31.7453C136.892 31.4617 136.965 31.1862 137.032 30.9211C137.1 30.6563 137.16 30.4077 137.214 30.1784H138.267C138.321 30.4077 138.378 30.6563 138.444 30.9211C138.508 31.1862 138.577 31.4617 138.649 31.7453C138.719 32.0293 138.796 32.3182 138.873 32.6124C138.952 32.9061 139.033 33.1929 139.116 33.4738C139.195 33.2057 139.273 32.9271 139.352 32.636C139.431 32.345 139.506 32.0566 139.574 31.7699C139.642 31.4821 139.707 31.2023 139.77 30.9307C139.833 30.6595 139.89 30.4077 139.942 30.1784Z" fill="white"/>
</mask>
<g mask="url(#mask4_675_11794)">
<path fill-rule="evenodd" clip-rule="evenodd" d="M37.1816 49.3706L242.254 49.3706V-216.869L37.1816 -216.869L37.1816 49.3706Z" fill="#18425D"/>
<path fill-rule="evenodd" clip-rule="evenodd" d="M131.544 37.4556L143.897 37.4556V27.9411L131.544 27.9411V37.4556Z" fill="#18425D"/>
</g>
<path fill-rule="evenodd" clip-rule="evenodd" d="M142.485 35.2163H143.938V30.1775H142.485V35.2163Z" fill="#18425D"/>
<mask id="mask5_675_11794" style="mask-type:alpha" maskUnits="userSpaceOnUse" x="142" y="30" width="2" height="6">
<path d="M142.485 35.2163V30.1775H143.938V35.2163H142.485Z" fill="white"/>
</mask>
<g mask="url(#mask5_675_11794)">
<path fill-rule="evenodd" clip-rule="evenodd" d="M37.1816 49.3706L242.254 49.3706V-216.869L37.1816 -216.869L37.1816 49.3706Z" fill="#18425D"/>
<path fill-rule="evenodd" clip-rule="evenodd" d="M140.043 37.4536L146.379 37.4536V27.9401L140.043 27.9401V37.4536Z" fill="#18425D"/>
</g>
<path fill-rule="evenodd" clip-rule="evenodd" d="M145.094 28.9207L146.548 28.6679V30.1799H147.987V31.3655H146.548V33.1385C146.548 33.4386 146.602 33.6804 146.709 33.857C146.816 34.0358 147.033 34.1255 147.358 34.1255C147.515 34.1255 147.677 34.1126 147.842 34.083C148.008 34.054 148.159 34.0127 148.297 33.9628L148.501 35.0743C148.325 35.1451 148.129 35.2053 147.915 35.2568C147.699 35.3072 147.438 35.333 147.124 35.333C146.727 35.333 146.398 35.2805 146.138 35.1741C145.877 35.0705 145.669 34.9239 145.513 34.7338C145.358 34.5469 145.249 34.3166 145.186 34.0497C145.123 33.7807 145.094 33.4833 145.094 33.1583V28.9207Z" fill="#18425D"/>
<mask id="mask6_675_11794" style="mask-type:alpha" maskUnits="userSpaceOnUse" x="145" y="28" width="4" height="8">
<path d="M145.093 28.9212L146.548 28.6683V30.1804H147.987V31.366H146.548V33.139C146.548 33.4391 146.601 33.6808 146.709 33.8575C146.816 34.0363 147.033 34.1259 147.357 34.1259C147.515 34.1259 147.676 34.113 147.841 34.0835C148.008 34.0544 148.159 34.0132 148.296 33.9633L148.5 35.0747C148.324 35.1455 148.128 35.2058 147.915 35.2573C147.699 35.3077 147.438 35.3335 147.124 35.3335C146.726 35.3335 146.398 35.281 146.138 35.1746C145.877 35.0709 145.668 34.9244 145.513 34.7343C145.357 34.5474 145.248 34.3171 145.186 34.0502C145.123 33.7812 145.093 33.4837 145.093 33.1589V28.9212Z" fill="white"/>
</mask>
<g mask="url(#mask6_675_11794)">
<path fill-rule="evenodd" clip-rule="evenodd" d="M37.1807 49.3711L242.253 49.3711V-216.868L37.1807 -216.868L37.1807 49.3711Z" fill="#18425D"/>
<path fill-rule="evenodd" clip-rule="evenodd" d="M142.652 37.5708L150.942 37.5708V26.4309L142.652 26.4309V37.5708Z" fill="#18425D"/>
</g>
<path fill-rule="evenodd" clip-rule="evenodd" d="M149.016 32.6995C149.016 32.3348 149.076 31.9912 149.196 31.6691C149.317 31.3458 149.491 31.0656 149.718 30.8255C149.947 30.5855 150.223 30.3964 150.549 30.2553C150.874 30.1162 151.245 30.0442 151.661 30.0442C151.934 30.0442 152.185 30.0695 152.414 30.1167C152.642 30.1656 152.864 30.2338 153.078 30.3224L152.776 31.4624C152.638 31.4118 152.489 31.3678 152.325 31.3281C152.163 31.2905 151.979 31.2707 151.778 31.2707C151.349 31.2707 151.028 31.4022 150.818 31.6642C150.604 31.9268 150.5 32.271 150.5 32.6995C150.5 33.1521 150.599 33.5037 150.799 33.753C150.995 34.0016 151.343 34.1267 151.837 34.1267C152.013 34.1267 152.201 34.11 152.404 34.0783C152.606 34.0461 152.791 33.9956 152.962 33.9248L153.165 35.0943C152.996 35.1646 152.785 35.2237 152.531 35.2757C152.276 35.3263 151.997 35.3525 151.692 35.3525C151.223 35.3525 150.818 35.2827 150.481 35.1458C150.143 35.0089 149.863 34.822 149.646 34.5857C149.426 34.349 149.268 34.0698 149.167 33.7476C149.066 33.4249 149.016 33.0749 149.016 32.6995Z" fill="#18425D"/>
<mask id="mask7_675_11794" style="mask-type:alpha" maskUnits="userSpaceOnUse" x="149" y="30" width="5" height="6">
<path d="M150.549 30.2553C150.874 30.1162 151.245 30.0442 151.661 30.0442C151.934 30.0442 152.185 30.0694 152.414 30.1166C152.642 30.1656 152.864 30.2337 153.078 30.3224L152.776 31.4623C152.638 31.4118 152.489 31.3678 152.325 31.3281C152.163 31.2904 151.979 31.2706 151.778 31.2706C151.349 31.2706 151.028 31.4022 150.818 31.6642C150.604 31.9267 150.5 32.2709 150.5 32.6995C150.5 33.1521 150.599 33.5037 150.799 33.753C150.995 34.0016 151.343 34.1267 151.837 34.1267C152.013 34.1267 152.201 34.11 152.404 34.0783C152.606 34.0461 152.791 33.9956 152.962 33.9247L153.165 35.0943C152.996 35.1646 152.785 35.2236 152.531 35.2757C152.276 35.3262 151.997 35.3525 151.692 35.3525C151.223 35.3525 150.818 35.2827 150.481 35.1457C150.143 35.0088 149.863 34.822 149.646 34.5858C149.426 34.349 149.268 34.0698 149.167 33.7476C149.066 33.4249 149.016 33.0748 149.016 32.6995C149.016 32.3348 149.076 31.9912 149.196 31.6691C149.317 31.3458 149.491 31.0655 149.718 30.8254C149.947 30.5854 150.223 30.3964 150.549 30.2553Z" fill="white"/>
</mask>
<g mask="url(#mask7_675_11794)">
<path fill-rule="evenodd" clip-rule="evenodd" d="M37.1816 49.3706L242.254 49.3706V-216.869L37.1816 -216.869L37.1816 49.3706Z" fill="#18425D"/>
<path fill-rule="evenodd" clip-rule="evenodd" d="M146.574 37.5898L155.607 37.5898V27.8068L146.574 27.8068V37.5898Z" fill="#18425D"/>
</g>
<path fill-rule="evenodd" clip-rule="evenodd" d="M154.105 35.2163V28.9189L155.56 28.6682V30.1985C155.658 30.1668 155.782 30.1362 155.937 30.1073C156.089 30.0788 156.238 30.0637 156.381 30.0637C156.797 30.0637 157.142 30.1201 157.42 30.2313C157.696 30.343 157.919 30.5014 158.084 30.7059C158.251 30.9094 158.367 31.1532 158.437 31.433C158.504 31.7148 158.538 32.0285 158.538 32.3732V35.2163H157.083V32.5444C157.083 32.0848 157.023 31.7594 156.903 31.5666C156.783 31.377 156.559 31.281 156.234 31.281C156.102 31.281 155.982 31.2923 155.867 31.3138C155.753 31.3363 155.651 31.361 155.56 31.3863V35.2163H154.105Z" fill="#18425D"/>
<mask id="mask8_675_11794" style="mask-type:alpha" maskUnits="userSpaceOnUse" x="154" y="28" width="5" height="8">
<path d="M154.106 28.9189L155.561 28.6682V30.1986C155.658 30.1668 155.783 30.1362 155.937 30.1073C156.089 30.0788 156.238 30.0638 156.381 30.0638C156.797 30.0638 157.143 30.1202 157.42 30.2313C157.696 30.3431 157.919 30.5014 158.084 30.706C158.251 30.9094 158.367 31.1532 158.437 31.4331C158.504 31.7149 158.538 32.0285 158.538 32.3733V35.2163H157.084V32.5444C157.084 32.0848 157.023 31.7594 156.904 31.5666C156.783 31.3771 156.56 31.281 156.235 31.281C156.103 31.281 155.982 31.2923 155.867 31.3138C155.754 31.3363 155.652 31.361 155.561 31.3863V35.2163H154.106V28.9189Z" fill="white"/>
</mask>
<g mask="url(#mask8_675_11794)">
<path fill-rule="evenodd" clip-rule="evenodd" d="M37.1816 49.3706L242.254 49.3706V-216.869L37.1816 -216.869L37.1816 49.3706Z" fill="#18425D"/>
<path fill-rule="evenodd" clip-rule="evenodd" d="M151.664 37.4536L160.979 37.4536V26.4307L151.664 26.4307V37.4536Z" fill="#18425D"/>
</g>
<path fill-rule="evenodd" clip-rule="evenodd" d="M110.239 35.2178V30.6515C110.239 30.6515 110.971 30.0786 112.57 30.0786C114.026 30.0786 114.825 30.7922 114.825 32.3628V35.2178H113.371V32.3628C113.371 31.3625 112.861 31.2932 112.425 31.2932C111.989 31.2932 111.697 31.5058 111.697 31.5058V35.2178H110.239Z" fill="#18425D"/>
<mask id="mask9_675_11794" style="mask-type:alpha" maskUnits="userSpaceOnUse" x="110" y="30" width="5" height="6">
<path d="M110.24 30.6515C110.24 30.6515 110.971 30.0786 112.571 30.0786C114.026 30.0786 114.825 30.7921 114.825 32.3629V35.2178H113.372V32.3629C113.372 31.3624 112.861 31.2932 112.425 31.2932C111.99 31.2932 111.698 31.5059 111.698 31.5059V35.2178H110.24V30.6515Z" fill="white"/>
</mask>
<g mask="url(#mask9_675_11794)">
<path fill-rule="evenodd" clip-rule="evenodd" d="M37.1812 49.3706L242.254 49.3706V-216.869L37.1812 -216.869L37.1812 49.3706Z" fill="#18425D"/>
<path fill-rule="evenodd" clip-rule="evenodd" d="M107.798 37.4551L117.266 37.4551V27.8413L107.798 27.8413V37.4551Z" fill="#18425D"/>
</g>
<path fill-rule="evenodd" clip-rule="evenodd" d="M107.5 35.2178V28.9193L108.956 28.6679V35.2178H107.5Z" fill="#18425D"/>
<mask id="mask10_675_11794" style="mask-type:alpha" maskUnits="userSpaceOnUse" x="107" y="28" width="2" height="8">
<path d="M107.5 28.9193L108.956 28.6679V35.2178H107.5V28.9193Z" fill="white"/>
</mask>
<g mask="url(#mask10_675_11794)">
<path fill-rule="evenodd" clip-rule="evenodd" d="M37.1812 49.3706L242.254 49.3706V-216.869L37.1812 -216.869L37.1812 49.3706Z" fill="#18425D"/>
<path fill-rule="evenodd" clip-rule="evenodd" d="M105.059 37.4551L111.397 37.4551V26.4306L105.059 26.4306V37.4551Z" fill="#18425D"/>
</g>
<path fill-rule="evenodd" clip-rule="evenodd" d="M124.688 33.0602H121.414C121.414 33.0602 121.487 34.1303 122.941 34.1303C123.669 34.1303 124.396 33.9171 124.396 33.9171L124.542 35.0602C124.542 35.0602 123.815 35.3433 122.797 35.3433C121.341 35.3433 120.031 34.6307 120.031 32.6328C120.031 31.0616 121.049 30.0639 122.504 30.0639C124.688 30.0639 124.834 32.202 124.688 33.0602ZM122.433 31.0616C121.487 31.0616 121.414 32.0603 121.414 32.0603H123.45C123.45 32.0603 123.378 31.0616 122.433 31.0616Z" fill="#18425D"/>
<mask id="mask11_675_11794" style="mask-type:alpha" maskUnits="userSpaceOnUse" x="120" y="30" width="5" height="6">
<path d="M120.031 32.6327C120.031 31.0615 121.049 30.0639 122.504 30.0639C124.688 30.0639 124.834 32.202 124.688 33.0601H121.414C121.414 33.0601 121.487 34.1302 122.941 34.1302C123.668 34.1302 124.396 33.917 124.396 33.917L124.542 35.0602C124.542 35.0602 123.815 35.3433 122.797 35.3433C121.341 35.3433 120.031 34.6307 120.031 32.6327ZM122.433 31.0615C121.487 31.0615 121.414 32.0603 121.414 32.0603H123.45C123.45 32.0603 123.378 31.0615 122.433 31.0615Z" fill="white"/>
</mask>
<g mask="url(#mask11_675_11794)">
<path fill-rule="evenodd" clip-rule="evenodd" d="M37.1816 49.3706L242.254 49.3706V-216.869L37.1816 -216.869L37.1816 49.3706Z" fill="#18425D"/>
<path fill-rule="evenodd" clip-rule="evenodd" d="M117.59 37.5806L127.17 37.5806V27.8266L117.59 27.8266V37.5806Z" fill="#18425D"/>
</g>
<mask id="mask12_675_11794" style="mask-type:alpha" maskUnits="userSpaceOnUse" x="160" y="27" width="10" height="12">
<path d="M160.465 28.6695C160.465 28.3651 164.65 27.7081 167.456 27.7081C168.674 27.7081 169.631 27.8316 169.876 28.161C171.14 29.6903 162.244 39.2845 161.503 38.9935C160.908 38.848 166.246 32.7412 165.356 30.2686C164.912 28.9611 160.465 29.1065 160.465 28.6695Z" fill="white"/>
</mask>
<g mask="url(#mask12_675_11794)">
<path fill-rule="evenodd" clip-rule="evenodd" d="M158.024 41.2373H172.441V25.4707L158.024 25.4707V41.2373Z" fill="#ED342B"/>
</g>
<mask id="mask13_675_11794" style="mask-type:alpha" maskUnits="userSpaceOnUse" x="168" y="23" width="4" height="4">
<path d="M168.024 24.8893C168.024 23.8449 168.887 22.9998 169.951 22.9998C171.015 22.9998 171.877 23.8449 171.877 24.8893C171.877 25.9342 171.015 26.7793 169.951 26.7793C168.887 26.7793 168.024 25.9342 168.024 24.8893Z" fill="white"/>
</mask>
<g mask="url(#mask13_675_11794)">
<path fill-rule="evenodd" clip-rule="evenodd" d="M165.583 29.0166L174.318 29.0166V20.7623L165.583 20.7623V29.0166Z" fill="#ED342B"/>
</g>
</svg>
