<svg width="20" height="25" viewBox="0 0 20 25" fill="none" xmlns="http://www.w3.org/2000/svg">
<path d="M19.9279 9.27299V22.2188C19.9279 23.2896 19.0546 24.1571 17.9773 24.1571H1.95053C1.02984 24.1571 0.258296 23.5233 0.0533356 22.6708L0.0455235 21.5627L0 14.9632V1.93909C0 0.868309 0.873247 0.000732422 1.95053 0.000732422H10.595C11.3719 0.000732422 13.8879 2.132 16.112 4.37658C18.1413 6.42529 19.9279 8.56826 19.9279 9.27299Z" fill="#DDEAFB"/>
<path d="M19.9275 9.27232V14.0146C19.9275 14.0093 19.927 14.0039 19.927 13.9981C19.7802 8.17924 15.0094 7.91 13.4492 6.35999L16.1116 4.37598C18.1409 6.42462 19.9275 8.56759 19.9275 9.27232Z" fill="#CBE2FF"/>
<path d="M10.5941 0H5.8208C5.8262 0 5.8316 0.000494171 5.83742 0.000494171C11.6943 0.146337 11.9654 4.88619 13.5255 6.4362L15.5225 3.79113C13.4604 1.77502 11.3035 0 10.5941 0Z" fill="#CBE2FF"/>
<path d="M19.9279 9.27254V10.0924C19.9279 8.3663 18.519 6.96658 16.7816 6.96658H14.8667C13.7895 6.96658 12.9158 6.09858 12.9158 5.02836V3.12584C12.9158 1.39972 11.5069 0 9.76953 0H10.5948C12.0807 0 13.5063 0.586546 14.5569 1.63045L18.2868 5.33613C19.3375 6.37996 19.9279 7.79627 19.9279 9.27254Z" fill="#BED8FB"/>
<path d="M17.6725 12.3672H2.25426C1.95122 12.3672 1.70557 12.1232 1.70557 11.8221C1.70557 11.521 1.95122 11.277 2.25426 11.277H17.6725C17.9756 11.277 18.2212 11.521 18.2212 11.8221C18.2212 12.1231 17.9755 12.3672 17.6725 12.3672Z" fill="#617881"/>
<path d="M17.6725 14.6082H2.25426C1.95122 14.6082 1.70557 14.3641 1.70557 14.0631C1.70557 13.762 1.95122 13.5179 2.25426 13.5179H17.6725C17.9756 13.5179 18.2212 13.762 18.2212 14.0631C18.2212 14.3641 17.9755 14.6082 17.6725 14.6082Z" fill="#617881"/>
<path d="M17.6725 16.8492H2.25426C1.95122 16.8492 1.70557 16.6051 1.70557 16.304C1.70557 16.003 1.95122 15.7589 2.25426 15.7589H17.6725C17.9756 15.7589 18.2212 16.003 18.2212 16.304C18.2212 16.6051 17.9755 16.8492 17.6725 16.8492Z" fill="#617881"/>
<path d="M7.91766 19.0901H2.25377C1.95073 19.0901 1.70508 18.8461 1.70508 18.545C1.70508 18.2439 1.95073 17.9999 2.25377 17.9999H7.91766C8.22077 17.9999 8.46635 18.2439 8.46635 18.545C8.46642 18.8461 8.22077 19.0901 7.91766 19.0901Z" fill="#617881"/>
<path d="M7.91815 6.1508H2.25426C1.95122 6.1508 1.70557 5.90674 1.70557 5.60568C1.70557 5.30461 1.95122 5.06055 2.25426 5.06055H7.91815C8.22126 5.06055 8.46684 5.30461 8.46684 5.60568C8.46684 5.90674 8.22126 6.1508 7.91815 6.1508Z" fill="#617881"/>
</svg>
