<svg width="38" height="36" viewBox="0 0 38 36" fill="none" xmlns="http://www.w3.org/2000/svg">
<path d="M32.4521 11.4488C32.32 5.10399 27.1024 0.000976562 20.6846 0.000976562C15.7303 0.000976562 11.4915 3.04215 9.75479 7.34772C9.47831 7.31936 9.19786 7.30454 8.91386 7.30454C4.44308 7.30454 0.818848 10.9052 0.818848 15.3471C0.818848 19.7887 4.44308 23.3895 8.91386 23.3895H20.6846H31.0942C34.4556 23.3895 37.1805 20.6823 37.1805 17.3427C37.1805 14.4671 35.1595 12.0621 32.4521 11.4488Z" fill="#2F80ED"/>
<path d="M27.5424 2.19039C26.5681 1.93025 25.5435 1.7916 24.4869 1.7916C19.5333 1.7916 15.2943 4.83285 13.5573 9.13855C13.2807 9.11012 13.0005 9.09537 12.7169 9.09537C8.24585 9.09537 4.62205 12.6968 4.62205 17.1377C4.62205 19.5893 5.72554 21.7842 7.46706 23.26C3.68673 22.583 0.818848 19.2974 0.818848 15.3461C0.818848 10.9041 4.44372 7.30384 8.91364 7.30384C9.19836 7.30384 9.47853 7.31859 9.75529 7.34703C11.4911 3.04132 15.7301 0 20.6849 0C23.244 0 25.6122 0.811201 27.5424 2.19039Z" fill="#DDEAFB"/>
<path d="M34.8737 21.1167V34.0625C34.8737 35.1333 34.0004 36.0009 32.9231 36.0009H16.8963C15.9756 36.0009 15.2041 35.3671 14.9991 34.5146L14.9913 33.4064L14.9458 26.8069V13.7828C14.9458 12.7121 15.819 11.8445 16.8963 11.8445H25.5408C26.3177 11.8445 28.8337 13.9757 31.0578 16.2203C33.0871 18.269 34.8737 20.412 34.8737 21.1167Z" fill="#DDEAFB"/>
<path d="M34.8733 21.1161V25.8584C34.8733 25.853 34.8728 25.8477 34.8728 25.8419C34.726 20.023 29.9552 19.7537 28.395 18.2037L31.0574 16.2197C33.0867 18.2684 34.8733 20.4113 34.8733 21.1161Z" fill="#CBE2FF"/>
<path d="M25.5399 11.8438H20.7666C20.772 11.8438 20.7774 11.8442 20.7832 11.8442C26.6401 11.9901 26.9112 16.7299 28.4713 18.2799L30.4683 15.6349C28.4062 13.6188 26.2493 11.8438 25.5399 11.8438Z" fill="#CBE2FF"/>
<path d="M34.8737 21.1163V21.9362C34.8737 20.2101 33.4648 18.8103 31.7274 18.8103H29.8125C28.7353 18.8103 27.8616 17.9423 27.8616 16.8721V14.9696C27.8616 13.2435 26.4527 11.8438 24.7153 11.8438H25.5406C27.0265 11.8438 28.4521 12.4303 29.5027 13.4742L33.2326 17.1799C34.2833 18.2237 34.8737 19.64 34.8737 21.1163Z" fill="#BED8FB"/>
<path d="M32.6183 24.211H17.2001C16.897 24.211 16.6514 23.9669 16.6514 23.6659C16.6514 23.3648 16.897 23.1207 17.2001 23.1207H32.6183C32.9214 23.1207 33.167 23.3648 33.167 23.6659C33.167 23.9669 32.9213 24.211 32.6183 24.211Z" fill="#617881"/>
<path d="M32.6183 26.452H17.2001C16.897 26.452 16.6514 26.2079 16.6514 25.9068C16.6514 25.6058 16.897 25.3617 17.2001 25.3617H32.6183C32.9214 25.3617 33.167 25.6058 33.167 25.9068C33.167 26.2078 32.9213 26.452 32.6183 26.452Z" fill="#617881"/>
<path d="M32.6183 28.6929H17.2001C16.897 28.6929 16.6514 28.4489 16.6514 28.1478C16.6514 27.8467 16.897 27.6027 17.2001 27.6027H32.6183C32.9214 27.6027 33.167 27.8467 33.167 28.1478C33.167 28.4489 32.9213 28.6929 32.6183 28.6929Z" fill="#617881"/>
<path d="M22.8635 30.9339H17.1996C16.8965 30.9339 16.6509 30.6898 16.6509 30.3888C16.6509 30.0877 16.8965 29.8436 17.1996 29.8436H22.8635C23.1666 29.8436 23.4122 30.0877 23.4122 30.3888C23.4122 30.6898 23.1666 30.9339 22.8635 30.9339Z" fill="#617881"/>
<path d="M22.864 17.9946H17.2001C16.897 17.9946 16.6514 17.7505 16.6514 17.4494C16.6514 17.1484 16.897 16.9043 17.2001 16.9043H22.864C23.1671 16.9043 23.4126 17.1484 23.4126 17.4494C23.4126 17.7505 23.1671 17.9946 22.864 17.9946Z" fill="#617881"/>
</svg>
