<svg width="121" height="111" viewBox="0 0 121 111" fill="none" xmlns="http://www.w3.org/2000/svg">
<path d="M120.564 0H0.154541V111H120.564V0Z" fill="#FFC700"/>
<path d="M60.3594 29.563C31.7408 29.563 8.5542 41.1465 8.5542 55.4999C8.5542 69.803 31.7408 81.4369 60.3594 81.4369C88.9779 81.4369 112.165 69.8534 112.165 55.4999C112.165 41.1968 88.9779 29.563 60.3594 29.563ZM60.3594 77.3575C34.0041 77.3575 12.6785 67.587 12.6785 55.4999C12.6785 43.4128 34.0544 33.6424 60.3594 33.6424C86.7146 33.6424 108.04 43.4128 108.04 55.4999C108.04 67.587 86.7146 77.3575 60.3594 77.3575ZM53.8208 50.9673V46.8879H68.4068V50.9673H63.1257V64.1624H59.102V50.9673H53.8208ZM86.0608 46.8375V64.112H81.9868L74.5932 53.8379V64.112H70.5192V46.8375H74.5932L81.9868 57.1115V46.8375H86.0608ZM34.5071 64.1624V46.8879H38.5811L43.1077 53.8883L47.6344 46.8879H51.7084V64.1624H47.6344V54.3919L44.516 59.1764H41.6492L38.5308 54.3919V64.1624H34.5071Z" fill="black"/>
</svg>
