<svg width="121" height="111" viewBox="0 0 121 111" fill="none" xmlns="http://www.w3.org/2000/svg">
<path d="M120.845 0H0.0610352V111H120.845V0Z" fill="#EE312A"/>
<path d="M70.9157 12.2729C73.8494 12.3175 76.6604 12.8743 79.2818 14.1996C81.5908 15.3801 83.476 17.0283 84.7588 19.3002C85.5954 20.8037 86.142 22.4408 86.3763 24.1447C86.8559 27.4078 86.3763 30.5706 85.2942 33.6555C84.6584 35.4708 83.7883 37.1636 82.829 38.8341C80.8881 42.2308 78.4117 45.182 75.5115 47.788C71.7969 51.1402 67.7254 54.0803 63.375 56.5415C61.6907 57.4882 59.9393 58.29 58.0542 58.78C56.9052 59.0919 55.7117 59.2366 54.5181 59.2255C52.9453 59.1921 51.7182 58.4793 50.7589 57.2766C49.8777 56.1963 49.4204 54.8265 49.4761 53.4344C49.4873 53.0446 49.5431 52.6659 49.6435 52.2873C50.2123 50.2715 50.982 48.3338 52.1421 46.5741C53.0234 45.2266 54.0831 44.035 55.4551 43.1774C56.9833 42.2308 58.6565 41.8188 60.4525 42.2085C61.0102 42.3422 61.5456 42.5872 62.0141 42.9324C63.1966 43.7788 63.1408 45.1041 62.5719 45.9505C62.0811 46.6855 61.5345 47.3871 60.9433 48.0331C59.9282 49.1245 58.8573 50.149 57.8088 51.207C56.8829 52.1425 56.0017 53.1114 55.2989 54.2362C54.9308 54.8153 54.5962 55.4056 54.4958 56.0961C54.3731 56.9647 54.8193 57.555 55.7005 57.6441C56.1579 57.6775 56.6152 57.6329 57.0503 57.5104C58.4 57.1318 59.6605 56.5304 60.8875 55.8845C62.7838 54.8822 64.5463 53.6571 66.253 52.3541C68.3278 50.7838 70.3468 49.1467 72.1985 47.3314C74.3179 45.26 76.2031 43.0104 77.642 40.4155C78.7018 38.5223 79.4714 36.5177 79.8172 34.3683C80.1184 32.475 79.9511 30.6263 79.0699 28.889C78.646 28.0315 77.9878 27.3076 77.1624 26.8175C76.7831 26.5948 76.3704 26.4389 75.9242 26.3609C74.3402 26.0825 72.8009 26.3053 71.295 26.8175C69.7221 27.341 68.2608 28.1094 66.8442 28.9447C63.7654 30.7711 60.6867 32.5864 57.753 34.6355C56.2806 35.6601 54.8528 36.7627 53.4138 37.8318C52.1087 38.8007 50.8147 39.7807 49.398 40.5603C48.2491 41.2174 46.9998 41.6851 45.6946 41.9635C44.0884 42.2865 42.6048 41.9858 41.2327 41.1171C39.8161 40.2151 38.8233 38.9677 38.3882 37.3195C38.1094 36.2838 38.2209 35.2481 38.4552 34.2235C38.801 32.72 39.4703 31.3502 40.2957 30.0583C42.337 26.8621 44.9027 24.1447 47.8921 21.8283C52.3206 18.3982 57.1841 15.7476 62.4492 13.8321C65.1933 12.8298 68.0377 12.3064 70.9157 12.2729Z" fill="white"/>
<path d="M34.5176 85.3522C34.5065 84.3499 34.3838 83.4478 33.8037 82.6683C33.5248 82.2896 33.1344 82.0112 32.6771 81.8553C31.5281 81.4432 30.3457 81.4878 29.1968 81.8442C28.2821 82.1226 27.3897 82.5124 26.4973 82.8576C26.3188 82.9244 26.1627 83.0024 25.9396 83.1026C25.5157 82.0558 25.1029 81.0312 24.6679 79.9732C25.3037 79.6725 25.8949 79.3718 26.5085 79.1045C27.9251 78.5031 29.3864 78.0911 30.9258 77.9908C32.4651 77.9017 33.9933 77.9797 35.3877 78.7259C36.9717 79.5611 38.1206 80.775 38.6003 82.5346C38.6672 82.7685 38.7118 83.0024 38.723 83.2474C38.7788 85.5304 38.868 87.8246 38.8791 90.1076C38.8903 91.6668 38.7788 93.2371 38.7341 94.7962C38.723 95.0078 38.6337 95.2194 38.4887 95.3642C37.3956 96.5669 36.0458 97.4022 34.5288 97.959C32.9002 98.5493 31.16 98.8054 29.431 98.6941C27.8359 98.605 26.4527 97.9479 25.2814 96.8676C24.1102 95.7874 23.2959 94.4732 23.0728 92.8695C22.7604 90.6756 23.3963 88.7601 24.9802 87.2009C25.9953 86.1875 27.2558 85.6752 28.6613 85.4859C30.223 85.2854 31.7958 85.3411 33.3575 85.3411L34.5176 85.3522ZM34.3057 88.9271C34.2164 88.9049 34.116 88.8937 34.0268 88.8937C33.4914 88.8826 32.9559 88.8603 32.4205 88.8714C31.7735 88.8826 31.1377 88.8826 30.4907 88.9494C29.8326 89.0162 29.1856 89.2056 28.6836 89.6399C27.8359 90.3749 27.5793 91.3215 27.7913 92.4018C28.0478 93.7271 28.7952 94.6626 30.1226 95.0523C30.8031 95.2528 31.5281 95.2862 32.2309 95.1414C32.8779 95.0189 33.4914 94.7294 33.9822 94.3062C34.1495 94.1725 34.2611 93.9721 34.2722 93.7605C34.2945 93.2927 34.3503 92.825 34.3614 92.3572C34.3726 91.2881 34.3503 90.219 34.3391 89.1499C34.328 89.0608 34.3168 88.994 34.3057 88.9271Z" fill="white"/>
<path d="M87.9156 88.838C84.1118 88.838 80.3638 88.7601 76.5823 88.8603C76.6046 89.1276 76.6158 89.3726 76.6381 89.6287C76.7385 90.6311 76.9504 91.6111 77.3743 92.5354C77.7089 93.2816 78.2221 93.9387 78.869 94.451C79.8953 95.2305 81.0777 95.3642 82.3047 95.1971C83.3198 95.0635 84.268 94.696 85.2161 94.3173C85.6512 94.1503 86.0862 93.9609 86.5435 93.7716C86.9897 94.696 87.4248 95.6092 87.871 96.5447C87.7929 96.6004 87.7148 96.6672 87.6256 96.7229C85.7739 97.8143 83.7995 98.527 81.6577 98.7052C79.7056 98.8723 77.8428 98.5493 76.1473 97.4802C74.9983 96.7451 74.1952 95.7094 73.5259 94.5512C72.7004 93.1034 72.1984 91.4997 72.0534 89.8404C71.7746 86.8112 72.4104 83.9936 73.9832 81.3876C75.0764 79.5723 76.705 78.5922 78.7575 78.247C80.6315 77.9129 82.5724 78.2359 84.2456 79.1602C85.1827 79.6614 85.8296 80.4632 86.3651 81.3541C87.079 82.5346 87.4471 83.8265 87.6256 85.174C87.7706 86.2543 87.8152 87.3569 87.9044 88.4594C87.9267 88.5485 87.9156 88.671 87.9156 88.838ZM83.2975 85.3857C83.0744 84.3722 82.9294 83.3365 82.2601 82.479C81.9254 82.0558 81.4569 81.7551 80.9327 81.6214C79.5383 81.2539 78.1328 81.8998 77.5305 83.214C77.3185 83.6817 77.1847 84.194 77.0285 84.6952C76.9616 84.9179 76.9169 85.1518 76.8612 85.3745C77.2404 85.4859 82.9182 85.497 83.2975 85.3857Z" fill="white"/>
<path d="M62.929 73.3803L67.469 72.6787V78.2471C68.4729 78.3028 69.4434 78.2471 70.4027 78.3473V81.7774C69.4211 81.7886 68.4729 81.7663 67.469 81.822C67.469 82.0113 67.469 82.1561 67.469 82.3009C67.4578 85.6085 67.4578 88.9161 67.4467 92.2126C67.4467 92.736 67.4913 93.2594 67.5359 93.7717C67.614 94.5736 68.049 95.0747 68.8299 95.2752C69.2538 95.3865 69.6999 95.4422 70.1238 95.5313L70.5589 95.6204V98.5382C70.5143 98.5605 70.4585 98.5828 70.4027 98.5939C69.1087 98.6496 67.8259 98.6162 66.5766 98.2376C65.3607 97.87 64.3456 97.2018 63.654 96.1104C63.2636 95.4868 63.0628 94.7963 62.9736 94.0724C62.9178 93.6158 62.8955 93.1703 62.8955 92.7137C62.8955 86.4326 62.8955 80.1626 62.9067 73.8926L62.929 73.3803Z" fill="white"/>
<path d="M90.4146 73.3916L94.8095 72.6343V73.2357C94.8095 78.9377 94.8095 84.6397 94.8207 90.3306C94.8207 91.3774 94.8319 92.4131 94.843 93.46C94.8542 94.4846 95.2223 95.0191 96.2151 95.3198C96.5497 95.4089 96.8955 95.4869 97.2301 95.5426C97.4421 95.5871 97.654 95.5983 97.9106 95.6317V98.6052C97.8883 98.6275 97.8548 98.6386 97.8325 98.6497C96.5832 98.7054 95.345 98.6831 94.1291 98.3268C93.3929 98.1152 92.7124 97.7588 92.1212 97.2688C91.0169 96.3667 90.5707 95.1639 90.448 93.7941C90.4145 93.3932 90.4146 92.9923 90.4146 92.5913C90.4146 86.3548 90.4145 80.1182 90.4257 73.8816L90.4146 73.3916Z" fill="white"/>
<path d="M54.0941 98.349H49.6545C49.6545 98.1597 49.6433 97.9927 49.6433 97.8256C49.6433 95.1639 49.6322 92.5023 49.6322 89.8406C49.6322 87.7134 49.6099 85.5863 49.6099 83.4592C49.6099 83.0694 49.6433 82.6908 49.6991 82.3121C49.766 81.8778 49.9891 81.5103 50.3126 81.2096C52.0528 79.5168 54.1499 78.5034 56.5259 78.0579C58.0206 77.7795 59.5488 77.7795 61.0435 78.0467C61.1216 78.0579 61.1997 78.0802 61.2778 78.1024C61.3113 78.1136 61.3559 78.1358 61.4228 78.1581C60.9208 79.4388 60.3073 80.6639 59.7273 81.8667C59.0357 81.8667 58.3775 81.8444 57.7306 81.8667C56.6039 81.9001 55.4996 82.1785 54.4845 82.6796C54.1945 82.8244 54.0941 82.9915 54.0941 83.3256C54.1053 88.1701 54.1053 93.0145 54.1053 97.859L54.0941 98.349Z" fill="white"/>
<path d="M46.3754 78.4473C46.42 85.0848 46.3754 91.6889 46.4088 98.3375H42.0696C42.0584 98.1816 42.0361 98.0145 42.0361 97.8475C42.0361 93.6712 42.0361 89.4949 42.0361 85.3186C42.0361 83.4031 42.0473 81.4876 42.0584 79.5721C42.0584 79.4273 42.0584 79.2825 42.0584 79.0932L46.3754 78.4473Z" fill="white"/>
<path d="M44.0215 76.4875C41.9021 76.4875 40.5746 74.3715 41.4559 72.3892C41.9913 71.1641 42.9283 70.7075 44.2669 70.7075C46.0628 70.7187 47.3902 72.5005 46.9664 74.249C46.6206 75.6411 45.5051 76.4875 44.0215 76.4875Z" fill="white"/>
</svg>
