<svg width="113" height="111" viewBox="0 0 113 111" fill="none" xmlns="http://www.w3.org/2000/svg">
<path d="M56.568 110.986C87.216 110.986 112.061 86.1411 112.061 55.4931C112.061 24.8451 87.216 0 56.568 0C25.92 0 1.07495 24.8451 1.07495 55.4931C1.07495 86.1411 25.92 110.986 56.568 110.986Z" fill="#50B651"/>
<path opacity="0.663" fill-rule="evenodd" clip-rule="evenodd" d="M111.882 55.3413C111.882 86.0849 86.9525 111 56.2228 111C25.493 111 0.563965 86.0849 0.563965 55.3413C0.563965 41.7374 0.950676 39.721 6.29558 31.9729C6.29558 31.9729 6.01936 40.7154 12.4277 45.9222C16.4191 49.154 20.5763 46.8199 28.1862 43.3119C36.4314 39.5138 43.1298 37.0692 48.3504 37.7045C56.2228 38.6851 80.4889 53.2559 93.1537 50.3555C103.277 48.0491 102.214 24.1973 102.214 24.1973C113.263 34.9837 111.882 42.276 111.882 55.3413Z" fill="url(#paint0_linear_219_16077)"/>
<path opacity="0.586" fill-rule="evenodd" clip-rule="evenodd" d="M80.1157 96.236C100.252 77.301 103.595 55.6037 90.1564 31.158C90.2255 31.2133 91.0541 28.3406 92.6562 22.5537C99.8104 31.2133 103.608 41.9031 104.064 54.6231C104.05 71.086 96.0676 84.9662 80.1157 96.236Z" fill="url(#paint1_linear_219_16077)"/>
<path opacity="0.744" fill-rule="evenodd" clip-rule="evenodd" d="M70.5726 22.6503C60.8496 17.2778 49.704 6.44989 51.1956 4.18487C52.6872 1.91985 71.9123 2.30656 81.6353 7.67908C91.3584 13.0516 99.6312 29.1968 98.1396 31.4618C96.648 33.7269 80.2819 28.0367 70.5726 22.6503Z" fill="url(#paint2_radial_219_16077)"/>
<path fill-rule="evenodd" clip-rule="evenodd" d="M79.0388 69.166C70.9731 69.166 64.4404 62.44 64.4404 54.1533C64.4404 45.8666 70.9731 39.1406 79.0388 39.1406C87.1045 39.1406 93.6371 45.8666 93.6371 54.1533C93.6371 62.44 87.0907 69.166 79.0388 69.166ZM79.1355 64.4012C84.1627 64.4012 88.2508 59.8159 88.2508 54.1533C88.2508 48.4908 84.1627 43.9055 79.1355 43.9055C74.1082 43.9055 70.0201 48.4908 70.0201 54.1533C70.0201 59.8159 74.1082 64.4012 79.1355 64.4012Z" fill="white"/>
<path fill-rule="evenodd" clip-rule="evenodd" d="M48.9167 27.0562H59.427V69.0005H53.654V31.6553H48.9167V27.0562Z" fill="white"/>
<path fill-rule="evenodd" clip-rule="evenodd" d="M41.0718 39.5687H46.5272V74.5937C46.5272 77.784 43.1711 81.1125 39.8978 82.5351C38.351 83.2118 35.4921 83.6123 31.3349 83.7366V80.2562C35.4092 79.8005 38.1576 78.9027 39.5802 77.5354C40.4088 76.3891 40.9198 75.0633 41.0718 73.6545V63.3791C39.6078 66.4727 37.7709 68.5306 35.5611 69.5388C33.2547 70.7818 28.5727 70.5746 26.653 69.5388C24.7332 68.503 21.9296 65.7684 20.6451 61.6941C20.286 60.5754 19.4021 57.5093 19.4988 54.2637C19.5817 51.17 20.6037 47.9106 21.4462 46.5709C22.9101 44.2783 25.2028 41.4056 28.6832 40.204C30.382 39.6239 33.5447 39.4029 38.1438 39.5687V43.0353C34.7186 42.8005 32.5917 42.9248 31.7354 43.3806C30.4648 44.0711 27.5921 44.9274 26.6391 51.1838C25.6862 57.4403 26.6668 62.5642 29.6776 64.1663C30.7134 64.7187 32.5227 65.3679 34.2076 64.8016C37.4394 63.6967 40.4779 59.7605 40.7127 57.0812C40.9613 54.3742 41.0718 48.5321 41.0718 39.5687Z" fill="white"/>
<path fill-rule="evenodd" clip-rule="evenodd" d="M110.141 66.4866C104.99 91.3052 82.9888 109.964 56.6372 109.964C26.4599 109.964 1.98657 85.4907 1.98657 55.3134C1.98657 36.5579 11.4334 20.0122 25.8108 10.1787C14.1265 19.8741 6.68235 34.5139 6.68235 50.8939C6.68235 80.1044 30.3684 103.79 59.5789 103.79C83.3755 103.79 103.485 88.0872 110.141 66.4866Z" fill="url(#paint3_radial_219_16077)"/>
<defs>
<linearGradient id="paint0_linear_219_16077" x1="54.0823" y1="31.7986" x2="61.2171" y2="96.2316" gradientUnits="userSpaceOnUse">
<stop stop-color="#123214"/>
<stop offset="0.46" stop-color="#3E7C37"/>
<stop offset="0.91" stop-color="#5FBB46"/>
</linearGradient>
<linearGradient id="paint1_linear_219_16077" x1="92.0823" y1="27.6198" x2="92.0823" y2="79.713" gradientUnits="userSpaceOnUse">
<stop stop-color="white" stop-opacity="0"/>
<stop offset="0.64" stop-color="white" stop-opacity="0.43"/>
<stop offset="1" stop-color="white" stop-opacity="0.42"/>
</linearGradient>
<radialGradient id="paint2_radial_219_16077" cx="0" cy="0" r="1" gradientUnits="userSpaceOnUse" gradientTransform="translate(75.8385 18.1911) rotate(26.7606) scale(27.4474 11.4314)">
<stop offset="0.13" stop-color="white"/>
<stop offset="0.29" stop-color="white" stop-opacity="0.69"/>
<stop offset="0.45" stop-color="white" stop-opacity="0.4"/>
<stop offset="0.59" stop-color="white" stop-opacity="0.18"/>
<stop offset="0.69" stop-color="white" stop-opacity="0.05"/>
<stop offset="0.74" stop-color="white" stop-opacity="0"/>
</radialGradient>
<radialGradient id="paint3_radial_219_16077" cx="0" cy="0" r="1" gradientUnits="userSpaceOnUse" gradientTransform="translate(66.0051 42.7226) rotate(39.8393) scale(61.4463 66.9782)">
<stop offset="0.86" stop-opacity="0"/>
<stop offset="0.98" stop-opacity="0.47"/>
<stop offset="1"/>
</radialGradient>
</defs>
</svg>
