<svg width="64" height="111" viewBox="0 0 64 111" fill="none" xmlns="http://www.w3.org/2000/svg">
<path fill-rule="evenodd" clip-rule="evenodd" d="M12.9421 99.8841C14.3758 99.8841 15.4286 100.191 16.0895 100.816C16.7503 101.43 17.0863 102.396 17.0863 103.692V110.682H14.9358V103.987C14.9358 102.51 14.1181 101.782 12.494 101.782C11.7884 101.771 11.1051 101.975 10.5003 102.351C10.6011 102.794 10.6571 103.248 10.6459 103.692V110.682H8.49534V103.987C8.49534 102.51 7.67769 101.782 6.05358 101.782C5.31432 101.782 4.57507 101.919 3.88063 102.18V110.682H1.73008V100.987C2.44693 100.623 3.19738 100.361 3.98143 100.191C4.81029 99.9977 5.66155 99.8955 6.5128 99.8841C7.8569 99.8841 8.85377 100.146 9.51461 100.68C10.5675 100.157 11.7436 99.8841 12.9421 99.8841ZM24.4676 111C22.8211 111 21.589 110.523 20.7602 109.568C19.9313 108.613 19.5169 107.227 19.5169 105.397C19.5169 101.703 21.1634 99.8614 24.4452 99.8614C26.103 99.8614 27.3462 100.339 28.1751 101.282C29.004 102.225 29.4296 103.601 29.4296 105.397C29.4296 107.192 29.004 108.568 28.1415 109.545C27.279 110.511 26.0582 111 24.4676 111ZM24.4452 109.125C26.3382 109.125 27.279 107.886 27.279 105.397C27.279 104.158 27.055 103.237 26.607 102.635C26.159 102.032 25.4421 101.714 24.4564 101.714C23.4596 101.714 22.7427 102.021 22.3171 102.646C21.8915 103.271 21.6675 104.18 21.6675 105.397C21.6675 106.601 21.8915 107.522 22.3395 108.159C22.7763 108.806 23.482 109.125 24.4452 109.125ZM36.6317 99.8954C38.1662 99.8954 39.3311 100.361 40.1151 101.305C40.9104 102.248 41.3024 103.578 41.3136 105.294C41.3136 107.374 40.8432 108.84 39.8911 109.704C38.939 110.568 37.7294 111 36.2621 111C33.3163 111 31.849 110.204 31.849 108.602V95.8833H33.9883V100.543C34.4139 100.339 34.8732 100.18 35.3324 100.066C35.758 99.9636 36.1949 99.8954 36.6317 99.8954ZM36.094 109.091C37.2141 109.091 37.9982 108.761 38.4462 108.102C38.8942 107.442 39.1183 106.533 39.1183 105.385C39.1183 104.203 38.883 103.305 38.4126 102.691C37.9422 102.078 37.2365 101.771 36.3069 101.771C35.9036 101.771 35.5004 101.828 35.1084 101.93C34.7163 102.021 34.3355 102.18 33.9883 102.385V108.068C33.9883 108.738 34.694 109.079 36.094 109.091ZM43.7442 96.4402H46.0403V98.4406H43.7442V96.4402ZM43.8114 100.191H45.9619L45.9843 110.693H43.8114V100.191ZM49.0197 110.682V96.1219H51.1591V110.682H49.0197ZM58.3724 99.8614C59.9741 99.8614 61.1502 100.396 61.8894 101.453C62.6287 102.51 62.9983 103.999 62.9871 105.908H55.7626C55.8298 106.942 56.1322 107.738 56.6587 108.272C57.1851 108.818 57.9356 109.079 58.91 109.079C60.0749 109.079 61.2174 108.784 62.2366 108.215V110.273C61.1726 110.75 59.9517 110.989 58.574 110.989C57.0283 110.989 55.8186 110.511 54.9337 109.545C54.0489 108.579 53.6121 107.215 53.6121 105.453C53.6121 103.646 54.0265 102.26 54.8665 101.305C55.7066 100.35 56.8603 99.8727 58.3724 99.8614ZM58.3164 101.68C57.5883 101.68 57.0283 101.873 56.6139 102.271C56.1994 102.669 55.9418 103.328 55.8074 104.271H60.7918C60.6909 103.373 60.4445 102.714 60.0525 102.305C59.6605 101.884 59.078 101.68 58.3164 101.68ZM37.7294 15.1281C35.3548 14.5371 33.5179 14.2302 32.241 14.2302C22.6755 14.2302 14.9246 22.0727 14.9246 31.7451C14.9246 41.4176 22.6755 49.2601 32.241 49.2601C41.8064 49.2601 49.5574 41.4176 49.5574 31.7451C49.5574 30.3358 49.3894 28.9264 49.0533 27.5511L62.8191 23.789C65.0704 32.4953 63.5807 41.7585 58.7084 49.2715L35.926 92.1666H14.8014L29.8104 64.0927C29.8888 63.9335 29.6536 63.5926 29.452 63.5812C13.4125 62.1036 0.845215 48.4645 0.845215 31.8588C0.845215 14.2643 14.947 0 32.3418 0C35.5228 0 38.6926 0.477371 41.7392 1.44348L37.7294 15.1281Z" fill="#006E53"/>
<path d="M32.1403 41.3836C37.3861 41.3836 41.6386 37.0684 41.6386 31.7453C41.6386 26.4222 37.3861 22.1069 32.1403 22.1069C26.8946 22.1069 22.6421 26.4222 22.6421 31.7453C22.6421 37.0684 26.8946 41.3836 32.1403 41.3836Z" fill="#D6E806"/>
<path d="M48.5386 25.1759C46.892 20.9932 43.7222 17.6289 39.6899 15.7649M54.5758 22.5503C52.2572 16.7537 47.8665 12.0709 42.2773 9.41128M60.4002 20.5727C57.4432 12.9347 51.63 6.79711 44.2151 3.50098" stroke="#D6E806" stroke-width="4" stroke-linecap="round"/>
</svg>
