<svg width="56" height="56" viewBox="0 0 56 56" fill="none" xmlns="http://www.w3.org/2000/svg">
<rect width="56" height="56" rx="12" fill="#00425F"/>
<path opacity="0.4" d="M34.3603 37.3074H21.6403C21.0803 37.3074 20.5737 36.9474 20.387 36.4274L14.8403 20.894C14.4003 19.654 15.8137 18.6007 16.867 19.3607L22.2003 23.174C22.907 23.6807 23.9203 23.374 24.227 22.5607L26.747 15.8407C27.1737 14.6807 28.8137 14.6807 29.2403 15.8407L31.7603 22.5607C32.067 23.3874 33.067 23.6807 33.787 23.174L39.1203 19.3607C40.187 18.6007 41.587 19.6674 41.147 20.894L35.6003 36.4274C35.427 36.9474 34.9203 37.3074 34.3603 37.3074Z" fill="white"/>
<path d="M34.6673 41.334H21.334C20.7873 41.334 20.334 40.8807 20.334 40.334C20.334 39.7873 20.7873 39.334 21.334 39.334H34.6673C35.214 39.334 35.6673 39.7873 35.6673 40.334C35.6673 40.8807 35.214 41.334 34.6673 41.334Z" fill="white"/>
<path d="M31.3327 31.666H24.666C24.1193 31.666 23.666 31.2127 23.666 30.666C23.666 30.1193 24.1193 29.666 24.666 29.666H31.3327C31.8793 29.666 32.3327 30.1193 32.3327 30.666C32.3327 31.2127 31.8793 31.666 31.3327 31.666Z" fill="white"/>
</svg>
