<svg width="56" height="56" viewBox="0 0 56 56" fill="none" xmlns="http://www.w3.org/2000/svg">
<rect width="56" height="56" rx="12" fill="#00425F"/>
<path opacity="0.4" d="M37.3327 23.9993C37.3327 25.9327 36.7593 27.706 35.7727 29.186C34.3327 31.3194 32.0527 32.826 29.3993 33.2127C28.946 33.2927 28.4793 33.3327 27.9993 33.3327C27.5193 33.3327 27.0527 33.2927 26.5993 33.2127C23.946 32.826 21.666 31.3194 20.226 29.186C19.2393 27.706 18.666 25.9327 18.666 23.9993C18.666 18.8393 22.8393 14.666 27.9993 14.666C33.1593 14.666 37.3327 18.8393 37.3327 23.9993Z" fill="white"/>
<path d="M40.3328 36.6259L38.1328 37.1459C37.6395 37.2659 37.2528 37.6392 37.1461 38.1326L36.6795 40.0926C36.4261 41.1592 35.0661 41.4792 34.3595 40.6392L27.9995 33.3326L21.6395 40.6525C20.9328 41.4925 19.5728 41.1725 19.3195 40.1059L18.8528 38.1459C18.7328 37.6525 18.3461 37.2659 17.8661 37.1592L15.6661 36.6392C14.6528 36.3992 14.2928 35.1325 15.0261 34.3992L20.2261 29.1992C21.6661 31.3326 23.9461 32.8392 26.5995 33.2259C27.0528 33.3059 27.5195 33.3459 27.9995 33.3459C28.4795 33.3459 28.9461 33.3059 29.3995 33.2259C32.0528 32.8392 34.3328 31.3326 35.7728 29.1992L40.9728 34.3992C41.7061 35.1192 41.3461 36.3859 40.3328 36.6259Z" fill="white"/>
<path d="M28.7726 19.974L29.5593 21.5473C29.666 21.7606 29.946 21.974 30.1993 22.014L31.626 22.254C32.5326 22.4006 32.746 23.0673 32.0926 23.7206L30.986 24.8273C30.7993 25.014 30.6926 25.374 30.7593 25.6407L31.0793 27.014C31.3326 28.094 30.7593 28.5206 29.7993 27.9473L28.466 27.1606C28.226 27.014 27.826 27.014 27.586 27.1606L26.2526 27.9473C25.2926 28.5073 24.7193 28.094 24.9726 27.014L25.2926 25.6407C25.346 25.3873 25.2526 25.014 25.066 24.8273L23.9593 23.7206C23.306 23.0673 23.5193 22.414 24.426 22.254L25.8526 22.014C26.0926 21.974 26.3726 21.7606 26.4793 21.5473L27.266 19.974C27.6526 19.1207 28.346 19.1207 28.7726 19.974Z" fill="white"/>
</svg>
