<svg width="56" height="56" viewBox="0 0 56 56" fill="none" xmlns="http://www.w3.org/2000/svg">
<rect width="56" height="56" rx="12" fill="#00425F"/>
<path opacity="0.4" d="M39.8791 26.8258C39.8791 33.3458 35.1458 39.4524 28.6792 41.2391C28.2392 41.3591 27.7591 41.3591 27.3191 41.2391C20.8525 39.4524 16.1191 33.3458 16.1191 26.8258V20.9724C16.1191 19.8791 16.9458 18.6391 17.9725 18.2258L25.3991 15.1858C27.0658 14.5058 28.9458 14.5058 30.6125 15.1858L38.0391 18.2258C39.0525 18.6391 39.8925 19.8791 39.8925 20.9724L39.8791 26.8258Z" fill="white"/>
<path d="M31.3327 25.9993C31.3327 24.1593 29.8393 22.666 27.9993 22.666C26.1593 22.666 24.666 24.1593 24.666 25.9993C24.666 27.4927 25.6527 28.7327 26.9993 29.1593V32.666C26.9993 33.2127 27.4527 33.666 27.9993 33.666C28.546 33.666 28.9993 33.2127 28.9993 32.666V29.1593C30.346 28.7327 31.3327 27.4927 31.3327 25.9993Z" fill="white"/>
</svg>
