<svg width="181" height="33" viewBox="0 0 181 33" fill="none" xmlns="http://www.w3.org/2000/svg">
<g clip-path="url(#clip0_2_5277)">
<path d="M65.7499 19.6387C64.9413 19.1684 64.0172 18.9338 63.0822 18.9614C62.1472 18.9891 61.2386 19.2779 60.4592 19.7952C59.6798 20.3125 59.0608 21.0376 58.6722 21.8885C58.2836 22.7394 58.1409 23.682 58.2602 24.6098C58.3796 25.5376 58.7563 26.4134 59.3477 27.1382C59.939 27.863 60.7214 28.4078 61.6064 28.7109C62.4913 29.0141 63.4434 29.0635 64.355 28.8535C65.2666 28.6436 66.1012 28.1827 66.7643 27.523L72.3541 21.9264L73.035 21.2455C73.686 20.7137 74.5035 20.4284 75.344 20.4396C76.1845 20.4508 76.9942 20.7579 77.6307 21.3068L69.086 29.8447C67.9625 30.9651 66.5414 31.7399 64.991 32.0774C63.4406 32.4149 61.826 32.3009 60.3384 31.7489C58.8508 31.197 57.5526 30.2302 56.5976 28.963C55.6426 27.6959 55.0709 26.1816 54.9501 24.5995C54.8293 23.0174 55.1646 21.4339 55.9162 20.0365C56.6677 18.6391 57.8041 17.4864 59.1907 16.715C60.5773 15.9436 62.1559 15.5859 63.7395 15.6841C65.3232 15.7824 66.8455 16.3325 68.126 17.2694L65.7499 19.6387Z" fill="#E8F8FF"/>
<path d="M72.6127 27.4889C73.4208 27.9611 74.345 28.1976 75.2806 28.1715C76.2162 28.1454 77.1258 27.8578 77.9063 27.3413C78.6868 26.8247 79.3071 26.0999 79.6968 25.249C80.0866 24.398 80.2302 23.4549 80.1114 22.5265C79.9927 21.5982 79.6163 20.7216 79.0249 19.9961C78.4335 19.2707 77.6508 18.7253 76.7654 18.4219C75.88 18.1185 74.9273 18.0691 74.0152 18.2794C73.1032 18.4896 72.2683 18.9511 71.605 19.6115L66.0425 25.2081L65.3616 25.8889C64.7123 26.4215 63.8957 26.7074 63.056 26.6962C62.2163 26.685 61.4076 26.3773 60.7727 25.8277L69.297 17.3034C70.4205 16.183 71.8416 15.4082 73.392 15.0707C74.9424 14.7332 76.557 14.8472 78.0446 15.3991C79.5322 15.9511 80.8304 16.9179 81.7854 18.185C82.7404 19.4522 83.3121 20.9665 83.4329 22.5486C83.5537 24.1306 83.2184 25.7142 82.4668 27.1116C81.7153 28.509 80.5789 29.6617 79.1923 30.4331C77.8058 31.2044 76.2271 31.5622 74.6435 31.464C73.0598 31.3657 71.5375 30.8156 70.257 29.8787L72.6127 27.4889Z" fill="#E52B26"/>
<path d="M84.0715 16.1936C85.0392 15.9323 86.0213 15.7277 87.0128 15.5808C88.2629 15.3863 89.5264 15.2906 90.7915 15.2949C91.9308 15.2629 93.0663 15.4406 94.1413 15.8191C94.9627 16.1206 95.6905 16.6324 96.252 17.3034C96.7826 17.9668 97.1614 18.7383 97.3617 19.5638C97.5891 20.5275 97.6988 21.5151 97.6885 22.5051V31.4379H93.2154V23.0634C93.2948 22.0127 93.1001 20.9593 92.6503 20.0064C92.4068 19.6897 92.0861 19.4409 91.719 19.2835C91.3518 19.1262 90.9505 19.0656 90.5532 19.1077C90.231 19.1077 89.8905 19.1213 89.532 19.1485C89.1711 19.1825 88.8511 19.2166 88.572 19.2574V31.4379H84.0988L84.0715 16.1936Z" fill="#E8F8FF"/>
<path d="M99.343 16.1936C100.311 15.9324 101.293 15.7277 102.284 15.5809C103.537 15.3865 104.802 15.2909 106.07 15.2949C107.207 15.2628 108.34 15.4405 109.413 15.8192C110.236 16.1207 110.966 16.6324 111.53 17.3034C112.061 17.9666 112.44 18.7383 112.64 19.5638C112.867 20.5275 112.977 21.5151 112.967 22.5051V31.4379H108.5V23.0634C108.582 22.0119 108.384 20.9575 107.929 20.0064C107.682 19.6839 107.356 19.4314 106.982 19.2737C106.609 19.1161 106.2 19.0588 105.797 19.1077C105.48 19.1077 105.139 19.1213 104.776 19.1485C104.415 19.1826 104.095 19.2166 103.816 19.2574V31.4379H99.343V16.1936Z" fill="#E8F8FF"/>
<path d="M124.371 21.9536C124.352 21.5774 124.288 21.2047 124.18 20.8438C124.071 20.495 123.898 20.1695 123.67 19.8838C123.429 19.5997 123.132 19.3679 122.798 19.203C122.391 19.0086 121.942 18.9151 121.491 18.9306C121.048 18.9198 120.609 19.0082 120.204 19.1894C119.858 19.3503 119.55 19.5823 119.299 19.8702C119.056 20.1579 118.869 20.488 118.747 20.8438C118.619 21.209 118.523 21.585 118.461 21.9672L124.371 21.9536ZM113.872 23.6489C113.845 22.3957 114.063 21.1493 114.512 19.9792C114.895 18.9979 115.471 18.1039 116.208 17.3511C116.895 16.6586 117.718 16.1161 118.625 15.7579C119.517 15.4018 120.469 15.2192 121.43 15.22C122.409 15.1683 123.388 15.3235 124.303 15.6755C125.218 16.0274 126.048 16.5682 126.74 17.2626C128.039 18.6243 128.69 20.6396 128.694 23.3085C128.694 23.5672 128.694 23.8532 128.66 24.1664C128.626 24.4796 128.626 24.7519 128.606 24.9902H118.468C118.509 25.4275 118.646 25.8505 118.868 26.2293C119.09 26.6081 119.393 26.9335 119.755 27.1826C120.667 27.7639 121.738 28.047 122.819 27.9928C123.63 27.9936 124.439 27.9183 125.236 27.7681C125.898 27.6505 126.546 27.4633 127.169 27.2098L127.769 30.8387C127.461 30.9889 127.139 31.1098 126.809 31.1996C126.361 31.331 125.907 31.4355 125.447 31.5128C124.957 31.6081 124.432 31.683 123.874 31.7443C123.316 31.8055 122.751 31.8328 122.192 31.8328C120.929 31.8606 119.671 31.6457 118.489 31.1996C117.501 30.8238 116.609 30.2358 115.874 29.477C115.198 28.7386 114.69 27.8631 114.383 26.9102C114.049 25.8605 113.883 24.7642 113.893 23.6626" fill="#E8F8FF"/>
<path d="M128.994 23.5468C128.985 22.4463 129.174 21.3532 129.552 20.3196C129.897 19.3329 130.445 18.4295 131.16 17.6673C131.876 16.9051 132.743 16.301 133.705 15.894C134.78 15.4314 135.94 15.1995 137.11 15.2132C138.605 15.1935 140.088 15.4905 141.46 16.0847L140.534 19.6523C140.09 19.4849 139.635 19.3461 139.173 19.237C138.621 19.1086 138.057 19.0469 137.491 19.0532C136.936 19.0115 136.379 19.1014 135.866 19.3155C135.352 19.5297 134.897 19.862 134.536 20.2855C133.851 21.2228 133.507 22.3666 133.562 23.5264C133.491 24.6979 133.812 25.8599 134.475 26.8285C135.088 27.6047 136.15 27.9996 137.675 27.9996C138.256 27.9936 138.837 27.9435 139.411 27.8498C140 27.7553 140.575 27.5931 141.127 27.3664L141.753 31.0294C141.124 31.2806 140.472 31.4699 139.806 31.5945C138.956 31.7645 138.092 31.8466 137.225 31.8396C135.951 31.8582 134.686 31.6268 133.501 31.1587C132.525 30.7731 131.647 30.1728 130.934 29.4021C130.257 28.6446 129.755 27.7474 129.464 26.774C129.148 25.709 128.992 24.6031 129.001 23.4923" fill="#E8F8FF"/>
<path d="M142.196 11.7204L146.669 11.0055V15.6558H152.041V19.3732H146.669V24.9289C146.631 25.7089 146.802 26.4848 147.166 27.1758C147.493 27.734 148.16 28.02 149.161 28.02C149.659 28.017 150.155 27.9715 150.645 27.8838C151.121 27.8022 151.588 27.6768 152.041 27.5094L152.674 30.9885C152.087 31.2204 151.484 31.4115 150.87 31.5604C150.068 31.7403 149.248 31.8271 148.426 31.8192C147.393 31.8527 146.364 31.6839 145.396 31.3221C144.65 31.0399 143.989 30.571 143.476 29.9604C142.975 29.3354 142.63 28.6003 142.468 27.8158C142.269 26.8988 142.173 25.9625 142.182 25.0243L142.196 11.7204Z" fill="#E8F8FF"/>
<path d="M2.38356e-05 11.6728L4.48002 10.9511V15.6149H9.86556V19.346H4.48002V24.9085C4.44517 25.6925 4.61655 26.4719 4.97705 27.1689C5.29024 27.7272 5.95747 28.0064 6.97875 28.0064C7.47891 28.0072 7.97806 27.9616 8.46981 27.8702C8.94627 27.7917 9.4138 27.6663 9.86556 27.4957L10.4987 30.9885C9.91154 31.2214 9.30862 31.4125 8.69449 31.5604C7.89458 31.7396 7.07675 31.8264 6.25705 31.8191C5.22214 31.8527 4.19064 31.6839 3.22045 31.3221C2.4742 31.0369 1.81163 30.5686 1.29364 29.9604C0.7879 29.3204 0.442421 28.5687 0.285981 27.7681C0.0874894 26.8488 -0.00841615 25.9103 2.38356e-05 24.9698V11.6728Z" fill="#E8F8FF"/>
<path d="M10.3489 23.6489C10.3236 22.3886 10.5432 21.1353 10.9957 19.9587C11.382 18.9779 11.9607 18.0843 12.6978 17.3306C13.3843 16.636 14.2073 16.0913 15.1148 15.7306C16.0117 15.374 16.9684 15.1914 17.9336 15.1928C18.9147 15.1405 19.8958 15.2953 20.8132 15.6472C21.7305 15.9991 22.5634 16.5402 23.2578 17.2353C24.5605 18.597 25.2119 20.6169 25.2119 23.2949C25.2119 23.5536 25.2119 23.8396 25.2119 24.1528C25.2119 24.466 25.171 24.7383 25.1506 24.9766H14.9787C15.0187 25.4159 15.1554 25.8409 15.379 26.2211C15.6027 26.6014 15.9077 26.9274 16.2723 27.1758C17.1856 27.761 18.2598 28.0444 19.3429 27.986C20.1561 27.9867 20.9676 27.9115 21.7668 27.7613C22.4326 27.649 23.0835 27.4617 23.7072 27.203L24.3063 30.8455C23.9967 30.9917 23.6756 31.1124 23.3463 31.2064C22.899 31.3375 22.4443 31.442 21.9846 31.5196C21.4944 31.6149 20.9634 31.6898 20.4051 31.7511C19.8468 31.8123 19.2817 31.8396 18.7165 31.8396C17.4428 31.8775 16.1737 31.6694 14.9787 31.2268C13.9887 30.8496 13.0938 30.2592 12.3574 29.4975C11.6619 28.7536 11.1389 27.8656 10.8255 26.8966C10.4926 25.8468 10.3316 24.7501 10.3489 23.6489ZM20.8817 21.9332C20.8605 21.5545 20.7942 21.1796 20.6842 20.8166C20.5803 20.4655 20.4066 20.139 20.1736 19.8566C19.9304 19.5749 19.6343 19.3435 19.3021 19.1758C18.8912 18.984 18.4413 18.8907 17.988 18.9034C17.543 18.8934 17.1013 18.9817 16.6944 19.1621C16.3495 19.3219 16.0429 19.5542 15.7957 19.843C15.5524 20.1337 15.3633 20.4658 15.2374 20.8234C15.1198 21.1853 15.0333 21.5566 14.9787 21.9332H20.8817Z" fill="#E8F8FF"/>
<path d="M26.1107 23.5264C26.1059 22.424 26.2949 21.3293 26.669 20.2923C27.0206 19.3087 27.5697 18.4074 28.2826 17.6438C29.0034 16.8799 29.8721 16.2707 30.8358 15.8532C31.911 15.3925 33.0703 15.1606 34.24 15.1723C35.0174 15.1658 35.7933 15.2411 36.5549 15.397C37.2543 15.549 37.9381 15.7655 38.5975 16.0438L37.6647 19.6251C37.2203 19.4556 36.7654 19.3146 36.303 19.203C35.7515 19.0771 35.1869 19.0176 34.6213 19.026C34.0655 18.9837 33.5075 19.0733 32.9929 19.2875C32.4782 19.5016 32.0214 19.8342 31.6596 20.2583C30.9687 21.1957 30.6225 22.3428 30.6792 23.506C30.6064 24.6807 30.9301 25.8459 31.5983 26.8149C32.2111 27.6001 33.28 27.9905 34.8051 27.986C35.3892 27.9831 35.9721 27.933 36.5481 27.8362C37.1375 27.7449 37.7136 27.5826 38.2639 27.3528L38.8903 31.0294C38.2583 31.2809 37.6041 31.4724 36.9362 31.6013C36.0838 31.7658 35.2171 31.8456 34.349 31.8396C33.0728 31.8582 31.8053 31.6269 30.6179 31.1587C29.639 30.7708 28.7595 30.1682 28.0443 29.3953C27.3667 28.6556 26.858 27.7775 26.5532 26.8217C26.2413 25.7517 26.0921 24.6408 26.1107 23.5264Z" fill="#E8F8FF"/>
<path d="M40.1021 31.4379V8.81319L44.5889 8.09149V15.6762C44.9674 15.5536 45.3542 15.4581 45.7463 15.3902C46.1945 15.2995 46.6507 15.2539 47.108 15.254C48.1984 15.2224 49.2847 15.4004 50.308 15.7783C51.1056 16.0917 51.809 16.6052 52.3506 17.2694C52.8825 17.9429 53.2571 18.7268 53.4467 19.5638C53.6747 20.5276 53.789 21.5148 53.7872 22.5051V31.4379H49.2799V23.043C49.362 21.9884 49.1696 20.9305 48.7216 19.9723C48.4904 19.6561 48.1797 19.4064 47.8211 19.2486C47.4624 19.0908 47.0685 19.0304 46.6791 19.0736C46.3022 19.0716 45.926 19.1058 45.5557 19.1757C45.2016 19.2506 44.8748 19.3255 44.6093 19.4072V31.4379H40.1021Z" fill="#E8F8FF"/>
<path d="M138.894 2.16809C138.895 2.49847 138.799 2.82186 138.617 3.09756C138.434 3.37327 138.175 3.58897 137.871 3.71754C137.566 3.84612 137.231 3.88181 136.906 3.82013C136.582 3.75845 136.282 3.60215 136.047 3.37091C135.811 3.13967 135.648 2.8438 135.58 2.52054C135.512 2.19728 135.541 1.86106 135.663 1.55418C135.786 1.24731 135.996 0.983487 136.268 0.795911C136.54 0.608335 136.861 0.505383 137.192 0.500008C137.413 0.496402 137.633 0.536835 137.839 0.618964C138.045 0.701093 138.233 0.823283 138.391 0.978449C138.549 1.13362 138.675 1.31867 138.762 1.52288C138.848 1.7271 138.893 1.94641 138.894 2.16809Z" fill="#E52B26"/>
<path d="M130.138 5.17064C129.552 5.26596 129.001 5.36128 129.035 5.52468C129.069 5.68809 131.656 5.72894 132.923 6.61405C133.059 6.69339 133.168 6.81204 133.236 6.95447C133.917 8.9017 129.491 14.3894 129.934 14.5323C130.615 14.7434 135.38 9.49405 136.844 6.56639C136.946 6.36213 137.355 5.40213 137.123 5.09575C136.808 4.86512 136.425 4.74542 136.034 4.75532C135.672 4.72126 135.308 4.70535 134.945 4.70766C133.333 4.74534 131.727 4.90007 130.138 5.17064Z" fill="#E52B26"/>
<path d="M84.0715 11.1894V5.76297L85.3039 5.51787V11.1894H84.0715Z" fill="white"/>
<path d="M102.012 7.86L102.196 6.87276C101.762 6.75539 101.308 6.72807 100.863 6.79247C100.418 6.85687 99.9913 7.01163 99.6084 7.24723V11.1894H100.841V7.98936C101.014 7.88261 101.21 7.81618 101.412 7.79496C101.615 7.77375 101.82 7.7983 102.012 7.86681" fill="white"/>
<path d="M91.3703 5.74937L92.5958 5.53149V6.8183H93.8146V7.83958H92.5958V9.35107C92.5864 9.56594 92.6333 9.77954 92.732 9.97064C92.7938 10.0565 92.8778 10.124 92.9749 10.1659C93.072 10.2079 93.1786 10.2227 93.2835 10.2089C93.4207 10.2082 93.5574 10.1945 93.692 10.1681C93.8238 10.1438 93.9535 10.1097 94.0801 10.066L94.2503 11.026C94.0894 11.0922 93.9231 11.1446 93.7533 11.1826C93.5297 11.2311 93.3012 11.254 93.0724 11.2506C92.7872 11.259 92.5029 11.2128 92.235 11.1145C92.0296 11.0324 91.8474 10.9015 91.7039 10.7332C91.5681 10.5589 91.4728 10.3565 91.4248 10.1409C91.3739 9.88759 91.3488 9.62982 91.3499 9.37149L91.3703 5.74937Z" fill="white"/>
<path d="M104.027 10.3043C104.189 10.3139 104.35 10.2931 104.504 10.243C104.551 10.2196 104.59 10.1823 104.616 10.136C104.642 10.0898 104.652 10.0368 104.647 9.98426C104.643 9.92846 104.623 9.87484 104.591 9.82924C104.559 9.78363 104.514 9.74776 104.463 9.72553C104.288 9.62385 104.103 9.53948 103.912 9.47362C103.714 9.39872 103.544 9.32383 103.387 9.24894C103.238 9.1768 103.1 9.08271 102.979 8.96979C102.87 8.8587 102.784 8.7267 102.727 8.5817C102.66 8.41034 102.628 8.22762 102.632 8.04383C102.625 7.85804 102.664 7.67345 102.743 7.50534C102.822 7.33722 102.94 7.1904 103.088 7.07702C103.454 6.82176 103.895 6.69705 104.34 6.72298C104.596 6.72105 104.852 6.74385 105.103 6.79106C105.3 6.8278 105.493 6.88016 105.682 6.94766L105.464 7.90766C105.321 7.86 105.164 7.81234 105.001 7.77149C104.813 7.73454 104.621 7.7163 104.429 7.71702C104.048 7.71702 103.85 7.82596 103.85 8.03702C103.843 8.08208 103.843 8.12813 103.85 8.17319C103.873 8.21899 103.908 8.25697 103.952 8.28213C104.015 8.3256 104.081 8.36429 104.15 8.39787L104.477 8.53404C104.71 8.61854 104.938 8.71862 105.158 8.83362C105.312 8.91487 105.452 9.02064 105.573 9.14681C105.674 9.25565 105.748 9.38606 105.791 9.52809C105.834 9.68312 105.855 9.84368 105.852 10.0047C105.862 10.1949 105.823 10.3846 105.739 10.5552C105.654 10.7258 105.526 10.8716 105.369 10.9783C104.956 11.2173 104.483 11.3309 104.007 11.3051C103.682 11.3138 103.357 11.2818 103.04 11.2098C102.858 11.1651 102.678 11.1106 102.502 11.0464L102.713 10.0387C102.933 10.1271 103.161 10.1933 103.394 10.2362C103.618 10.2844 103.846 10.3072 104.075 10.3043" fill="white"/>
<path d="M109.671 8.67021C109.562 9.09234 109.447 9.50766 109.324 9.92298C109.202 10.3383 109.065 10.7536 108.929 11.1757H107.969C107.867 10.9374 107.765 10.6651 107.649 10.3451C107.534 10.0251 107.411 9.66426 107.282 9.2966C107.152 8.92894 107.03 8.52043 106.9 8.0983C106.771 7.67617 106.648 7.24723 106.526 6.8183H107.826C107.867 7.01575 107.915 7.23362 107.969 7.46511C108.024 7.6966 108.078 7.9417 108.139 8.19362C108.201 8.44553 108.255 8.69064 108.323 8.94255C108.391 9.19447 108.446 9.43277 108.514 9.66426C108.589 9.42596 108.657 9.17404 108.725 8.92213C108.793 8.67021 108.861 8.4183 108.922 8.17319C108.984 7.92809 109.052 7.68979 109.106 7.4583C109.161 7.22681 109.215 7.01575 109.263 6.8183H110.155C110.196 7.01575 110.25 7.22681 110.305 7.4583C110.359 7.68979 110.42 7.92809 110.475 8.17319C110.529 8.4183 110.604 8.6634 110.665 8.92213C110.727 9.18085 110.802 9.42596 110.877 9.66426C110.945 9.43277 111.006 9.19447 111.074 8.94255C111.142 8.69064 111.203 8.43872 111.265 8.19362C111.326 7.94851 111.374 7.7034 111.428 7.46511C111.482 7.22681 111.53 7.01575 111.578 6.8183H112.858C112.735 7.24723 112.613 7.67617 112.477 8.0983C112.34 8.52043 112.225 8.92213 112.102 9.2966C111.979 9.67106 111.85 10.0251 111.734 10.3451C111.619 10.6651 111.503 10.9374 111.408 11.1757H110.448C110.305 10.7536 110.175 10.3383 110.039 9.92298C109.903 9.50766 109.787 9.09234 109.671 8.67021Z" fill="white"/>
<path d="M114.962 6.83873H113.729V11.1962H114.962V6.83873Z" fill="white"/>
<path d="M115.942 5.74937L117.175 5.53149V6.83873H118.393V7.86681H117.175V9.39873C117.166 9.61354 117.213 9.82698 117.311 10.0183C117.374 10.1023 117.458 10.1681 117.555 10.2088C117.652 10.2494 117.758 10.2636 117.862 10.2498C117.999 10.2497 118.136 10.236 118.271 10.2089C118.404 10.1911 118.534 10.1568 118.659 10.1068L118.829 11.0668C118.668 11.1331 118.502 11.1855 118.332 11.2234C118.109 11.2754 117.88 11.2983 117.651 11.2915C117.366 11.2992 117.082 11.253 116.814 11.1553C116.608 11.0732 116.426 10.9424 116.283 10.774C116.146 10.6009 116.053 10.3979 116.01 10.1817C115.954 9.92919 115.926 9.67107 115.929 9.41235L115.942 5.74937Z" fill="white"/>
<path d="M119.272 9.01744C119.269 8.71364 119.319 8.41169 119.421 8.12553C119.519 7.85544 119.669 7.60768 119.864 7.39702C120.057 7.19078 120.288 7.02425 120.545 6.9068C120.844 6.77998 121.166 6.71736 121.491 6.72297C121.704 6.72112 121.916 6.74166 122.124 6.78425C122.318 6.8257 122.507 6.88496 122.689 6.96127L122.438 7.9485C122.313 7.90089 122.186 7.86221 122.056 7.83276C121.902 7.79833 121.744 7.78233 121.587 7.7851C121.435 7.77298 121.282 7.79688 121.141 7.85485C121.001 7.91283 120.876 8.00324 120.776 8.11872C120.582 8.37652 120.485 8.69505 120.504 9.01744C120.487 9.34079 120.575 9.66089 120.756 9.92978C120.87 10.0467 121.008 10.1363 121.162 10.1917C121.315 10.2472 121.479 10.267 121.641 10.2498C121.801 10.2489 121.96 10.2352 122.118 10.2089C122.281 10.1821 122.441 10.1364 122.594 10.0728L122.764 11.0872C122.59 11.1558 122.41 11.2082 122.227 11.2438C122.002 11.2846 121.774 11.3051 121.546 11.3051C121.195 11.3161 120.845 11.2559 120.518 11.1281C120.258 11.0194 120.025 10.8543 119.837 10.6447C119.65 10.4365 119.511 10.1903 119.428 9.92297C119.344 9.62855 119.303 9.32359 119.306 9.01744" fill="white"/>
<path d="M123.581 11.1962V5.74937L124.814 5.53149V6.85235C124.918 6.8196 125.025 6.79457 125.134 6.77745C125.259 6.75077 125.387 6.73708 125.515 6.7366C125.815 6.72703 126.113 6.77797 126.393 6.88639C126.614 6.9712 126.809 7.11199 126.958 7.2949C127.101 7.48047 127.203 7.69385 127.258 7.92128C127.315 8.18754 127.342 8.45924 127.34 8.73149V11.1962H126.107V8.88128C126.131 8.59095 126.077 8.29956 125.951 8.03703C125.887 7.94939 125.801 7.88042 125.702 7.83731C125.602 7.7942 125.493 7.77853 125.386 7.79192C125.284 7.7812 125.181 7.7812 125.079 7.79192L124.814 7.8532V11.1689L123.581 11.1962Z" fill="white"/>
<path d="M86.3933 11.1894V7.24723C86.9825 6.87728 87.6737 6.7033 88.3678 6.75021C89.6001 6.75021 90.281 7.36978 90.281 8.72467V11.1894H89.0486V8.72467C89.0486 7.85999 88.6129 7.79872 88.2452 7.79872C88.0272 7.7977 87.8139 7.8617 87.6325 7.98255V11.1894H86.3933Z" fill="white"/>
<path d="M98.6416 9.35106H95.8637C95.8637 9.35106 95.925 10.277 97.1642 10.277C97.581 10.2675 97.995 10.2058 98.3965 10.0932L98.519 11.0804C98.0442 11.2459 97.5445 11.3288 97.0416 11.3255C96.7253 11.3598 96.4054 11.3228 96.1053 11.2174C95.8052 11.1119 95.5325 10.9406 95.3073 10.7159C95.082 10.4913 94.9099 10.2192 94.8035 9.91936C94.6972 9.61956 94.6593 9.29975 94.6927 8.9834C94.6675 8.69602 94.7035 8.40657 94.7984 8.13412C94.8932 7.86167 95.0446 7.61239 95.2427 7.4027C95.4408 7.19301 95.6811 7.02766 95.9478 6.91754C96.2144 6.80743 96.5013 6.75504 96.7897 6.76383C98.6416 6.76383 98.7641 8.61574 98.6416 9.35106ZM96.7284 7.62851C95.925 7.62851 95.8637 8.49319 95.8637 8.49319H97.5931C97.5931 8.49319 97.5318 7.62851 96.7284 7.62851Z" fill="white"/>
<path d="M160.873 21.4679C160.574 21.4679 160.257 21.4457 159.925 21.4013C159.592 21.3681 159.27 21.3181 158.959 21.2516C158.649 21.185 158.366 21.1129 158.111 21.0353C157.856 20.9576 157.656 20.8855 157.512 20.8189L157.994 18.7556C158.283 18.8776 158.649 19.0107 159.093 19.1549C159.547 19.2881 160.108 19.3546 160.773 19.3546C161.539 19.3546 162.099 19.2104 162.454 18.922C162.809 18.6335 162.986 18.2453 162.986 17.7572C162.986 17.4577 162.92 17.2081 162.787 17.0084C162.665 16.7976 162.493 16.6312 162.271 16.5092C162.049 16.3761 161.783 16.2873 161.472 16.2429C161.173 16.1875 160.851 16.1597 160.507 16.1597H159.542V14.1629H160.64C160.884 14.1629 161.117 14.1407 161.339 14.0964C161.572 14.052 161.777 13.9799 161.955 13.8801C162.132 13.7691 162.271 13.6249 162.371 13.4474C162.482 13.2588 162.537 13.0259 162.537 12.7485C162.537 12.5378 162.493 12.3547 162.404 12.1994C162.315 12.0441 162.199 11.9165 162.054 11.8167C161.921 11.7169 161.76 11.6447 161.572 11.6004C161.394 11.5449 161.211 11.5172 161.023 11.5172C160.546 11.5172 160.102 11.5893 159.692 11.7335C159.292 11.8777 158.926 12.0552 158.593 12.266L157.711 10.4522C157.889 10.3413 158.094 10.2248 158.327 10.1028C158.571 9.98075 158.837 9.86981 159.126 9.76997C159.414 9.67013 159.719 9.58693 160.041 9.52037C160.374 9.45381 160.723 9.42053 161.089 9.42053C161.766 9.42053 162.348 9.50373 162.837 9.67013C163.336 9.82544 163.746 10.0529 164.068 10.3524C164.39 10.6408 164.628 10.9847 164.783 11.3841C164.939 11.7723 165.016 12.1994 165.016 12.6653C165.016 13.1202 164.889 13.5639 164.634 13.9965C164.379 14.4181 164.035 14.7398 163.602 14.9617C164.201 15.2057 164.661 15.5718 164.983 16.0599C165.316 16.5369 165.482 17.1138 165.482 17.7905C165.482 18.3229 165.394 18.8166 165.216 19.2714C165.039 19.7151 164.761 20.1034 164.384 20.4362C164.007 20.7579 163.524 21.0131 162.936 21.2017C162.36 21.3791 161.672 21.4679 160.873 21.4679ZM170.131 19.9037C170.131 20.4029 169.97 20.7857 169.648 21.0519C169.338 21.307 168.983 21.4346 168.583 21.4346C168.184 21.4346 167.823 21.307 167.502 21.0519C167.191 20.7857 167.036 20.4029 167.036 19.9037C167.036 19.4045 167.191 19.0274 167.502 18.7722C167.823 18.506 168.184 18.3729 168.583 18.3729C168.983 18.3729 169.338 18.506 169.648 18.7722C169.97 19.0274 170.131 19.4045 170.131 19.9037ZM179.517 15.4276C179.517 17.3689 179.146 18.861 178.402 19.9037C177.67 20.9354 176.655 21.4513 175.357 21.4513C174.059 21.4513 173.039 20.9354 172.296 19.9037C171.563 18.861 171.197 17.3689 171.197 15.4276C171.197 14.4625 171.292 13.6083 171.48 12.865C171.68 12.1218 171.963 11.495 172.329 10.9847C172.695 10.4744 173.133 10.0861 173.643 9.81989C174.154 9.55365 174.725 9.42053 175.357 9.42053C176.655 9.42053 177.67 9.94192 178.402 10.9847C179.146 12.0164 179.517 13.4973 179.517 15.4276ZM176.988 15.4276C176.988 14.8507 176.96 14.3293 176.905 13.8634C176.849 13.3864 176.761 12.9759 176.639 12.6321C176.517 12.2882 176.35 12.0219 176.139 11.8333C175.929 11.6447 175.668 11.5505 175.357 11.5505C175.047 11.5505 174.786 11.6447 174.575 11.8333C174.376 12.0219 174.209 12.2882 174.076 12.6321C173.954 12.9759 173.865 13.3864 173.81 13.8634C173.754 14.3293 173.727 14.8507 173.727 15.4276C173.727 16.0044 173.754 16.5314 173.81 17.0084C173.865 17.4854 173.954 17.8958 174.076 18.2397C174.209 18.5836 174.376 18.8499 174.575 19.0385C174.786 19.227 175.047 19.3213 175.357 19.3213C175.668 19.3213 175.929 19.227 176.139 19.0385C176.35 18.8499 176.517 18.5836 176.639 18.2397C176.761 17.8958 176.849 17.4854 176.905 17.0084C176.96 16.5314 176.988 16.0044 176.988 15.4276Z" fill="#E52B26"/>
</g>
<defs>
<clipPath id="clip0_2_5277">
<rect width="180.426" height="32" fill="white" transform="translate(0 0.5)"/>
</clipPath>
</defs>
</svg>
