<svg width="182" height="43" viewBox="0 0 182 43" fill="none" xmlns="http://www.w3.org/2000/svg">
<g clip-path="url(#clip0_9_308)">
<g clip-path="url(#clip1_9_308)">
<path d="M66.2499 24.6385C65.4413 24.1682 64.5172 23.9336 63.5822 23.9612C62.6472 23.9889 61.7386 24.2777 60.9592 24.795C60.1798 25.3123 59.5608 26.0374 59.1722 26.8883C58.7836 27.7391 58.6409 28.6818 58.7602 29.6096C58.8796 30.5374 59.2563 31.4132 59.8477 32.138C60.439 32.8628 61.2214 33.4076 62.1064 33.7107C62.9913 34.0139 63.9434 34.0633 64.855 33.8533C65.7666 33.6434 66.6012 33.1825 67.2643 32.5228L72.8541 26.9262L73.535 26.2453C74.186 25.7135 75.0035 25.4282 75.844 25.4394C76.6845 25.4506 77.4942 25.7576 78.1307 26.3066L69.586 34.8445C68.4625 35.9648 67.0414 36.7397 65.491 37.0772C63.9406 37.4147 62.326 37.3007 60.8384 36.7487C59.3508 36.1968 58.0526 35.2299 57.0976 33.9628C56.1426 32.6957 55.5709 31.1814 55.4501 29.5993C55.3293 28.0172 55.6646 26.4337 56.4162 25.0363C57.1677 23.6389 58.3041 22.4862 59.6907 21.7148C61.0773 20.9434 62.6559 20.5856 64.2395 20.6839C65.8232 20.7821 67.3455 21.3323 68.626 22.2691L66.2499 24.6385Z" fill="#00425F"/>
<path d="M73.1127 32.489C73.9208 32.9613 74.845 33.1977 75.7806 33.1716C76.7162 33.1455 77.6258 32.8579 78.4063 32.3414C79.1868 31.8249 79.8071 31.1001 80.1968 30.2491C80.5866 29.3981 80.7302 28.4551 80.6114 27.5267C80.4927 26.5983 80.1163 25.7217 79.5249 24.9962C78.9335 24.2708 78.1508 23.7255 77.2654 23.422C76.38 23.1186 75.4273 23.0692 74.5152 23.2795C73.6032 23.4897 72.7683 23.9512 72.105 24.6116L66.5425 30.2082L65.8616 30.8891C65.2123 31.4216 64.3957 31.7075 63.556 31.6963C62.7163 31.6851 61.9076 31.3775 61.2727 30.8278L69.797 22.3035C70.9205 21.1831 72.3416 20.4083 73.892 20.0708C75.4424 19.7333 77.057 19.8473 78.5446 20.3992C80.0322 20.9512 81.3304 21.918 82.2854 23.1852C83.2404 24.4523 83.8121 25.9666 83.9329 27.5487C84.0537 29.1308 83.7184 30.7143 82.9668 32.1117C82.2153 33.5091 81.0789 34.6618 79.6923 35.4332C78.3058 36.2046 76.7271 36.5623 75.1435 36.4641C73.5598 36.3658 72.0375 35.8157 70.757 34.8788L73.1127 32.489Z" fill="#E52B26"/>
<path d="M84.5715 21.1934C85.5392 20.9321 86.5213 20.7275 87.5128 20.5806C88.7629 20.386 90.0264 20.2904 91.2915 20.2947C92.4308 20.2627 93.5663 20.4404 94.6413 20.8189C95.4627 21.1204 96.1905 21.6322 96.752 22.3032C97.2826 22.9665 97.6614 23.7381 97.8617 24.5636C98.0891 25.5272 98.1988 26.5149 98.1885 27.5049V36.4377H93.7154V28.0632C93.7948 27.0124 93.6001 25.9591 93.1503 25.0062C92.9068 24.6895 92.5861 24.4406 92.219 24.2833C91.8518 24.1259 91.4505 24.0654 91.0532 24.1074C90.731 24.1074 90.3905 24.1211 90.032 24.1483C89.6711 24.1823 89.3511 24.2164 89.072 24.2572V36.4377H84.5988L84.5715 21.1934Z" fill="#00425F"/>
<path d="M99.843 21.1934C100.811 20.9322 101.793 20.7276 102.784 20.5807C104.037 20.3863 105.302 20.2907 106.57 20.2947C107.707 20.2626 108.84 20.4403 109.913 20.819C110.736 21.1205 111.466 21.6322 112.03 22.3032C112.561 22.9665 112.94 23.7381 113.14 24.5636C113.367 25.5273 113.477 26.5149 113.467 27.5049V36.4377H109V28.0632C109.082 27.0117 108.884 25.9573 108.429 25.0062C108.182 24.6837 107.856 24.4312 107.482 24.2735C107.109 24.1159 106.7 24.0586 106.297 24.1075C105.98 24.1075 105.639 24.1211 105.276 24.1483C104.915 24.1824 104.595 24.2164 104.316 24.2572V36.4377H99.843V21.1934Z" fill="#00425F"/>
<path d="M124.871 26.9538C124.852 26.5775 124.788 26.2049 124.68 25.844C124.571 25.4951 124.398 25.1696 124.17 24.884C123.929 24.5998 123.632 24.3681 123.298 24.2031C122.891 24.0087 122.442 23.9153 121.991 23.9308C121.548 23.9199 121.109 24.0083 120.704 24.1895C120.358 24.3505 120.05 24.5824 119.799 24.8704C119.556 25.158 119.369 25.4881 119.247 25.844C119.119 26.2091 119.023 26.5851 118.961 26.9674L124.871 26.9538ZM114.372 28.6491C114.345 27.3959 114.563 26.1494 115.012 24.9793C115.395 23.998 115.971 23.1041 116.708 22.3512C117.395 21.6587 118.218 21.1163 119.125 20.758C120.017 20.4019 120.969 20.2193 121.93 20.2201C122.909 20.1685 123.888 20.3237 124.803 20.6756C125.718 21.0275 126.548 21.5683 127.24 22.2627C128.539 23.6244 129.19 25.6397 129.194 28.3087C129.194 28.5674 129.194 28.8533 129.16 29.1665C129.126 29.4797 129.126 29.7521 129.106 29.9904H118.968C119.009 30.4277 119.146 30.8506 119.368 31.2294C119.59 31.6082 119.893 31.9336 120.255 32.1827C121.167 32.764 122.238 33.0472 123.319 32.9929C124.13 32.9937 124.939 32.9185 125.736 32.7682C126.398 32.6506 127.046 32.4635 127.669 32.2099L128.269 35.8389C127.961 35.9891 127.639 36.1099 127.309 36.1997C126.861 36.3311 126.407 36.4357 125.947 36.5129C125.457 36.6082 124.932 36.6831 124.374 36.7444C123.816 36.8057 123.251 36.8329 122.692 36.8329C121.429 36.8607 120.171 36.6458 118.989 36.1997C118.001 35.824 117.109 35.2359 116.374 34.4772C115.698 33.7388 115.19 32.8633 114.883 31.9104C114.549 30.8606 114.383 29.7644 114.393 28.6627" fill="#00425F"/>
<path d="M129.494 28.5469C129.485 27.4464 129.674 26.3533 130.052 25.3197C130.397 24.3331 130.945 23.4296 131.66 22.6674C132.376 21.9052 133.243 21.3012 134.205 20.8942C135.28 20.4315 136.44 20.1996 137.61 20.2133C139.105 20.1937 140.588 20.4907 141.96 21.0848L141.034 24.6525C140.59 24.485 140.135 24.3463 139.673 24.2371C139.121 24.1088 138.557 24.047 137.991 24.0533C137.436 24.0116 136.879 24.1015 136.366 24.3156C135.852 24.5298 135.397 24.8621 135.036 25.2857C134.351 26.2229 134.007 27.3667 134.062 28.5265C133.991 29.6981 134.312 30.86 134.975 31.8286C135.588 32.6048 136.65 32.9997 138.175 32.9997C138.756 32.9937 139.337 32.9437 139.911 32.8499C140.5 32.7554 141.075 32.5932 141.627 32.3665L142.253 36.0295C141.624 36.2808 140.972 36.47 140.306 36.5946C139.456 36.7646 138.592 36.8467 137.725 36.8397C136.451 36.8583 135.186 36.627 134.001 36.1588C133.025 35.7732 132.147 35.1729 131.434 34.4023C130.757 33.6447 130.255 32.7475 129.964 31.7742C129.648 30.7092 129.492 29.6032 129.501 28.4925" fill="#00425F"/>
<path d="M142.696 16.7203L147.169 16.0054V20.6556H152.541V24.373H147.169V29.9288C147.131 30.7087 147.302 31.4846 147.666 32.1756C147.993 32.7339 148.66 33.0198 149.661 33.0198C150.159 33.0169 150.655 32.9713 151.145 32.8837C151.621 32.802 152.088 32.6766 152.541 32.5092L153.174 35.9883C152.587 36.2202 151.984 36.4113 151.37 36.5603C150.568 36.7401 149.748 36.827 148.926 36.819C147.893 36.8526 146.864 36.6837 145.896 36.322C145.15 36.0397 144.489 35.5709 143.976 34.9603C143.475 34.3352 143.13 33.6002 142.968 32.8156C142.769 31.8986 142.673 30.9623 142.682 30.0241L142.696 16.7203Z" fill="#00425F"/>
<path d="M0.500024 16.6729L4.98002 15.9512V20.615H10.3656V24.3461H4.98002V29.9086C4.94517 30.6926 5.11655 31.472 5.47705 32.169C5.79024 32.7273 6.45747 33.0065 7.47875 33.0065C7.97891 33.0073 8.47806 32.9617 8.96981 32.8703C9.44627 32.7918 9.9138 32.6664 10.3656 32.4959L10.9987 35.9886C10.4115 36.2215 9.80862 36.4126 9.19449 36.5605C8.39458 36.7397 7.57675 36.8265 6.75705 36.8193C5.72214 36.8529 4.69064 36.684 3.72045 36.3222C2.9742 36.037 2.31163 35.5688 1.79364 34.9605C1.2879 34.3205 0.942421 33.5688 0.785981 32.7682C0.587489 31.8489 0.491584 30.9104 0.500024 29.9699V16.6729Z" fill="#00425F"/>
<path d="M10.8489 28.6487C10.8236 27.3884 11.0432 26.1351 11.4957 24.9585C11.882 23.9777 12.4607 23.0841 13.1978 22.3304C13.8843 21.6358 14.7073 21.091 15.6148 20.7304C16.5117 20.3737 17.4684 20.1912 18.4336 20.1925C19.4147 20.1402 20.3958 20.2951 21.3132 20.647C22.2305 20.9989 23.0634 21.54 23.7578 22.2351C25.0605 23.5968 25.7119 25.6167 25.7119 28.2947C25.7119 28.5534 25.7119 28.8394 25.7119 29.1525C25.7119 29.4657 25.671 29.7381 25.6506 29.9764H15.4787C15.5187 30.4157 15.6554 30.8407 15.879 31.2209C16.1027 31.6011 16.4077 31.9271 16.7723 32.1755C17.6856 32.7608 18.7598 33.0442 19.8429 32.9857C20.6561 32.9865 21.4676 32.9113 22.2668 32.7611C22.9326 32.6488 23.5835 32.4615 24.2072 32.2028L24.8063 35.8453C24.4967 35.9915 24.1756 36.1122 23.8463 36.2062C23.399 36.3372 22.9443 36.4418 22.4846 36.5194C21.9944 36.6147 21.4634 36.6896 20.9051 36.7508C20.3468 36.8121 19.7817 36.8394 19.2165 36.8394C17.9428 36.8772 16.6737 36.6692 15.4787 36.2266C14.4887 35.8493 13.5938 35.2589 12.8574 34.4972C12.1619 33.7533 11.6389 32.8653 11.3255 31.8964C10.9926 30.8466 10.8316 29.7499 10.8489 28.6487ZM21.3817 26.933C21.3605 26.5542 21.2942 26.1794 21.1842 25.8164C21.0803 25.4653 20.9066 25.1388 20.6736 24.8564C20.4304 24.5746 20.1343 24.3433 19.8021 24.1755C19.3912 23.9837 18.9413 23.8905 18.488 23.9032C18.043 23.8931 17.6013 23.9815 17.1944 24.1619C16.8495 24.3217 16.5429 24.5539 16.2957 24.8428C16.0524 25.1335 15.8633 25.4656 15.7374 25.8232C15.6198 26.1851 15.5333 26.5564 15.4787 26.933H21.3817Z" fill="#00425F"/>
<path d="M26.6107 28.5263C26.6059 27.4239 26.7949 26.3293 27.169 25.2923C27.5206 24.3087 28.0697 23.4074 28.7826 22.6438C29.5034 21.8799 30.3721 21.2707 31.3358 20.8531C32.411 20.3924 33.5703 20.1606 34.74 20.1723C35.5174 20.1658 36.2933 20.2411 37.0549 20.397C37.7543 20.549 38.4381 20.7655 39.0975 21.0438L38.1647 24.6251C37.7203 24.4555 37.2654 24.3145 36.803 24.2029C36.2515 24.077 35.6869 24.0176 35.1213 24.0259C34.5655 23.9837 34.0075 24.0733 33.4929 24.2874C32.9782 24.5016 32.5214 24.8342 32.1596 25.2583C31.4687 26.1957 31.1225 27.3428 31.1792 28.5059C31.1064 29.6807 31.4301 30.8459 32.0983 31.8149C32.7111 32.6001 33.78 32.9905 35.3051 32.9859C35.8892 32.9831 36.4721 32.933 37.0481 32.8361C37.6375 32.7448 38.2136 32.5825 38.7639 32.3527L39.3903 36.0293C38.7583 36.2809 38.1041 36.4724 37.4362 36.6012C36.5838 36.7657 35.7171 36.8455 34.849 36.8395C33.5728 36.8581 32.3053 36.6268 31.1179 36.1587C30.139 35.7708 29.2595 35.1682 28.5443 34.3953C27.8667 33.6555 27.358 32.7774 27.0532 31.8217C26.7413 30.7516 26.5921 29.6408 26.6107 28.5263Z" fill="#00425F"/>
<path d="M40.6021 36.4377V13.813L45.0889 13.0913V20.676C45.4674 20.5534 45.8542 20.4579 46.2463 20.39C46.6945 20.2993 47.1507 20.2537 47.608 20.2539C48.6984 20.2223 49.7847 20.4002 50.808 20.7781C51.6056 21.0915 52.309 21.605 52.8506 22.2692C53.3825 22.9427 53.7571 23.7266 53.9467 24.5637C54.1747 25.5274 54.289 26.5146 54.2872 27.5049V36.4377H49.7799V28.0428C49.862 26.9882 49.6696 25.9304 49.2216 24.9722C48.9904 24.6559 48.6797 24.4062 48.3211 24.2484C47.9624 24.0906 47.5685 24.0303 47.1791 24.0734C46.8022 24.0715 46.426 24.1057 46.0557 24.1756C45.7016 24.2505 45.3748 24.3254 45.1093 24.4071V36.4377H40.6021Z" fill="#00425F"/>
<path d="M139.394 7.16831C139.395 7.49869 139.299 7.82207 139.117 8.09778C138.934 8.37348 138.675 8.58919 138.371 8.71776C138.066 8.84633 137.731 8.88202 137.406 8.82034C137.082 8.75866 136.782 8.60237 136.547 8.37112C136.311 8.13988 136.148 7.84401 136.08 7.52075C136.012 7.19749 136.041 6.86127 136.163 6.5544C136.286 6.24752 136.496 5.9837 136.768 5.79612C137.04 5.60855 137.361 5.5056 137.692 5.50022C137.913 5.49662 138.133 5.53705 138.339 5.61918C138.545 5.70131 138.733 5.8235 138.891 5.97866C139.049 6.13383 139.175 6.31888 139.262 6.5231C139.348 6.72731 139.393 6.94662 139.394 7.16831Z" fill="#E52B26"/>
<path d="M130.638 10.1707C130.052 10.266 129.501 10.3614 129.535 10.5248C129.569 10.6882 132.156 10.729 133.423 11.6141C133.559 11.6935 133.668 11.8121 133.736 11.9545C134.417 13.9018 129.991 19.3894 130.434 19.5324C131.115 19.7435 135.88 14.4941 137.344 11.5665C137.446 11.3622 137.855 10.4022 137.623 10.0958C137.308 9.86519 136.925 9.74549 136.534 9.7554C136.172 9.72134 135.808 9.70543 135.445 9.70774C133.833 9.74541 132.227 9.90015 130.638 10.1707Z" fill="#E52B26"/>
<path d="M84.5715 16.1896V10.7632L85.8039 10.5181V16.1896H84.5715Z" fill="white"/>
<path d="M102.512 12.8598L102.696 11.8726C102.262 11.7552 101.808 11.7279 101.363 11.7923C100.918 11.8567 100.491 12.0114 100.108 12.247V16.1892H101.341V12.9892C101.514 12.8824 101.71 12.816 101.912 12.7948C102.115 12.7736 102.32 12.7981 102.512 12.8666" fill="white"/>
<path d="M91.8703 10.7491L93.0958 10.5312V11.8181H94.3146V12.8393H93.0958V14.3508C93.0864 14.5657 93.1333 14.7793 93.232 14.9704C93.2938 15.0562 93.3778 15.1237 93.4749 15.1657C93.572 15.2076 93.6786 15.2225 93.7835 15.2087C93.9207 15.2079 94.0574 15.1943 94.192 15.1678C94.3238 15.1436 94.4535 15.1095 94.5801 15.0657L94.7503 16.0257C94.5894 16.092 94.4231 16.1444 94.2533 16.1823C94.0297 16.2309 93.8012 16.2537 93.5724 16.2504C93.2872 16.2588 93.0029 16.2126 92.735 16.1142C92.5296 16.0321 92.3474 15.9013 92.2039 15.733C92.0681 15.5586 91.9728 15.3563 91.9248 15.1406C91.8739 14.8873 91.8488 14.6296 91.8499 14.3713L91.8703 10.7491Z" fill="white"/>
<path d="M104.527 15.3044C104.689 15.314 104.85 15.2933 105.004 15.2431C105.051 15.2197 105.09 15.1824 105.116 15.1362C105.142 15.0899 105.152 15.0369 105.147 14.9844C105.143 14.9286 105.123 14.875 105.091 14.8293C105.059 14.7837 105.014 14.7479 104.963 14.7256C104.788 14.624 104.603 14.5396 104.412 14.4737C104.214 14.3988 104.044 14.3239 103.887 14.249C103.738 14.1769 103.6 14.0828 103.479 13.9699C103.37 13.8588 103.284 13.7268 103.227 13.5818C103.16 13.4105 103.128 13.2277 103.132 13.0439C103.125 12.8581 103.164 12.6736 103.243 12.5054C103.322 12.3373 103.44 12.1905 103.588 12.0771C103.954 11.8219 104.395 11.6972 104.84 11.7231C105.096 11.7212 105.352 11.744 105.603 11.7912C105.8 11.8279 105.993 11.8803 106.182 11.9478L105.964 12.9078C105.821 12.8601 105.664 12.8124 105.501 12.7716C105.313 12.7346 105.121 12.7164 104.929 12.7171C104.548 12.7171 104.35 12.8261 104.35 13.0371C104.343 13.0822 104.343 13.1282 104.35 13.1733C104.373 13.2191 104.408 13.2571 104.452 13.2822C104.515 13.3257 104.581 13.3644 104.65 13.398L104.977 13.5342C105.21 13.6186 105.438 13.7187 105.658 13.8337C105.812 13.915 105.952 14.0207 106.073 14.1469C106.174 14.2558 106.248 14.3862 106.291 14.5282C106.334 14.6832 106.355 14.8438 106.352 15.0048C106.362 15.195 106.323 15.3847 106.239 15.5553C106.154 15.7259 106.026 15.8717 105.869 15.9784C105.456 16.2174 104.983 16.331 104.507 16.3052C104.182 16.3139 103.857 16.2819 103.54 16.2099C103.358 16.1652 103.178 16.1107 103.002 16.0465L103.213 15.0388C103.433 15.1272 103.661 15.1934 103.894 15.2363C104.118 15.2845 104.346 15.3073 104.575 15.3044" fill="white"/>
<path d="M110.171 13.6703C110.062 14.0924 109.947 14.5077 109.824 14.923C109.702 15.3384 109.565 15.7537 109.429 16.1758H108.469C108.367 15.9375 108.265 15.6652 108.149 15.3452C108.034 15.0252 107.911 14.6643 107.782 14.2967C107.652 13.929 107.53 13.5205 107.4 13.0984C107.271 12.6762 107.148 12.2473 107.026 11.8184H108.326C108.367 12.0158 108.415 12.2337 108.469 12.4652C108.524 12.6967 108.578 12.9418 108.639 13.1937C108.701 13.4456 108.755 13.6907 108.823 13.9426C108.891 14.1945 108.946 14.4328 109.014 14.6643C109.089 14.426 109.157 14.1741 109.225 13.9222C109.293 13.6703 109.361 13.4184 109.422 13.1733C109.484 12.9281 109.552 12.6898 109.606 12.4584C109.661 12.2269 109.715 12.0158 109.763 11.8184H110.655C110.696 12.0158 110.75 12.2269 110.805 12.4584C110.859 12.6898 110.92 12.9281 110.975 13.1733C111.029 13.4184 111.104 13.6635 111.165 13.9222C111.227 14.1809 111.302 14.426 111.377 14.6643C111.445 14.4328 111.506 14.1945 111.574 13.9426C111.642 13.6907 111.703 13.4388 111.765 13.1937C111.826 12.9486 111.874 12.7035 111.928 12.4652C111.982 12.2269 112.03 12.0158 112.078 11.8184H113.358C113.235 12.2473 113.113 12.6762 112.977 13.0984C112.84 13.5205 112.725 13.9222 112.602 14.2967C112.479 14.6711 112.35 15.0252 112.234 15.3452C112.119 15.6652 112.003 15.9375 111.908 16.1758H110.948C110.805 15.7537 110.675 15.3384 110.539 14.923C110.403 14.5077 110.287 14.0924 110.171 13.6703Z" fill="white"/>
<path d="M115.462 11.8389H114.229V16.1963H115.462V11.8389Z" fill="white"/>
<path d="M116.442 10.7491L117.675 10.5312V11.8385H118.893V12.8666H117.675V14.3985C117.666 14.6133 117.713 14.8267 117.811 15.0181C117.874 15.1021 117.958 15.1678 118.055 15.2085C118.152 15.2492 118.258 15.2634 118.362 15.2495C118.499 15.2495 118.636 15.2358 118.771 15.2087C118.904 15.1909 119.034 15.1566 119.159 15.1066L119.329 16.0666C119.168 16.1329 119.002 16.1852 118.832 16.2232C118.609 16.2752 118.38 16.2981 118.151 16.2913C117.866 16.299 117.582 16.2528 117.314 16.1551C117.108 16.073 116.926 15.9421 116.783 15.7738C116.646 15.6006 116.553 15.3976 116.51 15.1815C116.454 14.9289 116.426 14.6708 116.429 14.4121L116.442 10.7491Z" fill="white"/>
<path d="M119.772 14.0175C119.769 13.7137 119.819 13.4117 119.921 13.1256C120.019 12.8555 120.169 12.6077 120.364 12.397C120.557 12.1908 120.788 12.0243 121.045 11.9068C121.344 11.78 121.666 11.7174 121.991 11.723C122.204 11.7212 122.416 11.7417 122.624 11.7843C122.818 11.8257 123.007 11.885 123.189 11.9613L122.938 12.9485C122.813 12.9009 122.686 12.8622 122.556 12.8328C122.402 12.7984 122.244 12.7824 122.087 12.7851C121.935 12.773 121.782 12.7969 121.641 12.8549C121.501 12.9129 121.376 13.0033 121.276 13.1187C121.082 13.3766 120.985 13.6951 121.004 14.0175C120.987 14.3408 121.075 14.6609 121.256 14.9298C121.37 15.0467 121.508 15.1363 121.662 15.1917C121.815 15.2472 121.979 15.267 122.141 15.2498C122.301 15.2489 122.46 15.2352 122.618 15.209C122.781 15.1821 122.941 15.1364 123.094 15.0728L123.264 16.0873C123.09 16.1558 122.91 16.2082 122.727 16.2439C122.502 16.2846 122.274 16.3051 122.046 16.3051C121.695 16.3162 121.345 16.2559 121.018 16.1281C120.758 16.0195 120.525 15.8543 120.337 15.6447C120.15 15.4365 120.011 15.1903 119.928 14.923C119.844 14.6286 119.803 14.3236 119.806 14.0175" fill="white"/>
<path d="M124.081 16.1959V10.7491L125.314 10.5312V11.8521C125.418 11.8194 125.525 11.7943 125.634 11.7772C125.759 11.7505 125.887 11.7368 126.015 11.7364C126.315 11.7268 126.613 11.7777 126.893 11.8861C127.114 11.971 127.309 12.1117 127.458 12.2947C127.601 12.4802 127.703 12.6936 127.758 12.921C127.815 13.1873 127.842 13.459 127.84 13.7313V16.1959H126.607V13.881C126.631 13.5907 126.577 13.2993 126.451 13.0368C126.387 12.9491 126.301 12.8802 126.202 12.8371C126.102 12.794 125.993 12.7783 125.886 12.7917C125.784 12.781 125.681 12.781 125.579 12.7917L125.314 12.853V16.1687L124.081 16.1959Z" fill="white"/>
<path d="M86.8933 16.1893V12.2472C87.4825 11.8773 88.1737 11.7033 88.8678 11.7502C90.1001 11.7502 90.781 12.3697 90.781 13.7246V16.1893H89.5486V13.7246C89.5486 12.86 89.1129 12.7987 88.7452 12.7987C88.5272 12.7977 88.3139 12.8617 88.1325 12.9825V16.1893H86.8933Z" fill="white"/>
<path d="M99.1416 14.3509H96.3637C96.3637 14.3509 96.425 15.2768 97.6642 15.2768C98.081 15.2673 98.495 15.2056 98.8965 15.093L99.019 16.0802C98.5442 16.2457 98.0445 16.3286 97.5416 16.3253C97.2253 16.3596 96.9054 16.3227 96.6053 16.2172C96.3052 16.1117 96.0325 15.9404 95.8073 15.7158C95.582 15.4912 95.4099 15.219 95.3035 14.9192C95.1972 14.6194 95.1593 14.2996 95.1927 13.9832C95.1675 13.6958 95.2035 13.4064 95.2984 13.1339C95.3932 12.8615 95.5446 12.6122 95.7427 12.4025C95.9408 12.1928 96.1811 12.0275 96.4478 11.9174C96.7144 11.8072 97.0013 11.7549 97.2897 11.7636C99.1416 11.7636 99.2641 13.6156 99.1416 14.3509ZM97.2284 12.6283C96.425 12.6283 96.3637 13.493 96.3637 13.493H98.0931C98.0931 13.493 98.0318 12.6283 97.2284 12.6283Z" fill="white"/>
<path d="M161.373 26.4679C161.074 26.4679 160.757 26.4457 160.425 26.4013C160.092 26.368 159.77 26.3181 159.459 26.2515C159.149 26.185 158.866 26.1129 158.611 26.0352C158.356 25.9576 158.156 25.8855 158.012 25.8189L158.494 23.7555C158.783 23.8776 159.149 24.0107 159.593 24.1549C160.047 24.288 160.608 24.3546 161.273 24.3546C162.039 24.3546 162.599 24.2104 162.954 23.9219C163.309 23.6335 163.486 23.2452 163.486 22.7571C163.486 22.4576 163.42 22.208 163.287 22.0083C163.165 21.7976 162.993 21.6312 162.771 21.5091C162.549 21.376 162.283 21.2873 161.972 21.2429C161.673 21.1874 161.351 21.1597 161.007 21.1597H160.042V19.1629H161.14C161.384 19.1629 161.617 19.1407 161.839 19.0963C162.072 19.052 162.277 18.9799 162.455 18.88C162.632 18.7691 162.771 18.6249 162.871 18.4474C162.982 18.2588 163.037 18.0258 163.037 17.7485C163.037 17.5377 162.993 17.3547 162.904 17.1994C162.815 17.0441 162.699 16.9165 162.554 16.8167C162.421 16.7168 162.26 16.6447 162.072 16.6003C161.894 16.5449 161.711 16.5171 161.523 16.5171C161.046 16.5171 160.602 16.5892 160.192 16.7335C159.792 16.8777 159.426 17.0552 159.093 17.2659L158.211 15.4522C158.389 15.3412 158.594 15.2248 158.827 15.1027C159.071 14.9807 159.337 14.8698 159.626 14.7699C159.914 14.6701 160.219 14.5869 160.541 14.5203C160.874 14.4538 161.223 14.4205 161.589 14.4205C162.266 14.4205 162.848 14.5037 163.337 14.6701C163.836 14.8254 164.246 15.0528 164.568 15.3523C164.89 15.6408 165.128 15.9847 165.283 16.384C165.439 16.7723 165.516 17.1994 165.516 17.6653C165.516 18.1201 165.389 18.5639 165.134 18.9965C164.879 19.418 164.535 19.7398 164.102 19.9616C164.701 20.2057 165.161 20.5718 165.483 21.0599C165.816 21.5369 165.982 22.1137 165.982 22.7904C165.982 23.3229 165.894 23.8166 165.716 24.2714C165.539 24.7151 165.261 25.1034 164.884 25.4362C164.507 25.7579 164.024 26.013 163.436 26.2016C162.86 26.3791 162.172 26.4679 161.373 26.4679ZM170.631 24.9037C170.631 25.4029 170.47 25.7856 170.148 26.0519C169.838 26.307 169.483 26.4346 169.083 26.4346C168.684 26.4346 168.323 26.307 168.002 26.0519C167.691 25.7856 167.536 25.4029 167.536 24.9037C167.536 24.4045 167.691 24.0273 168.002 23.7722C168.323 23.5059 168.684 23.3728 169.083 23.3728C169.483 23.3728 169.838 23.5059 170.148 23.7722C170.47 24.0273 170.631 24.4045 170.631 24.9037ZM180.017 20.4275C180.017 22.3689 179.646 23.8609 178.902 24.9037C178.17 25.9354 177.155 26.4512 175.857 26.4512C174.559 26.4512 173.539 25.9354 172.796 24.9037C172.063 23.8609 171.697 22.3689 171.697 20.4275C171.697 19.4624 171.792 18.6082 171.98 17.865C172.18 17.1217 172.463 16.495 172.829 15.9847C173.195 15.4744 173.633 15.0861 174.143 14.8199C174.654 14.5536 175.225 14.4205 175.857 14.4205C177.155 14.4205 178.17 14.9419 178.902 15.9847C179.646 17.0163 180.017 18.4973 180.017 20.4275ZM177.488 20.4275C177.488 19.8507 177.46 19.3293 177.405 18.8634C177.349 18.3864 177.261 17.9759 177.139 17.632C177.017 17.2881 176.85 17.0219 176.639 16.8333C176.429 16.6447 176.168 16.5504 175.857 16.5504C175.547 16.5504 175.286 16.6447 175.075 16.8333C174.876 17.0219 174.709 17.2881 174.576 17.632C174.454 17.9759 174.365 18.3864 174.31 18.8634C174.254 19.3293 174.227 19.8507 174.227 20.4275C174.227 21.0044 174.254 21.5313 174.31 22.0083C174.365 22.4854 174.454 22.8958 174.576 23.2397C174.709 23.5836 174.876 23.8498 175.075 24.0384C175.286 24.227 175.547 24.3213 175.857 24.3213C176.168 24.3213 176.429 24.227 176.639 24.0384C176.85 23.8498 177.017 23.5836 177.139 23.2397C177.261 22.8958 177.349 22.4854 177.405 22.0083C177.46 21.5313 177.488 21.0044 177.488 20.4275Z" fill="#E52B26"/>
</g>
</g>
<defs>
<clipPath id="clip0_9_308">
<rect width="181" height="43" fill="white" transform="translate(0.5)"/>
</clipPath>
<clipPath id="clip1_9_308">
<rect width="180.426" height="32" fill="white" transform="translate(0.5 5.5)"/>
</clipPath>
</defs>
</svg>
