<svg width="129" height="41" viewBox="0 0 129 41" fill="none" xmlns="http://www.w3.org/2000/svg">
<path d="M9.4938 0.771484C10.0738 0.96582 10.6867 0.871642 11.2817 0.974789C12.5763 1.20052 13.7991 1.62208 15.004 2.12585C15.3792 2.28282 15.4988 2.49958 15.3463 2.89572C14.9427 3.94513 14.5555 5.00053 14.1773 6.05891C14.0562 6.39526 13.8903 6.46103 13.5644 6.30407C12.2369 5.66575 10.8392 5.27708 9.36075 5.23971C8.50418 5.21728 7.64611 5.26661 6.83439 5.56709C5.58466 6.02901 5.23336 7.53885 6.13179 8.52248C6.54737 8.97693 7.0646 9.28189 7.62668 9.50761C9.10513 10.0996 10.6015 10.6497 12.068 11.2716C13.2908 11.7903 14.4389 12.4436 15.276 13.5214C18.1163 17.1764 16.5392 22.6253 12.1263 23.9542C8.20221 25.1352 4.29158 24.8093 0.511011 23.1739C0.0221823 22.9616 -0.113853 22.7105 0.0939368 22.1932C0.484103 21.2231 0.826433 20.2319 1.15531 19.2378C1.29134 18.8253 1.44233 18.7311 1.86089 18.9299C4.0539 19.9659 6.3635 20.3485 8.78074 20.0735C10.0768 19.927 10.902 19.3634 11.1337 18.4216C11.3624 17.4963 11.0873 16.7384 10.3414 16.1554C9.39065 15.4124 8.25752 15.0402 7.14533 14.6366C5.93895 14.2001 4.72211 13.7905 3.60394 13.1522C1.30031 11.8381 0.11935 9.87536 0.301726 7.20847C0.499052 4.32932 2.07616 2.45324 4.74155 1.44269C5.65642 1.09588 6.60866 0.91649 7.58632 0.868654C7.75823 0.859684 7.92715 0.805868 8.09608 0.772981C8.56099 0.771486 9.02739 0.771484 9.4938 0.771484Z" fill="#00B8DE"/>
<path d="M128.97 23.6883C127.608 23.9036 126.252 24.1802 124.883 24.3237C122.383 24.5853 119.876 24.7333 117.434 23.9141C115.292 23.195 114.073 21.4744 114.016 19.2112C113.984 17.9166 114.175 16.7072 114.994 15.6458C115.755 14.6607 116.791 14.1181 117.949 13.7847C119.809 13.2495 121.706 13.1942 123.611 13.4932C124.092 13.5679 124.191 13.393 124.182 12.9775C124.158 11.8638 123.478 10.9235 122.383 10.6918C120.619 10.3181 118.866 10.5363 117.13 10.9399C116.247 11.1447 116.251 11.1597 116.109 10.2837C115.973 9.44206 115.839 8.60043 115.697 7.76031C115.64 7.42246 115.652 7.14142 116.067 7.04426C118.796 6.40594 121.542 6.03222 124.321 6.65409C127.034 7.26102 128.536 8.97266 128.867 11.7262C128.885 11.8787 128.934 12.0267 128.97 12.1762C128.97 16.0106 128.97 19.8495 128.97 23.6883ZM124.18 18.7298C124.179 18.7298 124.179 18.7298 124.177 18.7298C124.177 18.2649 124.179 17.8015 124.177 17.3366C124.176 17.1168 124.162 16.8881 123.881 16.8477C122.548 16.6579 121.21 16.5353 119.932 17.1004C119.213 17.4188 118.914 18.0332 118.961 18.8001C119.009 19.5565 119.34 20.1171 120.11 20.3802C121.111 20.721 122.14 20.6896 123.165 20.6223C124.185 20.5551 124.183 20.5282 124.183 19.4862C124.18 19.2336 124.18 18.9809 124.18 18.7298Z" fill="#00B8DE"/>
<path d="M98.4067 15.4323C98.4067 17.7194 98.4186 20.0051 98.4022 22.2923C98.3932 23.56 98.1989 24.8037 97.728 25.9877C96.8998 28.0775 95.3257 29.3272 93.1775 29.8714C90.0532 30.6637 86.9738 30.3228 83.9212 29.4409C83.5564 29.3347 83.4174 29.1434 83.5041 28.7562C83.7328 27.7352 83.9526 26.7127 84.1484 25.6842C84.2351 25.2327 84.4085 25.1102 84.8615 25.2836C86.3848 25.8666 87.9813 26.0774 89.6018 26.0983C90.0637 26.1043 90.5361 26.046 90.989 25.9503C92.5243 25.6274 93.3704 24.5376 93.3898 22.965C93.3958 22.4851 93.3001 22.3551 92.7993 22.533C91.0832 23.1444 89.3252 23.1519 87.5762 22.6944C85.3593 22.1159 83.8629 20.7062 83.1349 18.5521C82.3486 16.229 82.2828 13.8596 83.1259 11.5411C84.1619 8.6933 86.3205 7.09526 89.255 6.61839C92.1939 6.14152 95.1 6.56308 97.9672 7.28362C98.4022 7.39274 98.4052 7.70518 98.4052 8.049C98.4052 10.5111 98.4067 12.9717 98.4067 15.4323ZM93.3853 14.474C93.3853 13.3693 93.3749 12.2661 93.3913 11.1614C93.3973 10.7622 93.2702 10.5634 92.8457 10.5141C92.0698 10.4244 91.3015 10.3825 90.5271 10.5305C89.382 10.7488 88.6017 11.417 88.1472 12.4649C87.494 13.9732 87.491 15.5204 87.9888 17.0632C88.3027 18.0378 89.0053 18.6567 90.0173 18.8765C90.9531 19.0798 91.8665 18.9437 92.7635 18.6328C93.2104 18.4773 93.4063 18.2187 93.3943 17.7299C93.3659 16.6431 93.3853 15.5578 93.3853 14.474Z" fill="#00B8DE"/>
<path d="M25.899 18.0675C26.5672 16.2647 27.077 14.5994 27.5598 12.9251C28.0905 11.0819 28.6077 9.23276 29.107 7.38059C29.2236 6.94857 29.4344 6.79161 29.8829 6.79908C31.1655 6.823 32.4496 6.81851 33.7322 6.80207C34.221 6.79609 34.4064 6.92017 34.2465 7.44637C32.3569 13.6681 30.1819 19.7822 27.3027 25.6272C26.5866 27.0817 25.6987 28.4271 24.2741 29.3091C22.8509 30.1911 21.2678 30.2853 19.6563 30.1672C18.8999 30.1119 18.1615 29.94 17.429 29.7337C16.9252 29.5916 16.7981 29.3465 16.9282 28.8412C17.1659 27.9219 17.3542 26.9905 17.5351 26.0592C17.6203 25.6182 17.8206 25.5465 18.2302 25.6691C19.1286 25.9366 20.0405 26.1115 20.9868 25.9157C22.0646 25.6915 23.1634 24.6017 23.3876 23.5314C23.4369 23.2937 23.3248 23.1173 23.2321 22.9289C21.078 18.5564 19.1929 14.0747 17.7354 9.42111C17.5157 8.71852 17.3139 8.00994 17.0926 7.30734C16.982 6.95455 17.0792 6.80207 17.4618 6.80506C18.8999 6.81403 20.3395 6.81702 21.7776 6.80506C22.1827 6.80207 22.2963 7.03378 22.3875 7.36415C23.2575 10.5438 24.2845 13.6756 25.4057 16.7745C25.5432 17.1557 25.6927 17.5309 25.899 18.0675Z" fill="#00B8DE"/>
<path d="M74.6552 17.0811C73.0228 17.0811 71.3904 17.0781 69.758 17.0826C69.1391 17.0841 69.0868 17.1484 69.2781 17.7135C69.7909 19.2323 70.9763 19.9229 72.4578 20.183C74.3563 20.5164 76.2189 20.2413 78.0307 19.6643C78.5778 19.4894 78.7154 19.6493 78.7871 20.1322C78.9217 21.0515 79.0682 21.9709 79.246 22.8828C79.3447 23.391 79.1429 23.6422 78.6825 23.7872C77.5105 24.1564 76.3056 24.3657 75.0873 24.5002C73.2381 24.7036 71.4009 24.6617 69.6145 24.0757C66.39 23.0188 64.3659 20.4028 64.0894 17.0079C63.9339 15.0929 64.046 13.2243 64.786 11.4215C66.2301 7.90848 69.8327 5.91878 73.6193 6.40911C77.2339 6.87701 79.7274 9.30172 80.2207 13.2123C80.3523 14.2573 80.3074 15.2992 80.3209 16.3441C80.3283 16.8793 80.1116 17.1005 79.5525 17.0916C77.9201 17.0632 76.2877 17.0796 74.6552 17.0811ZM72.3127 13.6758C73.2052 13.6758 74.0976 13.6787 74.9886 13.6743C75.2442 13.6728 75.5312 13.6847 75.4774 13.2901C75.3608 12.441 75.0693 11.6651 74.3742 11.121C73.407 10.3646 72.3157 10.2674 71.1856 10.686C69.9807 11.133 69.4755 12.1286 69.2258 13.302C69.1481 13.6683 69.3888 13.6758 69.6369 13.6758C70.5279 13.6773 71.4203 13.6758 72.3127 13.6758Z" fill="#00B8DE"/>
<path d="M42.3605 6.34022C44.1813 6.34919 45.7464 6.59884 47.2907 7.02488C47.7616 7.15494 47.914 7.36123 47.781 7.85454C47.5343 8.77091 47.34 9.70073 47.1427 10.6291C47.0649 10.9953 46.911 11.1074 46.5343 10.9818C45.5177 10.6395 44.4713 10.4407 43.3995 10.363C42.7492 10.3151 42.1169 10.3809 41.501 10.5648C41.0525 10.6978 40.7042 10.9684 40.6549 11.4901C40.6055 12.0118 40.8298 12.3841 41.2722 12.6472C42.2648 13.2346 43.3711 13.562 44.4205 14.021C45.3294 14.4186 46.2278 14.8342 47.0066 15.465C47.9828 16.2558 48.5225 17.2783 48.5837 18.5221C48.6331 19.5251 48.6869 20.5327 48.2384 21.4924C47.485 23.1054 46.0933 23.8618 44.4728 24.237C41.5443 24.9157 38.6487 24.6735 35.798 23.7572C35.3988 23.6286 35.2449 23.4268 35.3495 22.9828C35.5812 22.0037 35.7696 21.0126 35.9594 20.0229C36.0356 19.6223 36.1971 19.5266 36.6037 19.6686C38.2825 20.2576 40.0061 20.6209 41.8014 20.5417C42.1542 20.5267 42.4966 20.4699 42.8359 20.3817C43.2649 20.2711 43.5669 20.0229 43.6521 19.57C43.7448 19.0752 43.5475 18.6955 43.1423 18.4219C42.4278 17.9391 41.6265 17.6401 40.8283 17.3336C39.6667 16.8882 38.4947 16.4621 37.5051 15.6773C36.3884 14.7938 35.8443 13.6248 35.7322 12.2166C35.4467 8.63188 37.9192 6.92173 40.7206 6.47775C41.3335 6.37759 41.9524 6.30733 42.3605 6.34022Z" fill="#00B8DE"/>
<path d="M51.3744 10.9814C51.3744 8.04838 51.3893 5.6446 51.3639 3.24082C51.3579 2.67575 51.5552 2.45601 52.1098 2.38425C53.3237 2.22878 54.5301 2.02099 55.7364 1.8132C56.2103 1.73098 56.4121 1.85655 56.4032 2.3693C56.3793 3.62949 56.4136 4.88968 56.3867 6.14987C56.3763 6.66561 56.5706 6.82257 57.0714 6.8151C58.5483 6.79118 60.0268 6.82556 61.5052 6.79716C62.0479 6.7867 62.2796 6.94067 62.2557 7.5162C62.2168 8.44453 62.2302 9.37734 62.2512 10.3072C62.2616 10.7616 62.0793 10.9231 61.6308 10.9186C60.1344 10.9036 58.6365 10.9305 57.1387 10.9051C56.599 10.8961 56.3763 11.0441 56.3852 11.6227C56.4151 13.4838 56.3957 15.3449 56.4002 17.2061C56.4002 17.4572 56.4017 17.7128 56.439 17.9595C56.7305 19.8804 57.7934 20.5785 59.9864 20.2661C60.5814 20.1824 61.1734 20.0508 61.7534 19.8939C62.1226 19.7937 62.2915 19.8595 62.3558 20.2526C62.5098 21.2094 62.6682 22.1661 62.8686 23.1139C62.9568 23.5339 62.8103 23.7058 62.435 23.8404C60.3706 24.5833 58.2523 24.7283 56.1147 24.3292C53.3327 23.8105 51.7287 21.8088 51.4835 18.7622C51.2578 15.9937 51.4566 13.2222 51.3744 10.9814Z" fill="#00B8DE"/>
<path d="M102.244 15.905C102.244 13.4055 102.257 10.9061 102.233 8.4066C102.229 7.88638 102.423 7.65018 102.907 7.50219C105.19 6.80707 107.503 6.34515 109.904 6.46324C110.953 6.51407 111.986 6.68748 113.014 6.90722C113.484 7.00738 113.597 7.23162 113.488 7.69204C113.263 8.65325 113.064 9.62344 112.904 10.5966C112.825 11.078 112.632 11.226 112.164 11.0974C111.508 10.9165 110.835 10.8268 110.161 10.7267C109.355 10.6071 108.573 10.7446 107.784 10.8283C107.319 10.8776 107.259 11.1781 107.261 11.5698C107.27 14.0887 107.265 16.6076 107.265 19.1264C107.265 20.56 107.252 21.9936 107.271 23.4272C107.278 23.9415 107.107 24.1657 106.565 24.1553C105.341 24.1313 104.117 24.1298 102.892 24.1553C102.366 24.1657 102.232 23.943 102.235 23.4586C102.253 20.9427 102.244 18.4238 102.244 15.905Z" fill="#00B8DE"/>
<path d="M61.8534 36.2676V30.1398H59.7886V29.3662H64.7867V30.1398H62.6935V36.2676H61.8534ZM69.1298 33.8326C69.1298 33.956 69.1108 34.1269 69.106 34.1554H65.4702C65.5699 35.0335 66.1964 35.6078 67.046 35.6078C67.6346 35.6078 68.0855 35.3373 68.3798 34.9718L68.9304 35.4417C68.5269 35.9638 67.8814 36.3293 67.0176 36.3293C65.6743 36.3293 64.6633 35.3515 64.6633 33.9086C64.6633 32.4799 65.6506 31.4831 66.9274 31.4831C68.2469 31.4831 69.1298 32.4751 69.1298 33.8326ZM66.9701 32.2093C66.2296 32.2093 65.6363 32.6982 65.4892 33.5004H68.3466C68.2232 32.7267 67.72 32.2093 66.9701 32.2093ZM72.3716 36.3293H72.3764C71.0141 36.3293 70.0363 35.3468 70.0363 33.9133C70.0363 32.4799 71.0141 31.4784 72.4048 31.4784C73.1121 31.4784 73.8478 31.7679 74.3129 32.3185L73.7671 32.7931C73.4728 32.4419 73.0076 32.1998 72.4428 32.1998C71.484 32.1998 70.8337 32.9023 70.8337 33.9038C70.8337 34.9148 71.4935 35.6031 72.4428 35.6031C72.9982 35.6031 73.4918 35.3657 73.7813 35.0382L74.3272 35.5271C73.9285 35.9828 73.2212 36.3293 72.3716 36.3293ZM77.9488 31.4831V31.4784C78.974 31.4784 79.667 32.0812 79.667 33.4292V36.2723H78.8791V33.657C78.8791 32.5843 78.4139 32.2046 77.7209 32.2046C76.7811 32.2046 76.1878 32.8216 76.1878 33.8848V36.2676H75.3999V29.1146H76.1878V32.3042H76.2068C76.6102 31.7679 77.2273 31.4831 77.9488 31.4831ZM83.6066 31.4831H83.6113C84.6318 31.4831 85.3106 32.1096 85.3106 33.4671V36.2723H84.5227V33.6855C84.5227 32.5748 84.0575 32.2046 83.3645 32.2046C82.4722 32.2046 81.8789 32.8454 81.8789 33.9086V36.2676H81.0909V31.5401H81.8789V32.3517H81.8931C82.2871 31.7916 82.9088 31.4831 83.6066 31.4831ZM88.8799 36.3293C87.4133 36.3293 86.4355 35.2708 86.4355 33.9133C86.4355 32.5416 87.4133 31.4831 88.8799 31.4831C90.2754 31.4831 91.3149 32.4704 91.3149 33.9133C91.3149 35.3468 90.2754 36.3293 88.8799 36.3293ZM88.8799 35.6078C89.7913 35.6078 90.5175 34.9101 90.5175 33.9133C90.5175 32.9023 89.796 32.2093 88.8799 32.2093C87.8927 32.2093 87.2282 32.9688 87.2282 33.9133C87.2282 34.8484 87.9022 35.6078 88.8799 35.6078ZM92.5965 36.2676V29.1146H93.3796V36.2676H92.5965ZM97.1104 36.3293C95.6437 36.3293 94.6659 35.2708 94.6659 33.9133C94.6659 32.5416 95.6437 31.4831 97.1104 31.4831C98.5058 31.4831 99.5453 32.4704 99.5453 33.9133C99.5453 35.3468 98.5058 36.3293 97.1104 36.3293ZM97.1104 35.6078C98.0217 35.6078 98.7479 34.9101 98.7479 33.9133C98.7479 32.9023 98.0264 32.2093 97.1104 32.2093C96.1231 32.2093 95.4586 32.9688 95.4586 33.9133C95.4586 34.8484 96.1326 35.6078 97.1104 35.6078ZM104.349 31.5401L105.137 31.5353V35.9116C105.137 37.2738 104.458 38.2469 102.811 38.2469C102.104 38.2469 101.449 38.076 100.884 37.7342L101.074 37.008C101.624 37.3213 102.099 37.5064 102.773 37.5064C103.841 37.5064 104.368 36.8846 104.368 36.1204V35.4607H104.344C103.964 35.9116 103.418 36.1821 102.735 36.1821C101.477 36.1821 100.447 35.2471 100.447 33.8374C100.447 32.4989 101.411 31.4831 102.697 31.4831C103.328 31.4831 103.922 31.7299 104.33 32.1951H104.349V31.5401ZM102.801 35.4417C103.755 35.4417 104.382 34.744 104.382 33.7994C104.382 32.8454 103.694 32.2093 102.801 32.2093C101.895 32.2093 101.254 32.8976 101.254 33.8089C101.254 34.8151 101.952 35.4417 102.801 35.4417ZM107.054 30.662C106.736 30.662 106.494 30.4151 106.494 30.1114C106.494 29.8028 106.736 29.556 107.054 29.556C107.363 29.556 107.614 29.8028 107.614 30.1114C107.614 30.4151 107.363 30.662 107.054 30.662ZM106.656 36.2676V31.5401H107.439V36.2676H106.656ZM113.187 33.8326C113.187 33.956 113.168 34.1269 113.163 34.1554H109.527C109.627 35.0335 110.253 35.6078 111.103 35.6078C111.692 35.6078 112.143 35.3373 112.437 34.9718L112.987 35.4417C112.584 35.9638 111.938 36.3293 111.075 36.3293C109.731 36.3293 108.72 35.3515 108.72 33.9086C108.72 32.4799 109.708 31.4831 110.984 31.4831C112.304 31.4831 113.187 32.4751 113.187 33.8326ZM111.027 32.2093C110.287 32.2093 109.693 32.6982 109.546 33.5004H112.404C112.28 32.7267 111.777 32.2093 111.027 32.2093ZM115.821 36.3293V36.334C115.043 36.334 114.43 36.0635 113.965 35.6505L114.378 35.0525C114.744 35.399 115.157 35.6173 115.821 35.6173C116.391 35.6173 116.723 35.3325 116.723 34.986C116.723 34.5778 116.281 34.4497 115.593 34.2076C114.82 33.937 114.169 33.619 114.169 32.7504C114.169 32.029 114.834 31.4831 115.736 31.4831C116.305 31.4831 116.837 31.635 117.364 32.0669L116.955 32.6887C116.538 32.328 116.101 32.1951 115.698 32.1951C115.337 32.1951 114.971 32.4087 114.971 32.7504C114.971 33.1206 115.361 33.301 115.869 33.4956C116.865 33.8801 117.525 34.051 117.52 34.9718C117.52 35.717 116.96 36.3293 115.821 36.3293Z" fill="#00425F"/>
</svg>
