<svg width="56" height="56" viewBox="0 0 56 56" fill="none" xmlns="http://www.w3.org/2000/svg">
<rect width="56" height="56" rx="12" fill="#00425F"/>
<path d="M30.8403 27.1208C31.3603 24.9341 29.4536 23.0274 27.267 23.5474C26.2403 23.8007 25.4003 24.6407 25.147 25.6674C24.627 27.8541 26.5336 29.7607 28.7203 29.2407C29.7603 28.9874 30.6003 28.1474 30.8403 27.1208Z" fill="white"/>
<path opacity="0.4" d="M20.0279 35.9632C19.7879 35.9632 19.5346 35.8699 19.3479 35.6966C16.7612 33.2966 15.2812 29.9099 15.2812 26.3899C15.2812 19.3766 20.9879 13.6699 28.0012 13.6699C35.0146 13.6699 40.7212 19.3766 40.7212 26.3899C40.7212 29.9366 39.2946 33.2166 36.7079 35.6566C36.3079 36.0299 35.6679 36.0166 35.2946 35.6166C34.9212 35.2166 34.9346 34.5766 35.3346 34.2033C37.5212 32.15 38.7212 29.3899 38.7212 26.4032C38.7212 20.4966 33.9079 15.6833 28.0012 15.6833C22.0946 15.6833 17.2812 20.4966 17.2812 26.4032C17.2812 29.4166 18.4946 32.1899 20.7079 34.2432C21.1079 34.6166 21.1346 35.2566 20.7613 35.6566C20.5613 35.8566 20.2946 35.9632 20.0279 35.9632Z" fill="white"/>
<path opacity="0.4" d="M33.3294 32.4001C33.0894 32.4001 32.8361 32.3067 32.6495 32.1334C32.2495 31.76 32.2228 31.1201 32.6095 30.7201C33.7161 29.5467 34.3294 28.0001 34.3294 26.4001C34.3294 22.9067 31.4894 20.0801 28.0094 20.0801C24.5294 20.0801 21.6895 22.9201 21.6895 26.4001C21.6895 28.0134 22.3028 29.5467 23.4094 30.7201C23.7828 31.1201 23.7694 31.76 23.3694 32.1334C22.9694 32.52 22.3294 32.4934 21.9561 32.0934C20.5028 30.5468 19.6895 28.5201 19.6895 26.4001C19.6895 21.8134 23.4228 18.0801 28.0094 18.0801C32.5961 18.0801 36.3294 21.8134 36.3294 26.4001C36.3294 28.5201 35.5295 30.5468 34.0628 32.0934C33.8628 32.2934 33.5961 32.4001 33.3294 32.4001Z" fill="white"/>
<path d="M25.7343 34.213L23.8143 36.5998C22.2943 38.5064 23.6409 41.3197 26.0809 41.3197H29.9076C32.3476 41.3197 33.7076 38.4931 32.1743 36.5998L30.2543 34.213C29.1076 32.7597 26.8943 32.7597 25.7343 34.213Z" fill="white"/>
</svg>
