<svg width="108" height="12" viewBox="0 0 108 12" fill="none" xmlns="http://www.w3.org/2000/svg">
<path id="Vector" d="M2 10L7.87868 4.12132C9.05025 2.94975 10.9497 2.94975 12.1213 4.12132L15.8787 7.87868C17.0503 9.05025 18.9497 9.05025 20.1213 7.87868L23.8787 4.12132C25.0503 2.94975 26.9497 2.94975 28.1213 4.12132L31.8787 7.87868C33.0503 9.05025 34.9497 9.05025 36.1213 7.87868L39.8787 4.12132C41.0503 2.94975 42.9497 2.94975 44.1213 4.12132L47.8787 7.87868C49.0503 9.05025 50.9497 9.05025 52.1213 7.87868L55.8787 4.12132C57.0503 2.94975 58.9497 2.94975 60.1213 4.12132L63.8787 7.87868C65.0503 9.05025 66.9497 9.05025 68.1213 7.87868L71.8787 4.12132C73.0503 2.94975 74.9497 2.94975 76.1213 4.12132L79.8787 7.87868C81.0503 9.05025 82.9497 9.05025 84.1213 7.87868L87.8787 4.12132C89.0503 2.94975 90.9497 2.94975 92.1213 4.12132L95.8787 7.87868C97.0503 9.05025 98.9497 9.05025 100.121 7.87868L106 2" stroke="#00B8DE" stroke-width="4" stroke-linecap="round"/>
</svg>
